<?xml version="1.0" encoding="UTF-8" standalone="no"?>
<!-- Created with Inkscape (http://www.inkscape.org/) -->

<svg
   width="100"
   height="100"
   viewBox="0 0 26.458333 26.458333"
   version="1.1"
   id="svg5"
   inkscape:version="1.1 (ce6663b3b7, 2021-05-25)"
   sodipodi:docname="bilingual.svg"
   xmlns:inkscape="http://www.inkscape.org/namespaces/inkscape"
   xmlns:sodipodi="http://sodipodi.sourceforge.net/DTD/sodipodi-0.dtd"
   xmlns="http://www.w3.org/2000/svg"
   xmlns:svg="http://www.w3.org/2000/svg">
  <sodipodi:namedview
     id="namedview7"
     pagecolor="#ffffff"
     bordercolor="#666666"
     borderopacity="1.0"
     inkscape:pageshadow="2"
     inkscape:pageopacity="0.0"
     inkscape:pagecheckerboard="0"
     inkscape:document-units="mm"
     showgrid="false"
     inkscape:zoom="3.1001683"
     inkscape:cx="26.288895"
     inkscape:cy="71.447733"
     inkscape:window-width="1920"
     inkscape:window-height="1016"
     inkscape:window-x="0"
     inkscape:window-y="27"
     inkscape:window-maximized="1"
     inkscape:current-layer="layer1"
     width="209mm"
     units="px" />
  <defs
     id="defs2" />
  <g
     inkscape:label="Layer 1"
     inkscape:groupmode="layer"
     id="layer1">
    <g
       id="g820"
       transform="matrix(4.6844429,0,0,4.6844429,88.203248,-0.69341965)">
      <path
         style="fill:#cacaca;fill-opacity:1;stroke-width:0.0846667"
         d="m -17.338671,4.6133498 c 0.04251,-0.3771237 0.03442,-0.3934001 -0.322857,-0.6499786 -0.201551,-0.1447428 -0.406524,-0.3781089 -0.455497,-0.5185916 -0.137083,-0.3932361 -0.11192,-1.1265127 0.04401,-1.28244 0.269587,-0.269587 0.544286,-0.093169 0.544286,0.3495523 0,0.15367 0.03161,0.2794 0.07024,0.2794 0.03863,0 0.300388,0.2082734 0.581682,0.4628297 0.368558,0.3335257 0.56388,0.5920265 0.699136,0.9252755 0.288695,0.7112988 0.251516,0.7663042 -0.53791,0.7958288 l -0.666684,0.024934 z m 1.079939,-0.00172 c 0,-0.095753 -0.102927,-0.127 -0.418337,-0.127 -0.395383,0 -0.575057,0.079051 -0.45425,0.1998574 0.02978,0.029778 0.238292,0.054143 0.463364,0.054143 0.307309,0 0.409223,-0.031628 0.409223,-0.1270004 z M -16.428066,4.137534 c 0,-0.1743687 -0.984914,-1.1214428 -1.095301,-1.05322 -0.07525,0.046504 -0.02906,0.1428249 0.163968,0.3419825 0.335504,0.3461526 0.2048,0.4610263 -0.157015,0.1379979 -0.244099,-0.2179314 -0.266318,-0.2812883 -0.266318,-0.7593834 0,-0.2912985 -0.03738,-0.5216145 -0.08467,-0.5216145 -0.09718,0 -0.114509,1.0076796 -0.01987,1.1554749 0.03421,0.053428 0.252703,0.2520932 0.485537,0.4414786 0.297082,0.2416454 0.505396,0.3452382 0.6985,0.3473585 0.151341,0.00166 0.275166,-0.038872 0.275166,-0.090075 z m 0.508,0.5637593 c 0,-0.1602352 0.0381,-0.3148837 0.08467,-0.3436635 0.04657,-0.02878 0.08467,-0.129576 0.08467,-0.2239917 0,-0.1912874 0.948948,-1.2249826 1.196756,-1.3036338 0.118222,-0.037522 0.15791,-0.132369 0.15791,-0.3773745 0,-0.2554525 0.03804,-0.3393306 0.173397,-0.3822895 0.318193,-0.1009906 0.41927,0.094512 0.41927,0.81095 v 0.6619265 l -0.412472,0.3478012 c -0.400252,0.3374974 -0.411213,0.3589671 -0.369989,0.7247065 l 0.04248,0.3769053 h -0.688344 -0.688345 z m 0.867834,0.044392 c 0.147382,-0.00447 0.232833,-0.053665 0.232833,-0.1340555 0,-0.095955 -0.103482,-0.127 -0.423333,-0.127 -0.354023,0 -0.423334,0.025408 -0.423334,0.1551839 0,0.1107473 0.05455,0.1491339 0.1905,0.1340556 0.104775,-0.011621 0.295275,-0.024303 0.423334,-0.028184 z m 0.603025,-0.9671105 0.485737,-0.452055 -0.0258,-0.4802521 c -0.03283,-0.6111176 -0.195131,-0.6252516 -0.195131,-0.016993 0,0.3902097 -0.03641,0.4951084 -0.249209,0.7180525 -0.166139,0.174057 -0.27743,0.2328632 -0.333875,0.1764188 -0.05644,-0.056444 -0.0037,-0.169225 0.15837,-0.3383417 0.13367,-0.1395212 0.216242,-0.2804688 0.183494,-0.3132168 -0.07461,-0.074606 -1.071113,0.9022197 -1.071113,1.0499585 0,0.066401 0.108963,0.1084836 0.280894,0.1084836 0.222359,0 0.382118,-0.094204 0.766631,-0.452055 z m -1.773006,-1.1467806 c -0.136505,-0.083014 -0.374095,-0.2943303 -0.527977,-0.4695923 -0.356652,-0.4062039 -0.354181,-0.8267549 0.0064,-1.0948746 0.201121,-0.14953561 0.271248,-0.16063999 0.490897,-0.0777317 0.17461,0.0659078 0.331353,0.0705473 0.491953,0.0145617 0.481021,-0.16768481 0.941747,0.2519986 0.817983,0.745115 -0.06168,0.2457556 -0.465556,0.703916 -0.784171,0.8895736 -0.233329,0.135961 -0.260588,0.1355728 -0.495115,-0.00705 z m 0.891154,-0.659408 c 0.398029,-0.5060118 0.02262,-1.01453245 -0.505489,-0.6847234 -0.133864,0.0836 -0.202505,0.0836 -0.336369,0 -0.251806,-0.1572558 -0.405371,-0.1282418 -0.558544,0.1055292 -0.128888,0.1967073 -0.127359,0.2273133 0.02322,0.4651442 0.08865,0.1400202 0.288767,0.3487054 0.444694,0.4637448 l 0.283504,0.2091626 0.237993,-0.1694658 c 0.130896,-0.093206 0.31584,-0.2684325 0.410987,-0.3893916 z"
         id="path844" />
      <path
         style="fill:#bdbdbd;fill-opacity:1;stroke-width:0.0846667"
         d="m -17.340311,4.6365198 c 0.03581,-0.3463813 0.01764,-0.3816973 -0.384428,-0.7473546 -0.394116,-0.3584218 -0.424647,-0.4155337 -0.461831,-0.863923 -0.05037,-0.607419 0.01909,-0.8852477 0.238764,-0.9549689 0.239176,-0.075912 0.417983,0.098316 0.424764,0.4138856 0.0047,0.2200413 0.09911,0.3419218 0.558387,0.7210699 0.573139,0.473145 0.873533,0.9690732 0.903169,1.4910631 l 0.01442,0.254 -0.665415,0.024895 -0.665415,0.024894 z m 1.081579,0.018994 c 0,-0.1483495 -0.05518,-0.1708885 -0.418337,-0.1708885 -0.399922,0 -0.573726,0.087241 -0.479036,0.2404523 0.02417,0.039115 0.235973,0.077915 0.470663,0.086222 0.376548,0.013327 0.42671,-0.00499 0.42671,-0.1557858 z m -0.169334,-0.5278591 c 0,-0.045772 -0.226589,-0.317553 -0.503532,-0.6039585 -0.356001,-0.3681653 -0.529976,-0.4943619 -0.593788,-0.4307162 -0.06385,0.063687 -0.02801,0.1484997 0.122532,0.2899252 0.117034,0.1099472 0.212788,0.2578866 0.212788,0.3287542 0,0.085191 -0.100409,0.031529 -0.296333,-0.1583674 -0.271636,-0.2632801 -0.296333,-0.3281714 -0.296333,-0.7786088 0,-0.2711497 -0.03795,-0.4913912 -0.08467,-0.4913912 -0.04776,0 -0.08467,0.2398889 -0.08467,0.5503333 0,0.4217779 0.03604,0.5849444 0.154278,0.6985 0.458408,0.4402508 0.771323,0.6853289 0.913707,0.7156244 0.215002,0.045747 0.456015,-0.017726 0.456015,-0.120095 z m 0.508,0.5771955 c 0,-0.1621939 0.0381,-0.3184451 0.08467,-0.3472249 0.04657,-0.02878 0.08467,-0.129576 0.08467,-0.2239917 0,-0.189225 0.947753,-1.2246034 1.191893,-1.3020904 0.102709,-0.032598 0.161609,-0.1488154 0.179077,-0.3533385 0.03092,-0.3620582 0.240579,-0.5375211 0.442266,-0.370136 0.100645,0.083528 0.134097,0.2704704 0.134097,0.7493889 v 0.6380982 l -0.402167,0.369264 c -0.358184,0.3288804 -0.402166,0.4084271 -0.402166,0.7273681 V 4.950292 l -0.656167,0.024728 -0.656167,0.024728 z m 1.100667,-0.046618 c 0,-0.1518834 -0.05297,-0.1736066 -0.423333,-0.1736066 -0.346737,0 -0.423331,0.026809 -0.423317,0.1481667 1.3e-5,0.11796 0.08632,0.1533531 0.423333,0.1736065 0.378617,0.022754 0.423317,0.00711 0.423317,-0.1481666 z m 0.370192,-0.8796616 0.485737,-0.452055 -0.0258,-0.4937559 c -0.01731,-0.3313721 -0.06497,-0.5066912 -0.144892,-0.5330875 -0.09722,-0.032106 -0.109387,0.053537 -0.06625,0.4662057 0.05136,0.491435 0.04492,0.5132169 -0.231195,0.7808339 -0.359161,0.3481125 -0.516378,0.1923972 -0.170377,-0.1687497 0.364236,-0.3801807 0.163246,-0.4066128 -0.234469,-0.030835 -0.754799,0.7131641 -0.827942,0.8834986 -0.379382,0.8834986 0.222359,0 0.382118,-0.094204 0.766631,-0.452055 z M -16.59768,2.2988569 c -0.320588,-0.3090057 -0.423052,-0.4684951 -0.423052,-0.6584945 0,-0.4906889 0.467199,-0.83015498 0.856085,-0.6220296 0.128633,0.068842 0.236685,0.06837 0.406028,-0.00177 0.469038,-0.19428189 0.940802,0.2342326 0.814015,0.7393902 -0.0773,0.3079736 -0.764059,0.9506768 -1.015848,0.9506768 -0.140916,0 -0.358882,-0.1394785 -0.637228,-0.4077683 z m 1.164448,-0.2182573 c 0.287979,-0.2656794 0.362471,-0.6074695 0.173566,-0.7963743 -0.128687,-0.1286874 -0.427571,-0.1312283 -0.554089,-0.00471 -0.07274,0.072742 -0.159813,0.070826 -0.349359,-0.00769 -0.786965,-0.32597186 -0.863097,0.4875688 -0.09842,1.0517288 0.313542,0.2313234 0.314526,0.2310347 0.828304,-0.2429576 z"
         id="path842" />
      <path
         style="fill:#afafaf;fill-opacity:1;stroke-width:0.0846667"
         d="m -17.33766,4.6327919 c 0.03764,-0.3427135 0.01955,-0.3779602 -0.380334,-0.7408333 -0.363112,-0.3295057 -0.425876,-0.4346403 -0.46438,-0.7778773 -0.05729,-0.5107005 0.02998,-0.9701113 0.196411,-1.0339778 0.233379,-0.089556 0.456979,0.1030767 0.460436,0.3966673 0.0026,0.2211201 0.07523,0.3277857 0.38709,0.5685211 0.677035,0.5226256 1.145654,1.292905 1.068813,1.7568333 -0.02947,0.1779105 -0.07372,0.1905 -0.669557,0.1905 h -0.638004 z m 1.078928,0.021167 c 0,-0.1488081 -0.05645,-0.1693334 -0.465667,-0.1693334 -0.331611,0 -0.465667,0.032498 -0.465667,0.1128889 0,0.1857522 0.09256,0.2257778 0.522111,0.2257778 0.352778,0 0.409223,-0.023356 0.409223,-0.1693333 z m -0.169334,-0.4745304 c 0,-0.163765 -0.916541,-1.1341363 -1.071221,-1.1341363 -0.171856,0 -0.138063,0.1173154 0.09755,0.3386667 0.116416,0.1093677 0.211666,0.2568331 0.211666,0.3277007 0,0.085191 -0.100409,0.031529 -0.296333,-0.1583674 -0.271636,-0.2632801 -0.296333,-0.3281714 -0.296333,-0.7786088 0,-0.2711497 -0.03795,-0.4913912 -0.08467,-0.4913912 -0.04824,0 -0.08467,0.2506003 -0.08467,0.5824676 V 3.448227 l 0.402167,0.3247005 c 0.221192,0.1785852 0.429147,0.3674415 0.462122,0.4196806 0.09706,0.1537559 0.659711,0.142515 0.659711,-0.01318 z m 0.508,0.5750999 c 0,-0.5253852 0.818235,-1.6814836 1.3335,-1.8841257 0.145548,-0.057241 0.1905,-0.1428932 0.1905,-0.3629812 0,-0.362843 0.173351,-0.5272495 0.417922,-0.3963591 0.153081,0.081927 0.174745,0.1735124 0.174745,0.7387441 v 0.6452233 l -0.422722,0.3889646 c -0.340842,0.3136229 -0.414809,0.4298774 -0.381871,0.600185 0.08604,0.444855 6.42e-4,0.5084461 -0.682779,0.5084461 h -0.629295 z m 1.100667,-0.1005695 c 0,-0.1467556 -0.05645,-0.1693334 -0.423333,-0.1693334 -0.366889,0 -0.423334,0.022578 -0.423334,0.1693334 0,0.1467555 0.05645,0.1693333 0.423334,0.1693333 0.366888,0 0.423333,-0.022578 0.423333,-0.1693333 z m 0.340255,-0.848141 0.515693,-0.4786865 -0.02581,-0.4940639 c -0.01732,-0.3316312 -0.06496,-0.5069948 -0.144901,-0.5333954 -0.09723,-0.03211 -0.10938,0.053609 -0.06619,0.4668762 0.0501,0.479365 0.03994,0.5186297 -0.191603,0.7404656 -0.319328,0.3059355 -0.537493,0.2486834 -0.228773,-0.060036 0.211131,-0.2111313 0.292073,-0.4016856 0.170624,-0.4016856 -0.08737,0 -0.82223,0.6923825 -0.978315,0.92177 -0.177777,0.2612672 -0.146258,0.3174421 0.17811,0.3174421 0.193244,0 0.381067,-0.1165882 0.771158,-0.4786864 z m -2.118536,-1.506961 c -0.306184,-0.2951218 -0.423052,-0.4720791 -0.423052,-0.6405661 0,-0.5040672 0.384608,-0.80457784 0.818573,-0.6395849 0.152922,0.058141 0.305821,0.058031 0.473266,-3.386e-4 0.589891,-0.20563741 1.006937,0.3999466 0.660954,0.959759 -0.219277,0.354796 -0.697075,0.7284989 -0.931425,0.7284989 -0.0964,0 -0.365637,-0.1834957 -0.598316,-0.4077683 z m 1.060506,-0.1110148 c 0.391114,-0.3605162 0.492025,-0.6891003 0.277508,-0.9036168 -0.129911,-0.1299109 -0.427974,-0.1308262 -0.557089,-0.00171 -0.07674,0.076741 -0.147825,0.074235 -0.306743,-0.010816 -0.263001,-0.1407539 -0.615701,-0.055203 -0.686037,0.1664061 -0.07124,0.2244436 0.223264,0.6967483 0.574872,0.9219509 0.149745,0.095911 0.28264,0.1750255 0.295322,0.1758099 0.01268,7.874e-4 0.193657,-0.155826 0.402167,-0.3480241 z"
         id="path840" />
      <path
         style="fill:#a1a1a1;fill-opacity:1;stroke-width:0.0846667"
         d="m -17.336023,4.6327919 c 0.03927,-0.3432992 0.02189,-0.3773631 -0.378219,-0.7413341 -0.403262,-0.3668378 -0.419588,-0.3993796 -0.424747,-0.8466667 -0.0086,-0.7468242 0.0087,-0.8354389 0.181044,-0.9276858 0.207927,-0.1112792 0.429213,0.087417 0.429213,0.385398 0,0.1469098 0.173792,0.3710633 0.597864,0.7711108 0.626981,0.5914622 0.841469,0.9567345 0.841469,1.4330176 v 0.2859935 h -0.643893 -0.643893 z m 1.077291,0.021167 c 0,-0.1488081 -0.05645,-0.1693334 -0.465667,-0.1693334 -0.331611,0 -0.465667,0.032498 -0.465667,0.1128889 0,0.1857522 0.09256,0.2257778 0.522111,0.2257778 0.352778,0 0.409223,-0.023356 0.409223,-0.1693333 z m -0.169334,-0.4843783 c 0,-0.168696 -0.915271,-1.1242884 -1.076849,-1.1242884 -0.163311,0 -0.132352,0.092821 0.118177,0.3543173 0.307185,0.3206327 0.176028,0.4160338 -0.14678,0.1067644 -0.210848,-0.2020053 -0.254315,-0.3073638 -0.241966,-0.5864943 0.02214,-0.5005518 0.0025,-0.6365874 -0.09192,-0.6365874 -0.04806,0 -0.08467,0.246342 -0.08467,0.5696925 V 3.422677 l 0.486834,0.4424187 c 0.372062,0.3381183 0.551704,0.4433355 0.762,0.4463074 0.205359,0.0029 0.275166,-0.033077 0.275166,-0.1418228 z m 0.564445,0.7666004 c -0.298163,-0.2981632 0.528925,-1.6558678 1.234722,-2.0268537 0.185142,-0.097316 0.232833,-0.1820258 0.232833,-0.4135637 0,-0.3333256 0.206692,-0.5047264 0.446687,-0.3704186 0.117196,0.065586 0.14598,0.2023593 0.14598,0.6936488 0,0.6920102 -0.0716,0.838869 -0.5812,1.1920185 -0.305864,0.2119638 -0.331708,0.2570516 -0.258187,0.4504269 0.161398,0.424508 0.0426,0.5311863 -0.591541,0.5311863 -0.315067,0 -0.59825,-0.0254 -0.629294,-0.056444 z m 1.044222,-0.2822221 c 0,-0.1464859 -0.05645,-0.1693334 -0.418337,-0.1693334 -0.411686,0 -0.57363,0.087396 -0.470663,0.254 0.02878,0.046567 0.240578,0.084667 0.470663,0.084667 0.361892,0 0.418337,-0.022848 0.418337,-0.1693336 z m 0.25405,-0.7408334 c 0.542669,-0.4437336 0.589777,-0.538142 0.59146,-1.1853333 9.27e-4,-0.3562706 -0.02645,-0.4445 -0.137905,-0.4445 -0.119004,0 -0.131603,0.071355 -0.08735,0.4947319 0.04833,0.4623673 0.03635,0.5094469 -0.183072,0.7196667 -0.320481,0.3070404 -0.536766,0.2958106 -0.241356,-0.012532 0.219298,-0.2288971 0.309387,-0.483943 0.150389,-0.425756 -0.189432,0.069325 -0.873888,0.7096745 -0.98198,0.9187019 -0.257273,0.4975103 0.246943,0.4606895 0.889815,-0.06498 z m -1.974818,-1.5497404 c -0.455289,-0.400761 -0.583857,-0.7988396 -0.36559,-1.1319566 0.125244,-0.1911459 0.182979,-0.2042947 0.88726,-0.2020656 0.8201,0.0026 0.870616,0.017656 1.02178,0.3046274 0.170397,0.323483 -0.06115,0.7747187 -0.602476,1.1740967 -0.367709,0.2712872 -0.489697,0.2525281 -0.940974,-0.1447019 z m 0.993697,-0.1669743 c 0.203397,-0.1874848 0.388835,-0.41362 0.412083,-0.5025227 0.09598,-0.3670076 -0.420177,-0.6735647 -0.686192,-0.4075493 -0.08184,0.08184 -0.138738,0.08184 -0.269784,0 -0.410012,-0.2560568 -0.843884,0.00509 -0.712174,0.4286515 0.05969,0.1919512 0.683509,0.8223019 0.813784,0.8223019 0.03986,0 0.238886,-0.1533966 0.442283,-0.3408814 z"
         id="path838" />
      <path
         style="fill:#939393;fill-opacity:1;stroke-width:0.0846667"
         d="m -17.337602,4.6327919 c 0.0375,-0.3409322 0.01776,-0.3804452 -0.375844,-0.7522337 l -0.415427,-0.3924004 0.0249,-0.6659329 c 0.02353,-0.6291656 0.03606,-0.6675107 0.226996,-0.6945073 0.243339,-0.034406 0.345209,0.1044968 0.346945,0.4730743 7.88e-4,0.1663281 0.04412,0.2751667 0.109576,0.2751667 0.151631,0 1.109977,1.0082107 1.231094,1.2951504 0.05498,0.1302495 0.09996,0.3683745 0.09996,0.5291667 v 0.2923495 h -0.643893 -0.643893 z m 1.07887,0.021167 c 0,-0.1488081 -0.05645,-0.1693334 -0.465667,-0.1693334 -0.331611,0 -0.465667,0.032498 -0.465667,0.1128889 0,0.1857522 0.09256,0.2257778 0.522111,0.2257778 0.352778,0 0.409223,-0.023356 0.409223,-0.1693333 z m -0.169334,-0.4843783 c 0,-0.168696 -0.915271,-1.1242884 -1.076849,-1.1242884 -0.163311,0 -0.132352,0.092821 0.118177,0.3543173 0.304639,0.3179746 0.177362,0.4173124 -0.142296,0.1110604 -0.227109,-0.2175845 -0.250463,-0.2885113 -0.23195,-0.7044553 0.01377,-0.3094842 -0.01443,-0.4748393 -0.08525,-0.4997722 -0.07791,-0.02743 -0.106137,0.1153935 -0.106985,0.5412943 l -0.0012,0.5785555 0.487984,0.4411993 c 0.37297,0.3372116 0.55284,0.4419772 0.763151,0.4445 0.205132,0.00246 0.275167,-0.033786 0.275167,-0.1424109 z m 0.564445,0.7666004 c -0.292903,-0.2929032 0.445525,-1.5239132 1.192389,-1.9877926 0.222546,-0.1382242 0.275166,-0.225685 0.275166,-0.457356 0,-0.3285835 0.208288,-0.4991019 0.446687,-0.3656874 0.116562,0.065232 0.14598,0.2014032 0.14598,0.6757205 0,0.7075804 -0.03978,0.7943172 -0.533753,1.1637007 -0.333013,0.2490224 -0.372943,0.3123301 -0.320414,0.508 0.121814,0.4537497 0.0484,0.5198593 -0.577263,0.5198593 -0.314792,0 -0.597748,-0.0254 -0.628792,-0.056444 z m 1.044222,-0.2822221 c 0,-0.1488081 -0.05645,-0.1693334 -0.465667,-0.1693334 -0.331611,0 -0.465666,0.032498 -0.465666,0.1128889 0,0.1857522 0.09256,0.2257778 0.522111,0.2257778 0.352777,0 0.409222,-0.023356 0.409222,-0.1693333 z m 0.02222,-0.5291667 c 0.109587,-0.104775 0.339919,-0.3110738 0.511849,-0.4584417 0.301584,-0.2584998 0.3126,-0.2875893 0.3126,-0.8255 0,-0.4489829 -0.02575,-0.5575583 -0.132241,-0.5575583 -0.107827,0 -0.12764,0.092817 -0.107323,0.5027652 0.0215,0.4339335 -0.003,0.5324605 -0.178852,0.7196667 -0.112072,0.1192958 -0.261751,0.2169014 -0.332618,0.2169014 -0.08601,0 -0.03643,-0.095358 0.149116,-0.286789 0.400342,-0.4130482 0.176651,-0.4787366 -0.300053,-0.088113 -0.402196,0.3295692 -0.729215,0.7779683 -0.654978,0.8980866 0.0866,0.1401257 0.537232,0.065676 0.7325,-0.1210179 z m -1.739393,-1.778 c -0.21231,-0.1979083 -0.412935,-0.4674179 -0.445834,-0.5989101 -0.128197,-0.5123926 0.305465,-0.8656548 0.822908,-0.670342 0.140757,0.05313 0.258273,0.058434 0.286398,0.012926 0.02623,-0.042446 0.176033,-0.077174 0.332888,-0.077174 0.363695,0 0.671414,0.3480934 0.595533,0.6736689 -0.06392,0.2742576 -0.825657,1.0196644 -1.042002,1.0196644 -0.09013,0 -0.337581,-0.161925 -0.549891,-0.3598332 z m 0.875226,-0.023132 c 0.160389,-0.1174976 0.357718,-0.3349097 0.438509,-0.4831379 0.125969,-0.2311158 0.130558,-0.2941531 0.03222,-0.4425346 -0.145323,-0.2192716 -0.357247,-0.2619208 -0.615283,-0.1238242 -0.15538,0.083157 -0.225397,0.085092 -0.302138,0.00835 -0.05494,-0.054939 -0.205229,-0.099889 -0.333977,-0.099889 -0.275728,0 -0.447284,0.2533318 -0.360517,0.5323647 0.05504,0.1770041 0.679261,0.8223019 0.795443,0.8223019 0.02977,0 0.185357,-0.096134 0.345746,-0.213632 z"
         id="path836" />
      <path
         style="fill:#858585;fill-opacity:1;stroke-width:0.0846667"
         d="m -17.329323,4.8642131 c -0.0271,-0.070627 -0.02829,-0.2325516 -0.0026,-0.3598333 0.0395,-0.1959821 -0.01795,-0.2915121 -0.375137,-0.6238216 l -0.421774,-0.3924004 0.0249,-0.6659329 c 0.02353,-0.6291656 0.03606,-0.6675107 0.226995,-0.6945073 0.243339,-0.034406 0.345209,0.1044968 0.346945,0.4730743 7.88e-4,0.1665997 0.0441,0.2751667 0.109781,0.2751667 0.176261,0 1.058249,0.946912 1.200105,1.2884472 0.07191,0.1731294 0.130744,0.4303044 0.130744,0.5715 v 0.2567194 h -0.595324 c -0.453982,0 -0.607023,-0.030488 -0.6446,-0.1284121 z m 1.070591,-0.2102545 c 0,-0.1488081 -0.05645,-0.1693334 -0.465667,-0.1693334 -0.409222,0 -0.465667,0.020525 -0.465667,0.1693334 0,0.1488081 0.05645,0.1693333 0.465667,0.1693333 0.409222,0 0.465667,-0.020525 0.465667,-0.1693333 z m -0.169334,-0.4843783 c 0,-0.168696 -0.915271,-1.1242884 -1.076849,-1.1242884 -0.163311,0 -0.132352,0.092821 0.118177,0.3543173 0.295473,0.3084072 0.177884,0.4276722 -0.123393,0.1251524 -0.195829,-0.1966362 -0.230268,-0.3023726 -0.230268,-0.7069809 0,-0.3047437 -0.03804,-0.4888548 -0.105833,-0.5121818 -0.07783,-0.02678 -0.106138,0.1166916 -0.106985,0.5421375 l -0.0012,0.5785555 0.487984,0.4411993 c 0.37297,0.3372116 0.55284,0.4419772 0.763151,0.4445 0.205132,0.00246 0.275167,-0.033786 0.275167,-0.1424109 z m 0.564445,0.7666004 c -0.291831,-0.2918305 0.445198,-1.523684 1.18751,-1.9847772 0.212771,-0.1321649 0.27583,-0.2346265 0.296333,-0.4815016 0.02377,-0.2862232 0.04823,-0.31361 0.280046,-0.31361 0.253178,0 0.254082,0.00176 0.279574,0.5433242 0.03174,0.6742963 -0.06344,0.9033793 -0.526502,1.267258 -0.348884,0.2741552 -0.362892,0.3026084 -0.323041,0.6561666 l 0.04166,0.3695845 h -0.589566 c -0.324262,0 -0.614967,-0.0254 -0.646011,-0.056444 z m 1.044222,-0.2822221 c 0,-0.1488081 -0.05645,-0.1693334 -0.465667,-0.1693334 -0.409222,0 -0.465666,0.020525 -0.465666,0.1693334 0,0.1488081 0.05644,0.1693333 0.465666,0.1693333 0.409222,0 0.465667,-0.020525 0.465667,-0.1693333 z m 0.135106,-0.6138334 c 0.720013,-0.6176675 0.711561,-0.603382 0.711561,-1.2026514 0,-0.4459221 -0.02583,-0.5541819 -0.132241,-0.5541819 -0.107827,0 -0.12764,0.092817 -0.107323,0.5027652 0.0215,0.4339335 -0.003,0.5324605 -0.178852,0.7196667 -0.112072,0.1192958 -0.261751,0.2169014 -0.332618,0.2169014 -0.08601,0 -0.03643,-0.095358 0.149116,-0.286789 0.279379,-0.2882455 0.247466,-0.4805161 -0.0525,-0.3163066 -0.245321,0.1342953 -0.846979,0.8000118 -0.908532,1.0052623 -0.05156,0.1719393 -0.0285,0.1905 0.236749,0.1905 0.209313,0 0.386179,-0.07918 0.61464,-0.2751667 z M -16.44555,2.4160907 c -0.449248,-0.3430267 -0.638668,-0.7225615 -0.52373,-1.0493855 0.10093,-0.2869923 0.459761,-0.42128266 0.791302,-0.2961399 0.155,0.058506 0.273497,0.062608 0.324859,0.011247 0.152118,-0.15211824 0.627984,-0.036944 0.799176,0.1934256 0.148677,0.2000719 0.152457,0.245272 0.04248,0.508 -0.130482,0.311714 -0.752501,0.9233876 -0.939006,0.9233876 -0.06302,0 -0.285806,-0.1307405 -0.495082,-0.2905345 z m 0.788317,-0.06805 c 0.347584,-0.2569797 0.609592,-0.6968766 0.54197,-0.9099357 -0.07034,-0.2216085 -0.423036,-0.30716 -0.686037,-0.166406 -0.158918,0.085051 -0.230002,0.087557 -0.306743,0.010816 -0.270362,-0.2703622 -0.743356,-0.031927 -0.743356,0.3747247 0,0.1543641 0.702211,0.8800527 0.851582,0.8800527 0.04763,0 0.201797,-0.085163 0.342584,-0.1892517 z"
         id="path834" />
      <path
         style="fill:#787878;fill-opacity:1;stroke-width:0.0846667"
         d="m -17.320461,4.902465 c -0.03065,-0.049588 -0.0324,-0.21446 -0.0039,-0.3663816 0.04705,-0.2507992 0.01276,-0.3116569 -0.372608,-0.6612448 l -0.42443,-0.3850235 V 2.8415629 c 0,-0.5220581 0.02696,-0.6585989 0.138508,-0.7014027 0.223971,-0.085945 0.409891,0.095209 0.438103,0.4268732 0.01467,0.1724257 0.07195,0.3089252 0.12965,0.3089252 0.175443,0 1.049753,0.9549745 1.191571,1.3015065 0.07379,0.1803118 0.134168,0.4374868 0.134168,0.5714999 v 0.2436602 h -0.58767 c -0.324323,0 -0.61264,-0.040403 -0.643392,-0.09016 z m 1.061729,-0.2485064 c 0,-0.1488081 -0.05645,-0.1693334 -0.465667,-0.1693334 -0.409222,0 -0.465667,0.020525 -0.465667,0.1693334 0,0.1488081 0.05645,0.1693333 0.465667,0.1693333 0.409222,0 0.465667,-0.020525 0.465667,-0.1693333 z m -0.169334,-0.5062582 c 0,-0.1830238 -0.896726,-1.1024085 -1.075239,-1.1024085 -0.164938,0 -0.134631,0.092124 0.116567,0.3543173 0.303442,0.3167254 0.177989,0.4179126 -0.140193,0.1130756 -0.237111,-0.2271674 -0.247681,-0.2662434 -0.198722,-0.734661 0.04425,-0.4233771 0.03165,-0.4947319 -0.08735,-0.4947319 -0.115005,0 -0.139468,0.098867 -0.14141,0.5715 l -0.0023,0.5715 0.489182,0.4424456 c 0.375798,0.3398945 0.55296,0.4429218 0.764348,0.4445 0.218461,0.00163 0.275167,-0.032483 0.275167,-0.1655371 z m 0.566088,0.6677624 c -0.09372,-0.358368 0.265238,-1.0416643 0.789758,-1.5033657 0.272513,-0.2398762 0.536131,-0.4361385 0.585816,-0.4361385 0.04969,0 0.09034,-0.111184 0.09034,-0.2470754 0,-0.3721417 0.08217,-0.5149246 0.296334,-0.5149246 0.238831,0 0.296333,0.1402185 0.296333,0.7226075 0,0.5816853 -0.09634,0.7796113 -0.545455,1.1206453 -0.352147,0.2674006 -0.363213,0.2899557 -0.321936,0.6561667 l 0.04275,0.3792471 h -0.593802 c -0.531346,0 -0.598677,-0.018634 -0.640132,-0.1771624 z m 1.064968,-0.042782 c 0.02783,-0.027836 0.03011,-0.1040359 0.0051,-0.1693333 -0.03129,-0.081544 -0.188545,-0.1187225 -0.502166,-0.1187225 -0.400164,0 -0.456608,0.020932 -0.456608,0.1693334 0,0.1481666 0.05644,0.1693333 0.451555,0.1693333 0.248356,0 0.474331,-0.022775 0.502167,-0.050611 z m 0.112717,-0.7325558 c 0.720013,-0.6176675 0.711561,-0.603382 0.711561,-1.2026514 0,-0.4549443 -0.02462,-0.5541819 -0.137485,-0.5541819 -0.114852,0 -0.131139,0.076511 -0.09894,0.4647952 0.03421,0.4125183 0.01251,0.4958419 -0.192923,0.7408333 -0.127307,0.151821 -0.260982,0.2470657 -0.297054,0.211655 -0.03607,-0.035411 0.03954,-0.1741064 0.168016,-0.3082126 0.244252,-0.2549436 0.182611,-0.4237937 -0.09958,-0.2727708 -0.245005,0.1311229 -0.950703,0.9217162 -0.950703,1.0650727 0,0.2477513 0.541519,0.1605032 0.897106,-0.1445395 z m -1.688194,-1.5670673 c -0.374149,-0.2789726 -0.646919,-0.6695002 -0.647688,-0.9273011 -0.0012,-0.3957859 0.541023,-0.65638757 0.931204,-0.4475693 0.106038,0.05675 0.176024,0.05675 0.211097,0 0.08894,-0.14390705 0.598555,-0.096323 0.749019,0.069938 0.07707,0.085158 0.140123,0.2826626 0.140123,0.4388983 0,0.2300031 -0.08051,0.3616693 -0.423053,0.6918333 -0.232679,0.2242726 -0.473542,0.4077683 -0.535251,0.4077683 -0.06171,0 -0.253162,-0.1051052 -0.425451,-0.2335675 z m 0.78917,-0.1882466 c 0.610665,-0.483656 0.643329,-1.102186 0.05821,-1.102186 -0.152032,0 -0.322141,0.04572 -0.378021,0.1016 -0.07902,0.079022 -0.124178,0.079022 -0.2032,0 -0.130973,-0.1309724 -0.512495,-0.1309724 -0.643467,0 -0.206848,0.2068482 -0.110224,0.5118304 0.280887,0.8865799 0.210367,0.2015677 0.42396,0.3664867 0.474649,0.3664867 0.05069,0 0.235615,-0.1136163 0.410946,-0.2524806 z"
         id="path832" />
      <path
         style="fill:#6a6a6a;fill-opacity:1;stroke-width:0.0846667"
         d="m -17.332078,4.8570349 c -0.03026,-0.078859 -0.01555,-0.2479426 0.03269,-0.3757408 0.08199,-0.2172241 0.06078,-0.2528953 -0.325649,-0.5475895 -0.47133,-0.3594414 -0.515248,-0.4720196 -0.479713,-1.2296916 0.02294,-0.4890373 0.04548,-0.5505394 0.21046,-0.5740257 0.215947,-0.030743 0.404079,0.2508689 0.337551,0.5052741 -0.03018,0.1153943 0.01227,0.1865845 0.140555,0.2357178 0.267007,0.1022659 1.157456,1.0652655 1.157456,1.2517606 0,0.087277 0.04108,0.199764 0.09128,0.2499712 0.05021,0.050207 0.07878,0.200702 0.0635,0.3344333 -0.02721,0.2381473 -0.03956,0.2436629 -0.600448,0.2682092 -0.474722,0.020775 -0.582073,5.418e-4 -0.627682,-0.1183186 z m 1.073346,-0.2030763 c 0,-0.1488081 -0.05645,-0.1693334 -0.465667,-0.1693334 -0.409222,0 -0.465667,0.020525 -0.465667,0.1693334 0,0.1488081 0.05645,0.1693333 0.465667,0.1693333 0.409222,0 0.465667,-0.020525 0.465667,-0.1693333 z m -0.136385,-0.4081487 c 0.07579,-0.1226388 -0.249936,-0.5610944 -0.691475,-0.9307715 -0.475498,-0.3981095 -0.708524,-0.3416843 -0.309395,0.074917 0.309946,0.3235139 0.193019,0.4331055 -0.130944,0.1227294 -0.237111,-0.2271674 -0.247681,-0.2662434 -0.198722,-0.734661 0.04425,-0.4233771 0.03165,-0.4947319 -0.08735,-0.4947319 -0.115005,0 -0.139468,0.098867 -0.14141,0.5715 l -0.0023,0.5715 0.489182,0.4424456 c 0.371806,0.3362838 0.554007,0.4429385 0.759352,0.4445 0.148593,0.00113 0.289493,-0.029212 0.313112,-0.067428 z m 0.544089,0.5563153 c -0.05768,-0.4009264 0.216363,-0.9361068 0.735296,-1.4359662 0.2794,-0.2691309 0.555625,-0.489525 0.613833,-0.4897646 0.06039,-2.487e-4 0.105833,-0.1065277 0.105833,-0.2475112 0,-0.3721417 0.08217,-0.5149246 0.296334,-0.5149246 0.244044,0 0.296333,0.138859 0.296333,0.7869531 0,0.51695 -0.0019,0.5208731 -0.449476,0.9455753 -0.426878,0.4050301 -0.447714,0.4445626 -0.41444,0.7863049 l 0.03504,0.3598333 h -0.595671 c -0.553168,0 -0.597626,-0.013593 -0.623077,-0.1905 z m 1.079904,-0.1693333 c 0.01832,-0.126816 -0.05071,-0.1481667 -0.4791,-0.1481667 -0.448125,0 -0.500508,0.018165 -0.500508,0.1735586 0,0.1575109 0.0443,0.1712107 0.4791,0.1481666 0.380031,-0.020141 0.483526,-0.05603 0.500508,-0.1735585 z m 0.100205,-0.5926667 c 0.732099,-0.6643478 0.698187,-0.6059331 0.698187,-1.2026514 0,-0.4549443 -0.02462,-0.5541819 -0.137485,-0.5541819 -0.114852,0 -0.131139,0.076511 -0.09894,0.4647952 0.03421,0.4125183 0.01251,0.4958419 -0.192923,0.7408333 -0.127307,0.151821 -0.260982,0.2470657 -0.297054,0.211655 -0.03607,-0.035411 0.03641,-0.1708456 0.161074,-0.3009662 0.267326,-0.2790285 0.282246,-0.3543173 0.07022,-0.3543173 -0.186798,0 -1.113555,0.9460316 -1.113555,1.1367146 0,0.2559867 0.569903,0.167178 0.91048,-0.1418813 z m -1.631339,-1.513457 c -0.350341,-0.2493844 -0.718474,-0.7422543 -0.718474,-0.9619181 0,-0.3940597 0.650279,-0.71397837 0.9144,-0.4498582 0.07902,0.079022 0.124177,0.079022 0.2032,0 0.154222,-0.15422284 0.615215,-0.12252855 0.774277,0.053233 0.07707,0.085158 0.140123,0.2826626 0.140123,0.4388983 0,0.2300031 -0.08051,0.3616693 -0.423053,0.6918333 -0.232679,0.2242726 -0.47134,0.4077683 -0.530359,0.4077683 -0.05902,0 -0.22107,-0.080981 -0.360114,-0.1799566 z m 0.69179,-0.2054196 c 0.625508,-0.4770982 0.677884,-1.1386233 0.09015,-1.1386233 -0.154669,0 -0.322862,0.041647 -0.373764,0.092549 -0.06695,0.066954 -0.15359,0.052554 -0.313267,-0.052071 -0.205097,-0.1343845 -0.235698,-0.1348042 -0.432384,-0.00593 -0.327066,0.2143019 -0.276996,0.5150703 0.158193,0.9502594 0.203422,0.2034228 0.418901,0.3698596 0.478841,0.3698596 0.05994,0 0.236443,-0.09722 0.39223,-0.2160433 z"
         id="path830" />
      <path
         style="fill:#5c5c5c;fill-opacity:1;stroke-width:0.0846667"
         d="m -17.280464,4.8125821 c -0.06731,-0.1257667 -0.07039,-0.2370416 -0.01021,-0.3691158 0.07651,-0.1679217 0.03951,-0.2246419 -0.330788,-0.5070317 -0.475039,-0.3622697 -0.518862,-0.4740205 -0.483293,-1.2324216 0.02318,-0.4942402 0.04428,-0.5503611 0.216052,-0.5747585 0.139561,-0.019822 0.212361,0.03082 0.272791,0.1897647 0.04534,0.1192412 0.06136,0.2717078 0.03561,0.3388146 -0.02937,0.076525 0.04297,0.1684446 0.194029,0.2465604 0.346927,0.1794032 1.127542,1.0319889 1.127542,1.2314994 0,0.093173 0.0381,0.1929518 0.08467,0.2217316 0.136774,0.084531 0.09947,0.5265372 -0.04926,0.5836083 -0.07366,0.028265 -0.319968,0.051392 -0.547354,0.051392 -0.334975,0 -0.431715,-0.034166 -0.509786,-0.1800431 z m 1.04412,-0.039901 c 0.02784,-0.027836 0.03011,-0.1040359 0.0051,-0.1693333 -0.03129,-0.081544 -0.188546,-0.1187225 -0.502166,-0.1187225 -0.400164,0 -0.456609,0.020932 -0.456609,0.1693334 0,0.1481666 0.05645,0.1693333 0.451556,0.1693333 0.248355,0 0.47433,-0.022775 0.502166,-0.050611 z m -0.107055,-0.503927 c 0,-0.2713103 -1.037282,-1.3572965 -1.200232,-1.2565876 -0.121269,0.074949 -0.07674,0.1891405 0.158988,0.4077207 0.125816,0.1166632 0.200861,0.2400095 0.166768,0.2741032 -0.03409,0.034094 -0.165041,-0.041063 -0.290993,-0.1670156 -0.204898,-0.2048981 -0.226399,-0.281568 -0.204256,-0.7283527 0.02244,-0.4527446 -0.07303,-0.7094685 -0.212101,-0.5703928 -0.07709,0.077095 -0.07839,0.9287035 -0.0018,1.1557294 0.0393,0.1164166 0.268804,0.3715148 0.510017,0.5668849 0.335351,0.2716162 0.513295,0.3563044 0.75607,0.3598333 0.174625,0.00254 0.3175,-0.016327 0.3175,-0.041923 z m 0.508,0.4892468 c 0,-0.1364589 0.04297,-0.3776175 0.09549,-0.535908 0.102133,-0.3078405 1.055146,-1.3461342 1.235569,-1.3461342 0.06319,0 0.108279,-0.102883 0.108279,-0.2470754 0,-0.3721417 0.08217,-0.5149246 0.296334,-0.5149246 0.243859,0 0.296333,0.1389145 0.296333,0.7844896 0,0.5123323 -0.0037,0.5202092 -0.444049,0.9446461 -0.390341,0.3762397 -0.444103,0.4690791 -0.4445,0.7676017 l -4.51e-4,0.3395959 -0.5715,0.027908 -0.5715,0.027908 z m 1.084885,-0.1252089 c 0.02435,-0.1279422 -0.04199,-0.1481667 -0.48601,-0.1481667 -0.461937,0 -0.514208,0.017643 -0.514208,0.1735586 0,0.157759 0.04424,0.171247 0.48601,0.1481666 0.383377,-0.02003 0.491965,-0.056681 0.514208,-0.1735585 z m 0.27986,-0.756482 0.504708,-0.438982 -0.02456,-0.5981847 c -0.02879,-0.7011845 -0.1926,-0.7795294 -0.196517,-0.093987 -0.0022,0.3811634 -0.04296,0.504533 -0.239828,0.7254821 -0.130462,0.1464213 -0.259853,0.2435705 -0.287537,0.2158872 -0.02768,-0.027683 0.05166,-0.1567958 0.176328,-0.2869164 0.267326,-0.2790285 0.282246,-0.3543173 0.07022,-0.3543173 -0.186798,0 -1.113555,0.9460316 -1.113555,1.1367146 0,0.096442 0.08376,0.1332854 0.303018,0.1332854 0.243722,0 0.401782,-0.085902 0.807727,-0.438982 z m -2.045305,-1.5718513 c -0.502348,-0.4880238 -0.583257,-0.7452218 -0.334081,-1.0619978 0.185632,-0.235993 0.560348,-0.31092893 0.726075,-0.1452012 0.05551,0.055512 0.177118,0.048807 0.358843,-0.019786 0.411784,-0.15543124 0.724872,0.041658 0.761014,0.4790598 0.0246,0.2977154 -0.01142,0.3622876 -0.41179,0.7381734 -0.241311,0.2265552 -0.4944,0.4119185 -0.562419,0.4119185 -0.06802,0 -0.309958,-0.180975 -0.537642,-0.4021667 z M -15.452171,2.15852 c 0.415624,-0.4156238 0.46689,-0.6337769 0.209439,-0.8912281 -0.200042,-0.2000416 -0.332517,-0.2120745 -0.553759,-0.050299 -0.140241,0.1025468 -0.19615,0.1017835 -0.403634,-0.00551 -0.214146,-0.1107393 -0.263592,-0.1096401 -0.446059,0.00992 -0.320277,0.209854 -0.267336,0.5140518 0.164645,0.9460322 0.203422,0.2034226 0.433025,0.3698594 0.510228,0.3698594 0.0772,0 0.310815,-0.1704474 0.51914,-0.3787719 z"
         id="path828" />
      <path
         style="fill:#4e4e4e;fill-opacity:1;stroke-width:0.0846667"
         d="m -15.390899,4.9247005 c -0.399876,-0.023022 -0.4445,-0.045128 -0.4445,-0.220199 0,-0.4055283 0.207757,-0.7874291 0.706872,-1.2993763 0.283747,-0.2910416 0.562329,-0.5291666 0.619071,-0.5291666 0.05746,0 0.11481,-0.1368623 0.129446,-0.3089252 0.03172,-0.3728957 0.239957,-0.5424053 0.451081,-0.3671883 0.11543,0.095798 0.136316,0.2307365 0.109412,0.7068725 -0.03309,0.5856728 -0.0353,0.5903221 -0.464198,0.9773565 -0.395388,0.3567973 -0.427631,0.4140971 -0.390778,0.6944516 0.04676,0.3557251 -0.01683,0.3864519 -0.716406,0.3461748 z m 0.640889,-0.2834674 c -0.02373,-0.1597066 -0.08423,-0.1830952 -0.492722,-0.1905 -0.421468,-0.00764 -0.468235,0.00964 -0.492722,0.1820588 -0.02554,0.1798065 0.0021,0.1905 0.492722,0.1905 0.483831,0 0.517906,-0.01259 0.492722,-0.1820588 z m 0.279356,-0.7649232 0.504708,-0.438982 -0.02456,-0.5981847 c -0.03012,-0.7336417 -0.184607,-0.7910443 -0.218781,-0.081293 -0.02144,0.4452274 -0.05959,0.550136 -0.275167,0.7566737 -0.312984,0.2998576 -0.331729,0.1753833 -0.02224,-0.1476574 0.174862,-0.1825163 0.204808,-0.2612586 0.128412,-0.3376551 -0.0764,-0.076396 -0.2283,0.029038 -0.651376,0.4521137 -0.640151,0.6401517 -0.697956,0.8339667 -0.248726,0.8339667 0.243722,0 0.401782,-0.085902 0.807727,-0.438982 z m -2.825466,0.8743408 c -0.02263,-0.086519 -0.0024,-0.2264386 0.04484,-0.3109316 0.0681,-0.1216871 0.0438,-0.1871368 -0.116905,-0.3148304 -0.753338,-0.5986056 -0.753307,-0.5985553 -0.751914,-1.2205385 0.0014,-0.6454905 0.07054,-0.8213684 0.305183,-0.7768514 0.115918,0.021992 0.166338,0.1164428 0.185494,0.3474809 0.02032,0.2450296 0.07842,0.3442278 0.255154,0.435621 0.337333,0.1744416 1.11554,1.0292129 1.11554,1.2252929 0,0.093173 0.0381,0.1929518 0.08467,0.2217316 0.04657,0.02878 0.08467,0.1643783 0.08467,0.3013301 v 0.2490032 h -0.582792 c -0.496736,0 -0.588866,-0.023228 -0.623929,-0.1573078 z m 1.122054,-0.087634 c 0,-0.1975849 -0.105697,-0.2376093 -0.592666,-0.2244249 -0.324686,0.00879 -0.384999,0.037983 -0.408056,0.1975075 -0.02537,0.1755561 0.0049,0.1871923 0.486834,0.1871923 0.447763,0 0.513888,-0.020624 0.513888,-0.1602749 z m -0.169333,-0.394263 c 0,-0.2733978 -1.030695,-1.3613673 -1.194054,-1.260406 -0.129383,0.079964 -0.08497,0.2059967 0.148991,0.4228274 0.123715,0.1146555 0.198761,0.2346408 0.166768,0.2666339 -0.03199,0.031993 -0.161222,-0.044882 -0.287174,-0.1708346 -0.204898,-0.2048981 -0.226399,-0.281568 -0.204256,-0.7283527 0.02485,-0.5014334 -0.09467,-0.7456887 -0.247111,-0.5050105 -0.08693,0.1372392 -0.09069,0.8973636 -0.0055,1.1127204 0.03249,0.082155 0.267941,0.3176803 0.523215,0.5233888 0.3567,0.2874405 0.537629,0.3753529 0.781636,0.3797933 0.174625,0.00318 0.3175,-0.015164 0.3175,-0.04076 z m -0.161435,-1.9642954 c -0.538447,-0.5068408 -0.61489,-0.7765391 -0.307286,-1.0841431 0.176607,-0.1766069 0.273688,-0.212671 0.45261,-0.1681381 0.286985,0.07143 0.422999,0.071251 0.714454,-9.364e-4 0.538578,-0.13339524 0.846658,0.4395218 0.511451,0.9511123 -0.142718,0.2178148 -0.749121,0.7042719 -0.877925,0.7042719 -0.03633,0 -0.258319,-0.180975 -0.493304,-0.4021666 z m 1.061575,-0.1370263 c 0.406524,-0.4065242 0.458925,-0.6417424 0.200527,-0.9001404 -0.199891,-0.1998901 -0.332523,-0.2120704 -0.553083,-0.050793 -0.13896,0.1016097 -0.186286,0.1016097 -0.331355,0 -0.222229,-0.1556557 -0.380165,-0.1496695 -0.569396,0.021582 -0.306811,0.2776607 -0.166897,0.6800605 0.385752,1.1094402 0.339813,0.2640172 0.445359,0.2421077 0.867555,-0.1800888 z"
         id="path826" />
      <path
         style="fill:#404040;fill-opacity:1;stroke-width:0.0846667"
         d="m -17.253662,4.5846365 c 0.04092,-0.3050992 0.01769,-0.345959 -0.412185,-0.7249631 l -0.455552,-0.4016411 0.0013,-0.5662035 c 0.0015,-0.6332901 0.07148,-0.8086802 0.305182,-0.7643037 0.120681,0.022916 0.165486,0.117094 0.185223,0.3893306 0.01783,0.2459642 0.06486,0.3591029 0.149275,0.3591029 0.06778,0 0.316733,0.180975 0.553224,0.4021666 0.443304,0.4146248 0.8378,1.0898593 0.8378,1.4340123 0,0.186345 -0.02922,0.195821 -0.603815,0.195821 h -0.603814 z m 1.064318,0.048155 c -0.02431,-0.1711853 -0.07427,-0.1905 -0.492722,-0.1905 -0.418452,0 -0.468409,0.019315 -0.492722,0.1905 -0.02554,0.1798065 0.0021,0.1905 0.492722,0.1905 0.490601,0 0.518259,-0.010694 0.492722,-0.1905 z m -0.154055,-0.4620247 c 0,-0.1538008 -1.030964,-1.210142 -1.18107,-1.210142 -0.167046,0 -0.08927,0.2867158 0.14376,0.5299442 0.144078,0.1503848 0.178255,0.2219875 0.08975,0.1880236 -0.280642,-0.1076926 -0.446448,-0.4803884 -0.418788,-0.9413487 0.01634,-0.2723757 -0.01179,-0.4584671 -0.07524,-0.4976804 -0.176074,-0.1088198 -0.260004,0.1525242 -0.229299,0.7139974 0.0276,0.5047322 0.05028,0.5587853 0.31966,0.762 0.159472,0.1203019 0.366812,0.3004326 0.460756,0.4002906 0.223637,0.2377174 0.890473,0.278841 0.890473,0.054915 z m 0.508,0.5228053 c 0,-0.3827083 0.251509,-0.8338365 0.741927,-1.3307806 0.264241,-0.2677583 0.526957,-0.4868333 0.583812,-0.4868333 0.0577,0 0.114983,-0.1364995 0.12965,-0.3089252 0.03373,-0.3965494 0.275532,-0.5721675 0.455004,-0.3304655 0.14322,0.1928813 0.123836,1.0015484 -0.03086,1.2873037 -0.05426,0.1002354 -0.248041,0.3005589 -0.430619,0.4451631 -0.308631,0.2444406 -0.328773,0.2866695 -0.286624,0.6009203 l 0.04534,0.3380035 h -0.603814 c -0.589667,0 -0.603815,-0.00502 -0.603815,-0.214386 z m 1.085389,-0.060781 c -0.02431,-0.1711853 -0.07427,-0.1905 -0.492722,-0.1905 -0.418453,0 -0.46841,0.019315 -0.492722,0.1905 -0.02554,0.1798065 0.0021,0.1905 0.492722,0.1905 0.4906,0 0.518258,-0.010694 0.492722,-0.1905 z m 0.275962,-0.7535305 0.501316,-0.4360307 V 2.820928 c 0,-0.4967136 -0.02563,-0.6223027 -0.127,-0.6223027 -0.09948,0 -0.127,0.1158325 -0.127,0.5344929 0,0.4893833 -0.02236,0.5554802 -0.264974,0.7831667 -0.223909,0.2101348 -0.24969,0.2191504 -0.166354,0.058174 0.05424,-0.104775 0.131302,-0.1905 0.171248,-0.1905 0.119132,0 0.187938,-0.2753419 0.09262,-0.3706555 -0.06134,-0.061342 -0.256254,0.078082 -0.637775,0.4562119 -0.638373,0.6326982 -0.700453,0.8457769 -0.246418,0.8457769 0.243458,0 0.401554,-0.085704 0.804333,-0.4360305 z M -16.415046,2.401794 c -0.466586,-0.3993804 -0.631649,-0.7165256 -0.522433,-1.0037843 0.119043,-0.3131071 0.433875,-0.43655045 0.764309,-0.2996802 0.197096,0.08164 0.286673,0.084594 0.359415,0.011852 0.149933,-0.14993323 0.46851,-0.11473527 0.655689,0.072444 0.342953,0.3429524 0.15845,0.8405967 -0.472632,1.2747927 -0.199216,0.137064 -0.377063,0.2492072 -0.395216,0.2492072 -0.01815,0 -0.193262,-0.137174 -0.389132,-0.3048314 z m 0.971787,-0.2343617 c 0.440276,-0.4402761 0.485825,-0.7355866 0.147636,-0.9571767 -0.20309,-0.1330699 -0.241973,-0.1342723 -0.451596,-0.013965 -0.194918,0.111868 -0.252992,0.1143697 -0.386625,0.016655 -0.336793,-0.24626919 -0.717555,-0.039798 -0.717555,0.3891004 0,0.2849756 0.603353,0.9352464 0.867768,0.9352464 0.09378,0 0.336949,-0.1664368 0.540372,-0.3698601 z"
         id="path824" />
      <path
         style="fill:#333333;fill-opacity:1;stroke-width:0.0846667"
         d="m -17.252382,4.5750955 c 0.04226,-0.3150892 0.02251,-0.3515257 -0.369852,-0.6823732 -0.227974,-0.1922305 -0.414498,-0.3824113 -0.414498,-0.422624 0,-0.040213 0.110048,0.02873 0.24455,0.1532064 0.657473,0.6084607 0.792754,0.6919872 1.120759,0.6919872 0.449081,0 0.427844,-0.1585915 -0.09531,-0.711749 -0.547337,-0.5787278 -0.547331,-0.6731794 9e-6,-0.142847 0.261302,0.253183 0.443728,0.5121178 0.476602,0.6764873 0.02929,0.1464645 0.08644,0.2868048 0.126991,0.3118673 0.04055,0.025063 0.07373,0.1385697 0.07373,0.2522382 0,0.1997959 -0.02008,0.2066698 -0.603815,0.2066698 h -0.603814 z m 1.063038,0.057696 c -0.02397,-0.1687563 -0.08262,-0.1933982 -0.513888,-0.2158919 -0.472024,-0.024619 -0.486834,-0.018824 -0.486834,0.1905 0,0.2076983 0.0195,0.2158919 0.513889,0.2158919 0.484493,0 0.512341,-0.010897 0.486833,-0.1905 z m 0.363766,0.084667 c 0.007,-0.1365686 0.02055,-0.149753 0.04773,-0.046571 0.02806,0.1065317 0.151998,0.1519601 0.477012,0.1748382 l 0.439108,0.030909 -0.486834,0.015662 c -0.455649,0.014659 -0.486204,0.00346 -0.477012,-0.1748381 z m 1.066314,0.021167 c 0.02435,-0.093133 0.05889,-0.1693333 0.07674,-0.1693333 0.01785,0 0.03246,0.0762 0.03246,0.1693333 0,0.093133 -0.03453,0.1693333 -0.07674,0.1693333 -0.04221,0 -0.05681,-0.0762 -0.03246,-0.1693333 z m -1.028824,-0.3467206 c 0.02604,-0.042137 0.203851,-0.076613 0.39513,-0.076613 0.429893,0 0.394123,0.046449 -0.08263,0.107297 -0.205307,0.026204 -0.339517,0.013026 -0.312503,-0.030684 z m 0.916528,0.027924 c -0.06197,-0.040792 0.0035,-0.1642053 0.19007,-0.3585368 0.15651,-0.1629833 0.284758,-0.2508688 0.284994,-0.1953009 2.37e-4,0.055568 -0.08078,0.1579131 -0.180033,0.227434 -0.110094,0.077112 -0.160652,0.1780298 -0.129658,0.2588009 0.05434,0.1416063 -0.01185,0.1686637 -0.165373,0.067603 z m -0.789139,-0.3013222 c -0.0062,-0.177104 0.867549,-1.1279294 1.105979,-1.2036039 0.08726,-0.027695 0.158654,-0.1049375 0.158654,-0.1716495 0,-0.066712 0.0381,-0.1212945 0.08467,-0.1212945 0.04657,0 0.08467,0.091683 0.08467,0.2037401 0,0.1507192 -0.03856,0.194774 -0.148167,0.1692864 -0.178194,-0.041436 -1.07227,0.7560786 -1.196336,1.0671306 -0.0631,0.1581959 -0.08544,0.1722766 -0.08946,0.056391 z m 1.143667,-0.6671197 c 0.132941,-0.1724644 0.260215,-0.2950683 0.28283,-0.272453 0.02262,0.022615 -0.08615,0.1637226 -0.241712,0.3135718 l -0.282831,0.272453 z m 0.471196,0.080738 c 0.0562,-0.104775 0.09405,-0.3491948 0.08412,-0.5431551 -0.0099,-0.1939603 0.01209,-0.3712972 0.04896,-0.3940818 0.103394,-0.063901 0.05941,0.735347 -0.05192,0.9433596 -0.05427,0.1014076 -0.117726,0.1843773 -0.141009,0.1843773 -0.02328,0 0.0037,-0.085725 0.05985,-0.1905 z m -3.522152,-0.127234 c -0.116399,-0.159451 -0.167178,-0.3681158 -0.169333,-0.6958394 -0.0024,-0.3582702 -0.03287,-0.468093 -0.130078,-0.468093 -0.09461,0 -0.140051,0.1403385 -0.178178,0.5503333 l -0.05118,0.5503333 0.0088,-0.54153 c 0.0069,-0.4211971 0.0423,-0.5622999 0.159422,-0.635 0.190586,-0.1183056 0.311939,0.046372 0.313793,0.425822 9.46e-4,0.1934498 0.04715,0.2772835 0.17063,0.3095735 0.09313,0.024355 0.169334,0.090614 0.169334,0.1472417 0,0.078494 -0.03103,0.077206 -0.130589,-0.00542 -0.09848,-0.081733 -0.154548,-0.084419 -0.228041,-0.010925 -0.07349,0.073494 -0.03749,0.1600392 0.146428,0.3520117 0.134135,0.140007 0.208179,0.2533609 0.164542,0.2518975 -0.04364,-0.00146 -0.154155,-0.1051465 -0.245596,-0.2304068 z m 1.563256,-0.7714616 c 0,-0.0466 0.07324,-0.1079708 0.162747,-0.1363806 0.243709,-0.07735 0.768586,-0.6959559 0.768586,-0.9058341 0,-0.1009741 -0.06668,-0.2627894 -0.148167,-0.3595894 -0.148017,-0.1758224 -0.147974,-0.1758372 0.04233,-0.014711 0.372862,0.3156878 0.167895,0.8027529 -0.550334,1.307763 -0.151341,0.1064133 -0.275166,0.1553517 -0.275166,0.1087522 z m -0.488077,-0.3158168 -0.316257,-0.3043459 0.359834,0.2761829 c 0.197908,0.1519004 0.359833,0.2888561 0.359833,0.3043459 0,0.079457 -0.117302,-8.501e-4 -0.40341,-0.2761829 z m 2.162851,0.1686526 c -0.03338,-0.051348 -0.01026,-0.1623136 0.05136,-0.24659 0.135268,-0.1849906 0.394919,-0.1137474 0.38071,0.1044595 -0.0092,0.1413512 -0.01225,0.1415181 -0.04854,0.00266 -0.05556,-0.2126259 -0.263582,-0.1828441 -0.295686,0.042333 -0.01609,0.1128899 -0.05188,0.1524649 -0.08784,0.09714 z m -2.576891,-0.6722914 c -0.02757,-0.071858 -0.03122,-0.1495696 -0.0081,-0.1726915 0.02312,-0.023122 0.06236,0.035671 0.0872,0.1306515 0.05276,0.2017546 -0.0059,0.2329088 -0.0791,0.04204 z m 0.136399,-0.6406999 c 0.147495,-0.1227413 0.270567,-0.1568105 0.423334,-0.1171882 0.281699,0.073063 0.505561,0.074429 0.765717,0.00467 0.123349,-0.033074 0.08967,-5.164e-4 -0.0807,0.078036 -0.232565,0.1072188 -0.33953,0.1152559 -0.522925,0.039291 -0.239008,-0.099001 -0.581705,-0.043085 -0.581705,0.094912 0,0.043429 -0.04763,0.077694 -0.105834,0.076144 -0.05821,-0.00155 -0.01226,-0.08069 0.102116,-0.1758679 z"
         id="path822" />
    </g>
  </g>
</svg>
