<?xml version="1.0" encoding="UTF-8" standalone="no"?>
<!-- Created with Inkscape (http://www.inkscape.org/) -->

<svg
   width="100"
   height="100"
   viewBox="0 0 26.458333 26.458333"
   version="1.1"
   id="svg5"
   inkscape:version="1.1 (ce6663b3b7, 2021-05-25)"
   sodipodi:docname="consultation.svg"
   xmlns:inkscape="http://www.inkscape.org/namespaces/inkscape"
   xmlns:sodipodi="http://sodipodi.sourceforge.net/DTD/sodipodi-0.dtd"
   xmlns="http://www.w3.org/2000/svg"
   xmlns:svg="http://www.w3.org/2000/svg">
  <sodipodi:namedview
     id="namedview7"
     pagecolor="#ffffff"
     bordercolor="#666666"
     borderopacity="1.0"
     inkscape:pageshadow="2"
     inkscape:pageopacity="0.0"
     inkscape:pagecheckerboard="0"
     inkscape:document-units="mm"
     showgrid="false"
     inkscape:zoom="3.1001683"
     inkscape:cx="-34.836818"
     inkscape:cy="71.447734"
     inkscape:window-width="1920"
     inkscape:window-height="1016"
     inkscape:window-x="0"
     inkscape:window-y="27"
     inkscape:window-maximized="1"
     inkscape:current-layer="layer1"
     width="209mm"
     units="px" />
  <defs
     id="defs2" />
  <g
     inkscape:label="Layer 1"
     inkscape:groupmode="layer"
     id="layer1">
    <g
       id="g319"
       transform="matrix(4.4177537,0,0,4.4177537,-105.25672,-521.83531)">
      <path
         style="fill:#cacaca;fill-opacity:1;stroke-width:0.0846667"
         d="m 25.175273,123.27217 c -0.185585,-0.12999 -0.188135,-0.15938 -0.185479,-2.13784 0.0021,-1.53383 0.02917,-2.04091 0.115167,-2.1542 0.09779,-0.12881 0.26874,-0.14816 1.308923,-0.14816 1.104754,0 1.204554,0.013 1.302199,0.16933 0.0718,0.11497 0.197445,0.16933 0.391357,0.16933 0.717576,0 1.353256,0.73809 1.256563,1.45899 -0.08369,0.624 -0.667701,1.16568 -1.256756,1.16568 h -0.326146 v 0.67253 c 0,0.90803 -0.04194,0.93614 -1.397,0.93614 -0.786743,0 -1.06378,-0.0302 -1.208828,-0.1318 z m 2.400519,-0.32906 c 0.02856,-0.11377 0.02703,-0.24712 -0.0034,-0.29633 -0.03441,-0.0557 -0.485163,-0.0895 -1.193303,-0.0895 h -1.138004 v 0.23989 c 0,0.13194 0.0254,0.26529 0.05645,0.29633 0.03104,0.0311 0.544668,0.0564 1.141387,0.0564 1.07993,0 1.085182,-9.6e-4 1.136859,-0.20686 z m -1.344537,0.008 c -0.05912,-0.15407 0.0082,-0.2241 0.215499,-0.2241 0.107763,0 0.152006,0.0489 0.133083,0.1472 -0.03574,0.18556 -0.285722,0.24072 -0.348582,0.0769 z m 1.380513,-0.8591 c 0,-0.29418 -0.0027,-0.29633 -0.376003,-0.29633 -0.428369,0 -0.515442,-0.0757 -0.348917,-0.30347 0.09882,-0.13514 0.09834,-0.19385 -0.0032,-0.3902 -0.134411,-0.25992 -0.174845,-0.77618 -0.08327,-1.06316 0.06016,-0.18852 0.05236,-0.1905 -0.749248,-0.1905 h -0.810039 v 1.27 1.27 h 1.185334 1.185333 z m 0.904552,-0.6302 c 1.054201,-0.47863 0.707122,-2.05091 -0.452734,-2.05091 -0.460639,0 -0.761729,0.18724 -0.985418,0.6128 -0.182221,0.34667 -0.146068,0.85818 0.07817,1.10595 0.124827,0.13794 0.133439,0.19656 0.04879,0.3321 -0.09773,0.15649 -0.07671,0.16451 0.427091,0.16274 0.336253,-10e-4 0.659324,-0.0606 0.884103,-0.16268 z m -0.735219,-0.54526 c 0,-0.0644 -0.0762,-0.13705 -0.169333,-0.1614 -0.116338,-0.0304 -0.169333,-0.11549 -0.169333,-0.2718 0,-0.15632 0.05299,-0.24138 0.169333,-0.2718 0.09313,-0.0244 0.169333,-0.0927 0.169333,-0.1518 0,-0.0591 0.119397,-0.12504 0.265327,-0.14646 0.206479,-0.0303 0.274393,-0.004 0.306208,0.11739 0.02248,0.086 0.09359,0.15633 0.158007,0.15633 0.07741,0 0.117125,0.10048 0.117125,0.29634 0,0.20696 -0.0383,0.29633 -0.127,0.29633 -0.06985,0 -0.127,0.0571 -0.127,0.127 0,0.0887 -0.08937,0.127 -0.296333,0.127 -0.195859,0 -0.296334,-0.0397 -0.296334,-0.11713 z m 0.526439,-0.39344 c 0.064,-0.002 0.04775,-0.038 -0.0396,-0.0889 -0.08149,-0.0475 -0.148167,-0.14155 -0.148167,-0.20909 0,-0.0675 -0.0381,-0.12279 -0.08467,-0.12279 -0.04657,0 -0.08467,0.0762 -0.08467,0.16933 0,0.0931 -0.05427,0.16933 -0.120594,0.16933 -0.08701,0 -0.06933,0.0576 0.06348,0.20666 0.175734,0.1973 0.186832,0.19922 0.244866,0.0423 0.03343,-0.0904 0.109641,-0.16549 0.16935,-0.1669 z m -1.002478,-1.1341 c 0.133994,-0.10958 0.217471,-0.24156 0.185503,-0.29328 -0.06185,-0.10008 -1.870846,-0.13656 -2.115539,-0.0427 -0.07942,0.0305 -0.133925,0.15108 -0.133925,0.29634 v 0.24494 l 0.910167,-0.003 c 0.827806,-0.003 0.932212,-0.0211 1.153794,-0.20229 z m -1.217294,-0.091 c 0,-0.10679 0.0704,-0.13139 0.3175,-0.11094 0.174625,0.0144 0.3175,0.0644 0.3175,0.11094 0,0.0466 -0.142875,0.0965 -0.3175,0.11095 -0.247098,0.0204 -0.3175,-0.004 -0.3175,-0.11095 z"
         id="path343" />
      <path
         style="fill:#bdbdbd;fill-opacity:1;stroke-width:0.0846667"
         d="m 25.325768,123.34521 c -0.315476,-0.11275 -0.338667,-0.26837 -0.338667,-2.27264 0,-1.79164 0.01333,-1.97242 0.154834,-2.10048 0.128114,-0.11594 0.353748,-0.14012 1.307532,-0.14012 1.023385,0 1.16511,0.0175 1.263333,0.156 0.06596,0.093 0.26151,0.17597 0.484305,0.20546 0.701775,0.0929 1.15033,0.59574 1.15033,1.28954 0,0.70399 -0.460811,1.20974 -1.175662,1.29032 l -0.390672,0.044 v 0.66152 c 0,0.89303 -0.05054,0.92736 -1.352339,0.91844 -0.536797,-0.004 -1.033144,-0.0271 -1.102994,-0.0521 z m 2.270198,-0.51274 0.02653,-0.27517 h -1.193355 c -1.278378,0 -1.393,0.0404 -1.190282,0.41915 0.09073,0.16952 0.150929,0.1772 1.213019,0.15478 l 1.117556,-0.0236 z m -1.338865,0.0635 c 0,-0.12752 0.04421,-0.17324 0.148167,-0.15322 0.08149,0.0157 0.148167,0.0846 0.148167,0.15322 0,0.0686 -0.06668,0.13752 -0.148167,0.15321 -0.103958,0.02 -0.148167,-0.0257 -0.148167,-0.15321 z m 1.354667,-0.80434 c 0,-0.29476 -0.002,-0.29633 -0.381,-0.29633 -0.320694,0 -0.381,-0.026 -0.381,-0.16434 0,-0.0904 0.03796,-0.18779 0.08436,-0.21647 0.05283,-0.0327 0.03357,-0.15035 -0.05153,-0.3149 -0.09532,-0.18432 -0.125207,-0.41038 -0.100121,-0.7572 l 0.03576,-0.49442 h -0.830903 -0.830902 v 1.27 1.27 h 1.227666 1.227667 z m 1.042488,-0.67473 c 0.641133,-0.42009 0.642022,-1.44719 0.0016,-1.8668 -0.742245,-0.48634 -1.784052,0.15466 -1.693757,1.04214 0.02033,0.19979 0.10645,0.44005 0.191382,0.5339 0.131647,0.14547 0.138218,0.19658 0.04455,0.34656 -0.108403,0.17358 -0.100997,0.17541 0.555085,0.13743 0.448738,-0.026 0.741746,-0.0888 0.901121,-0.19323 z m -0.873155,-0.50073 c 0,-0.0644 -0.0762,-0.13705 -0.169333,-0.1614 -0.116338,-0.0304 -0.169333,-0.11549 -0.169333,-0.2718 0,-0.15632 0.05299,-0.24138 0.169333,-0.2718 0.09313,-0.0244 0.169333,-0.097 0.169333,-0.16141 0,-0.16334 0.498945,-0.15457 0.562049,0.01 0.0268,0.0699 0.101808,0.127 0.166676,0.127 0.07835,0 0.117942,0.0995 0.117942,0.29634 0,0.20966 -0.03792,0.29633 -0.129657,0.29633 -0.07131,0 -0.151588,0.0571 -0.178392,0.127 -0.0627,0.16339 -0.538618,0.17211 -0.538618,0.01 z m 0.363199,-0.22154 c 0.02435,-0.0931 0.114524,-0.17175 0.200375,-0.1747 0.129118,-0.004 0.123173,-0.0186 -0.03441,-0.0819 -0.104775,-0.0421 -0.1905,-0.13494 -0.1905,-0.2063 0,-0.0713 -0.0381,-0.12972 -0.08467,-0.12972 -0.04657,0 -0.08467,0.0553 -0.08467,0.12279 0,0.0675 -0.06132,0.15711 -0.136268,0.19905 -0.125245,0.0701 -0.125245,0.0805 0,0.12855 0.07495,0.0288 0.136268,0.11064 0.136268,0.18195 0,0.18813 0.141885,0.15909 0.193865,-0.0397 z m -0.826504,-1.29753 c 0.459191,-0.31203 0.259042,-0.3958 -0.945631,-0.3958 -0.570022,0 -1.055714,0.0312 -1.079315,0.0694 -0.0236,0.0382 -0.06143,0.17154 -0.08406,0.29634 l -0.04115,0.2269 h 0.930219 c 0.83407,0 0.960163,-0.0203 1.219929,-0.19687 z m -1.230028,-0.0995 c 0,-0.10679 0.0704,-0.13139 0.3175,-0.11094 0.174625,0.0144 0.3175,0.0644 0.3175,0.11094 0,0.0466 -0.142875,0.0965 -0.3175,0.11095 -0.247098,0.0204 -0.3175,-0.004 -0.3175,-0.11095 z"
         id="path341" />
      <path
         style="fill:#afafaf;fill-opacity:1;stroke-width:0.0846667"
         d="m 25.325768,123.34521 c -0.315476,-0.11275 -0.338667,-0.26837 -0.338667,-2.27264 0,-1.79164 0.01333,-1.97242 0.154834,-2.10048 0.127577,-0.11546 0.35114,-0.14012 1.27,-0.14012 0.971689,0 1.135296,0.0201 1.271625,0.15646 0.08605,0.0861 0.320878,0.17851 0.521836,0.20546 0.696718,0.0935 1.135991,0.59192 1.135991,1.28908 0,0.70954 -0.451995,1.20943 -1.166362,1.28995 l -0.387419,0.0437 -0.02442,0.68562 c -0.02261,0.63488 -0.04009,0.69353 -0.236086,0.79244 -0.210735,0.10635 -1.934461,0.14594 -2.201333,0.0506 z m 2.270198,-0.51274 0.02653,-0.27517 h -1.233031 c -1.230197,0 -1.233031,4.5e-4 -1.233031,0.19473 0,0.36552 0.133581,0.40417 1.310423,0.37909 l 1.102577,-0.0235 z m -1.338865,0.0635 c 0,-0.12752 0.04421,-0.17324 0.148167,-0.15322 0.08149,0.0157 0.148167,0.0846 0.148167,0.15322 0,0.0686 -0.06668,0.13752 -0.148167,0.15321 -0.103958,0.02 -0.148167,-0.0257 -0.148167,-0.15321 z m 1.354667,-0.80434 c 0,-0.29476 -0.002,-0.29633 -0.381,-0.29633 -0.320694,0 -0.381,-0.026 -0.381,-0.16434 0,-0.0904 0.03796,-0.18779 0.08436,-0.21647 0.05278,-0.0326 0.03307,-0.1513 -0.05266,-0.31709 -0.101211,-0.19572 -0.125741,-0.40543 -0.09387,-0.80248 l 0.04315,-0.53752 -0.815988,0.0241 -0.815987,0.0241 -0.02337,1.29117 -0.02337,1.29117 h 1.229872 1.229872 z m 0.843735,-0.57628 c 0.381103,-0.13126 0.680265,-0.57401 0.680265,-1.00678 0,-1.08681 -1.196173,-1.52112 -1.947333,-0.70703 -0.277236,0.30046 -0.30281,1.0286 -0.04609,1.31227 0.137507,0.15195 0.14815,0.21086 0.06278,0.34756 -0.09779,0.15659 -0.07701,0.16436 0.427091,0.15982 0.291436,-0.003 0.661915,-0.0503 0.823286,-0.10584 z m -0.674402,-0.59918 c 0,-0.0644 -0.0762,-0.13705 -0.169333,-0.1614 -0.116338,-0.0304 -0.169333,-0.11549 -0.169333,-0.2718 0,-0.15632 0.05299,-0.24138 0.169333,-0.2718 0.09313,-0.0244 0.169333,-0.097 0.169333,-0.16141 0,-0.18628 0.419352,-0.13841 0.642771,0.0734 0.260048,0.2465 0.256381,0.46111 -0.01213,0.70996 -0.2369,0.21955 -0.630638,0.27143 -0.630638,0.0831 z m 0.338667,-0.16933 c 0,-0.0644 0.08573,-0.14256 0.1905,-0.17366 l 0.1905,-0.0565 -0.1905,-0.0776 c -0.104775,-0.0427 -0.1905,-0.13599 -0.1905,-0.20735 0,-0.0713 -0.0381,-0.12972 -0.08467,-0.12972 -0.04657,0 -0.08467,0.0583 -0.08467,0.12965 0,0.0713 -0.05715,0.15159 -0.127,0.1784 -0.06985,0.0268 -0.127,0.0827 -0.127,0.12434 0,0.0416 0.05715,0.0756 0.127,0.0756 0.06985,0 0.127,0.0571 0.127,0.127 0,0.0699 0.0381,0.127 0.08467,0.127 0.04657,0 0.08467,-0.0527 0.08467,-0.11713 z m -0.801972,-1.34974 c 0.459378,-0.31215 0.259106,-0.3958 -0.947649,-0.3958 -0.940004,0 -1.046728,0.0155 -1.126067,0.16377 -0.212735,0.3975 -0.150638,0.4289 0.84818,0.4289 0.839939,0 0.965509,-0.0202 1.225536,-0.19687 z m -1.209003,-0.0783 c 0.05075,-0.15285 0.571642,-0.16543 0.571642,-0.0138 0,0.0808 -0.09846,0.11963 -0.303389,0.11963 -0.205006,0 -0.291995,-0.0343 -0.268253,-0.10583 z"
         id="path339" />
      <path
         style="fill:#a1a1a1;fill-opacity:1;stroke-width:0.0846667"
         d="m 25.074747,123.15553 c -0.05291,-0.0989 -0.08765,-0.91339 -0.08765,-2.05549 0,-1.57513 0.02206,-1.92322 0.131801,-2.0799 0.125053,-0.17854 0.189907,-0.18817 1.266702,-0.18817 0.996246,0 1.153406,0.0193 1.286366,0.15767 0.0833,0.0867 0.311606,0.1781 0.507333,0.20307 0.475953,0.0607 0.858039,0.34863 1.055678,0.79542 0.372212,0.84145 -0.267532,1.80717 -1.19716,1.80717 h -0.25672 v 0.6604 c 0,0.40076 -0.03994,0.70035 -0.1016,0.762 -0.06952,0.0695 -0.482878,0.1016 -1.309354,0.1016 -1.107419,0 -1.215036,-0.0136 -1.2954,-0.16377 z m 2.521219,-0.32306 0.02653,-0.27517 h -1.233031 c -1.159062,0 -1.233031,0.01 -1.233031,0.16241 0,0.42776 0.02671,0.43649 1.258783,0.41141 l 1.154217,-0.0235 z m -1.338865,0.0635 c 0,-0.12752 0.04421,-0.17324 0.148167,-0.15322 0.08149,0.0157 0.148167,0.0846 0.148167,0.15322 0,0.0686 -0.06668,0.13752 -0.148167,0.15321 -0.103958,0.02 -0.148167,-0.0257 -0.148167,-0.15321 z m 1.354667,-0.80434 c 0,-0.29476 -0.002,-0.29633 -0.381,-0.29633 -0.319034,0 -0.381,-0.0264 -0.381,-0.16228 0,-0.0893 0.04575,-0.17753 0.101669,-0.19617 0.07383,-0.0246 0.05934,-0.12308 -0.05293,-0.35969 -0.120012,-0.2529 -0.142979,-0.43702 -0.102647,-0.82288 l 0.05195,-0.49709 -0.824521,0.0242 -0.824521,0.0242 -0.02337,1.29117 -0.02337,1.29117 h 1.229872 1.229872 z m 0.889865,-0.58757 c 0.828563,-0.34619 0.839693,-1.63255 0.0175,-2.0227 -0.367612,-0.17445 -0.480981,-0.17585 -0.884487,-0.0109 -0.632371,0.25846 -0.866033,0.93886 -0.538331,1.56757 0.142099,0.27263 0.161119,0.37782 0.08492,0.46964 -0.08241,0.0993 -0.0076,0.11832 0.465222,0.11832 0.309881,0 0.694711,-0.0549 0.855179,-0.12191 z m -0.720532,-0.59776 c 0,-0.0699 -0.05715,-0.127 -0.127,-0.127 -0.133177,0 -0.136304,-0.006 -0.169097,-0.32831 -0.01387,-0.13625 0.03067,-0.2147 0.137805,-0.24271 0.08706,-0.0228 0.158292,-0.0941 0.158292,-0.15852 0,-0.0737 0.09418,-0.11713 0.254,-0.11713 0.159816,0 0.254,0.0434 0.254,0.11713 0,0.0644 0.0762,0.13705 0.169334,0.16141 0.239011,0.0625 0.215234,0.37917 -0.0467,0.62192 -0.244319,0.22643 -0.630638,0.27128 -0.630638,0.0732 z m 0.338667,-0.16933 c 0,-0.0699 0.0549,-0.127 0.122003,-0.127 0.202852,0 0.246451,-0.1774 0.05585,-0.22724 -0.09782,-0.0256 -0.177852,-0.0992 -0.177852,-0.16364 0,-0.0644 -0.0381,-0.11712 -0.08467,-0.11712 -0.04657,0 -0.08467,0.0572 -0.08467,0.127 0,0.0699 -0.05715,0.127 -0.127,0.127 -0.06985,0 -0.127,0.0572 -0.127,0.127 0,0.0699 0.05715,0.127 0.127,0.127 0.06985,0 0.127,0.0571 0.127,0.127 0,0.0699 0.0381,0.127 0.08467,0.127 0.04657,0 0.08467,-0.0571 0.08467,-0.127 z m -0.806873,-1.32206 c 0.242293,-0.14295 0.28385,-0.20269 0.206139,-0.29633 -0.07318,-0.0882 -0.35316,-0.11728 -1.128366,-0.11728 -1.093639,0 -1.234233,0.0453 -1.234233,0.39793 0,0.19134 0.01616,0.19474 0.926493,0.19474 0.791149,0 0.970827,-0.0262 1.229967,-0.17906 z m -1.225127,-0.0749 c 0,-0.0466 0.13335,-0.0847 0.296333,-0.0847 0.162984,0 0.296334,0.0381 0.296334,0.0847 0,0.0466 -0.13335,0.0847 -0.296334,0.0847 -0.162983,0 -0.296333,-0.0381 -0.296333,-0.0847 z"
         id="path337" />
      <path
         style="fill:#939393;fill-opacity:1;stroke-width:0.0846667"
         d="m 25.074747,123.15553 c -0.05291,-0.0989 -0.08765,-0.91339 -0.08765,-2.05549 0,-1.57513 0.02206,-1.92322 0.131801,-2.0799 0.125093,-0.1786 0.18977,-0.18817 1.270829,-0.18817 1.034254,0 1.152364,0.0156 1.284015,0.16933 0.08496,0.0992 0.251117,0.16991 0.401338,0.17073 0.360182,0.002 0.893697,0.32739 1.091244,0.66563 0.323648,0.55417 0.153,1.32747 -0.380721,1.72527 -0.122739,0.0915 -0.398964,0.18614 -0.613834,0.21036 l -0.390672,0.044 v 0.64939 c 0,0.39219 -0.04024,0.68963 -0.1016,0.75099 -0.06952,0.0695 -0.482878,0.1016 -1.309354,0.1016 -1.107419,0 -1.215036,-0.0136 -1.2954,-0.16377 z m 2.521219,-0.32306 0.02653,-0.27517 h -1.233031 c -1.159062,0 -1.233031,0.01 -1.233031,0.16241 0,0.42776 0.02671,0.43649 1.258783,0.41141 l 1.154217,-0.0235 z m -1.280656,0.17815 c -0.116319,-0.11632 -0.05598,-0.29597 0.08996,-0.26787 0.08149,0.0157 0.148167,0.082 0.148167,0.14732 0,0.13368 -0.149377,0.2093 -0.238125,0.12055 z m 1.296458,-0.91899 c 0,-0.29476 -0.002,-0.29633 -0.381,-0.29633 -0.38764,0 -0.488624,-0.11251 -0.284341,-0.31679 0.07243,-0.0724 0.06182,-0.17007 -0.04233,-0.38956 -0.156948,-0.33075 -0.179533,-0.78466 -0.0553,-1.11142 l 0.08369,-0.22013 -0.86686,0.0241 -0.86686,0.0241 -0.02337,1.29117 -0.02337,1.29117 h 1.229872 1.229872 z m 0.879133,-0.58308 c 0.877521,-0.36666 0.877521,-1.68451 0,-2.05116 -0.376138,-0.15716 -0.613204,-0.14794 -0.958579,0.0373 -0.5616,0.30118 -0.758256,1.04748 -0.420171,1.59452 0.142902,0.23122 0.157457,0.31196 0.0743,0.41216 -0.08928,0.10758 -0.02641,0.12461 0.460003,0.12461 0.309881,0 0.689882,-0.0528 0.844447,-0.11742 z m -0.7098,-0.60225 c 0,-0.0699 -0.05436,-0.127 -0.120792,-0.127 -0.06644,0 -0.135083,-0.0667 -0.15255,-0.14817 -0.04908,-0.22899 0.02666,-0.4445 0.156217,-0.4445 0.06442,0 0.117125,-0.0571 0.117125,-0.127 0,-0.0847 0.08467,-0.127 0.254,-0.127 0.159816,0 0.254,0.0434 0.254,0.11713 0,0.0644 0.0762,0.13705 0.169334,0.16141 0.116338,0.0304 0.169333,0.11548 0.169333,0.2718 0,0.15631 -0.05299,0.24137 -0.169333,0.2718 -0.09313,0.0244 -0.169334,0.097 -0.169334,0.1614 0,0.0737 -0.09418,0.11713 -0.254,0.11713 -0.169333,0 -0.254,-0.0423 -0.254,-0.127 z m 0.338667,-0.16933 c 0,-0.0699 0.0549,-0.127 0.122003,-0.127 0.202852,0 0.246451,-0.1774 0.05585,-0.22724 -0.09782,-0.0256 -0.177852,-0.0992 -0.177852,-0.16364 0,-0.0644 -0.0381,-0.11712 -0.08467,-0.11712 -0.04657,0 -0.08467,0.0572 -0.08467,0.127 0,0.0699 -0.05715,0.127 -0.127,0.127 -0.06985,0 -0.127,0.0572 -0.127,0.127 0,0.0699 0.05715,0.127 0.127,0.127 0.06985,0 0.127,0.0571 0.127,0.127 0,0.0699 0.0381,0.127 0.08467,0.127 0.04657,0 0.08467,-0.0571 0.08467,-0.127 z m -0.790096,-1.32114 c 0.230756,-0.14261 0.268665,-0.2017 0.190127,-0.29633 -0.07412,-0.0893 -0.350059,-0.1182 -1.129131,-0.1182 -1.093639,0 -1.234233,0.0453 -1.234233,0.39793 0,0.19154 0.01547,0.19474 0.942506,0.19474 0.810252,0 0.982951,-0.025 1.230731,-0.17814 z m -1.241904,-0.0759 c 0,-0.0466 0.13335,-0.0847 0.296333,-0.0847 0.162984,0 0.296334,0.0381 0.296334,0.0847 0,0.0466 -0.13335,0.0847 -0.296334,0.0847 -0.162983,0 -0.296333,-0.0381 -0.296333,-0.0847 z"
         id="path335" />
      <path
         style="fill:#858585;fill-opacity:1;stroke-width:0.0846667"
         d="m 25.092134,123.15112 c -0.07551,-0.12091 -0.105033,-0.70399 -0.105033,-2.07434 0,-2.40338 -0.100742,-2.24481 1.426211,-2.24481 0.980019,0 1.102696,0.0167 1.240789,0.16933 0.08428,0.0931 0.253567,0.16933 0.376183,0.16933 0.349695,0 0.957954,0.35197 1.131769,0.65491 0.08784,0.15309 0.157159,0.43834 0.157159,0.64672 0,0.70643 -0.434344,1.19477 -1.149901,1.29285 l -0.38821,0.0532 v 0.58672 c 0,0.93451 0.03056,0.91426 -1.379612,0.91426 -1.109885,0 -1.212558,-0.0132 -1.309355,-0.16818 z m 2.503832,-0.31865 0.02653,-0.27517 h -1.233031 -1.233031 v 0.23989 c 0,0.13194 0.02643,0.26631 0.05873,0.29861 0.0323,0.0323 0.575224,0.0482 1.2065,0.0353 l 1.147773,-0.0234 z m -1.309648,0.10218 c -0.06388,-0.16648 0.01171,-0.24292 0.177371,-0.17935 0.07441,0.0286 0.108031,0.10482 0.07926,0.17979 -0.06418,0.16727 -0.192361,0.16704 -0.256631,-4.4e-4 z m 1.32545,-0.84302 c 0,-0.28853 -0.0088,-0.29633 -0.33367,-0.29633 -0.370659,0 -0.496531,-0.11214 -0.338971,-0.30199 0.08315,-0.10019 0.07423,-0.19111 -0.04463,-0.4547 -0.146249,-0.32432 -0.149241,-0.80347 -0.007,-1.12714 0.0597,-0.13589 -0.0093,-0.14817 -0.832964,-0.14817 h -0.898058 v 1.31233 1.31234 h 1.227666 1.227667 z m 0.925315,-0.61396 c 0.421526,-0.21494 0.626907,-0.53757 0.626907,-0.98479 0,-0.84564 -0.835083,-1.38063 -1.593393,-1.02079 -0.604622,0.28691 -0.820052,1.04688 -0.462847,1.63278 0.134537,0.22068 0.15088,0.30952 0.07398,0.40217 -0.155844,0.18778 0.97766,0.16322 1.35535,-0.0294 z m -0.755982,-0.57137 c 0,-0.0699 -0.05715,-0.127 -0.127,-0.127 -0.0887,0 -0.127,-0.0894 -0.127,-0.29633 0,-0.20697 0.0383,-0.29634 0.127,-0.29634 0.06985,0 0.127,-0.0571 0.127,-0.127 0,-0.0847 0.08467,-0.127 0.254,-0.127 0.159816,0 0.254,0.0434 0.254,0.11713 0,0.0644 0.0762,0.13705 0.169334,0.16141 0.116338,0.0304 0.169333,0.11548 0.169333,0.2718 0,0.15631 -0.05299,0.24137 -0.169333,0.2718 -0.09313,0.0244 -0.169334,0.097 -0.169334,0.1614 0,0.0737 -0.09418,0.11713 -0.254,0.11713 -0.169333,0 -0.254,-0.0423 -0.254,-0.127 z m 0.338667,-0.16933 c 0,-0.0706 0.07526,-0.127 0.169333,-0.127 0.09407,0 0.169334,-0.0564 0.169334,-0.127 0,-0.0706 -0.07526,-0.127 -0.169334,-0.127 -0.09407,0 -0.169333,-0.0564 -0.169333,-0.127 0,-0.0699 -0.0381,-0.127 -0.08467,-0.127 -0.04657,0 -0.08467,0.0572 -0.08467,0.127 0,0.0699 -0.0549,0.127 -0.122004,0.127 -0.202852,0 -0.24645,0.17739 -0.05585,0.22724 0.09782,0.0256 0.177853,0.0992 0.177853,0.16363 0,0.0644 0.0381,0.11713 0.08467,0.11713 0.04657,0 0.08467,-0.0571 0.08467,-0.127 z m -0.73004,-1.34834 c 0.39432,-0.32248 0.235029,-0.38733 -0.951357,-0.38733 -1.143763,0 -1.281936,0.0429 -1.281936,0.39793 0,0.19233 0.01231,0.1947 0.994833,0.19169 0.916754,-0.003 1.013954,-0.0187 1.23846,-0.20229 z m -1.30196,-0.0487 c 0,-0.0466 0.13335,-0.0847 0.296333,-0.0847 0.162984,0 0.296334,0.0381 0.296334,0.0847 0,0.0466 -0.13335,0.0847 -0.296334,0.0847 -0.162983,0 -0.296333,-0.0381 -0.296333,-0.0847 z"
         id="path333" />
      <path
         style="fill:#787878;fill-opacity:1;stroke-width:0.0846667"
         d="m 25.127224,123.16447 c -0.121712,-0.13449 -0.140123,-0.40704 -0.140123,-2.07434 0,-2.41881 -0.101458,-2.25816 1.426211,-2.25816 0.980019,0 1.102696,0.0167 1.240789,0.16933 0.08428,0.0931 0.252115,0.17017 0.372956,0.17119 0.369154,0.003 0.924007,0.30749 1.106645,0.60705 0.228828,0.37533 0.228828,1.03153 0,1.40685 -0.185243,0.30383 -0.738946,0.60401 -1.119767,0.60705 -0.231857,0.002 -0.232834,0.004 -0.232834,0.60009 0,0.94467 0.02745,0.92577 -1.344523,0.92577 -1.025207,0 -1.186492,-0.0191 -1.309354,-0.15483 z m 2.468742,-0.332 0.02653,-0.27517 H 26.3841 25.145705 l 0.02653,0.27517 c 0.02341,0.24277 0.06119,0.28015 0.320975,0.3175 0.161944,0.0233 0.695344,0.0233 1.185333,0 l 0.89089,-0.0423 z m -1.309648,0.10218 c -0.06388,-0.16648 0.01171,-0.24292 0.177371,-0.17935 0.07441,0.0286 0.108031,0.10482 0.07926,0.17979 -0.06418,0.16727 -0.192361,0.16704 -0.256631,-4.4e-4 z m 1.32545,-0.84302 c 0,-0.28853 -0.0088,-0.29633 -0.33367,-0.29633 -0.370659,0 -0.496531,-0.11214 -0.338971,-0.30199 0.08315,-0.10019 0.07423,-0.19111 -0.04463,-0.4547 -0.146249,-0.32432 -0.149241,-0.80347 -0.007,-1.12714 0.0597,-0.13589 -0.0093,-0.14817 -0.832964,-0.14817 h -0.898058 v 1.31233 1.31234 h 1.227666 1.227667 z m 0.990233,-0.63127 c 0.380213,-0.23183 0.561989,-0.54797 0.561989,-0.97739 0,-0.42943 -0.181776,-0.74557 -0.561989,-0.9774 -0.975808,-0.59498 -2.109319,0.5906 -1.507783,1.57705 0.111648,0.18309 0.135568,0.30313 0.08014,0.40217 -0.124579,0.22261 1.055605,0.20241 1.42764,-0.0244 z m -0.8209,-0.545 c 0,-0.0649 -0.05715,-0.13987 -0.127,-0.16668 -0.06985,-0.0268 -0.127,-0.14637 -0.127,-0.26571 0,-0.11934 0.05715,-0.23892 0.127,-0.26572 0.06985,-0.0268 0.127,-0.10181 0.127,-0.16668 0,-0.0746 0.09334,-0.11794 0.254,-0.11794 0.159816,0 0.254,0.0434 0.254,0.11713 0,0.0644 0.0762,0.13705 0.169334,0.16141 0.116338,0.0304 0.169333,0.11548 0.169333,0.2718 0,0.15631 -0.05299,0.24137 -0.169333,0.2718 -0.09313,0.0244 -0.169334,0.097 -0.169334,0.1614 0,0.0737 -0.09418,0.11713 -0.254,0.11713 -0.160663,0 -0.254,-0.0433 -0.254,-0.11794 z m 0.377478,-0.14176 c -0.03075,-0.0498 0.02407,-0.11126 0.122003,-0.13687 0.226419,-0.0592 0.233141,-0.28076 0.0085,-0.28076 -0.09407,0 -0.169333,-0.0564 -0.169333,-0.127 0,-0.0699 -0.0381,-0.127 -0.08467,-0.127 -0.04657,0 -0.08467,0.0572 -0.08467,0.127 0,0.0699 -0.0549,0.127 -0.122004,0.127 -0.202852,0 -0.24645,0.17739 -0.05585,0.22724 0.09782,0.0256 0.177853,0.0992 0.177853,0.16363 0,0.0644 0.0594,0.11713 0.131996,0.11713 0.0726,0 0.106865,-0.0407 0.07615,-0.0904 z m -0.768851,-1.38497 c 0.397575,-0.32514 0.236761,-0.38733 -1.001565,-0.38733 -1.198694,0 -1.231728,0.0115 -1.231728,0.43026 0,0.15106 0.06953,0.16219 0.994833,0.15936 0.916754,-0.003 1.013954,-0.0187 1.23846,-0.20229 z m -1.259627,-0.0487 c -0.03114,-0.0504 0.06968,-0.0847 0.249004,-0.0847 0.165731,0 0.30133,0.0381 0.30133,0.0847 0,0.0466 -0.112052,0.0847 -0.249004,0.0847 -0.136951,0 -0.27255,-0.0381 -0.30133,-0.0847 z"
         id="path331" />
      <path
         style="fill:#6a6a6a;fill-opacity:1;stroke-width:0.0846667"
         d="m 25.122731,123.1595 c -0.129281,-0.14285 -0.141894,-0.36803 -0.118956,-2.12362 0.02391,-1.82995 0.03686,-1.972 0.190009,-2.08387 0.121477,-0.0887 0.44564,-0.12004 1.242688,-0.12004 1.01627,0 1.087221,0.011 1.232651,0.19058 0.09745,0.12035 0.225511,0.18045 0.347517,0.16309 0.289885,-0.0413 0.88236,0.28403 1.097961,0.60281 0.234076,0.34609 0.251964,0.90962 0.0422,1.32952 -0.165109,0.33051 -0.74865,0.67733 -1.139642,0.67733 h -0.23606 v 0.62895 c 0,0.89033 -0.0073,0.89505 -1.389925,0.89505 -0.99395,0 -1.140543,-0.0185 -1.268445,-0.1598 z m 2.271858,-0.007 c 0.167061,-0.0635 0.217179,-0.14167 0.217179,-0.33866 v -0.2561 h -1.227667 -1.227666 v 0.25673 c 0,0.1871 0.05166,0.27749 0.1905,0.3333 0.258385,0.10386 1.7777,0.10737 2.047654,0.005 z m -1.083345,-0.14551 c -0.10119,-0.10119 -0.05467,-0.27992 0.07286,-0.27992 0.06985,0 0.127,0.0549 0.127,0.12201 0,0.14144 -0.120842,0.23693 -0.199857,0.15791 z m 1.300524,-0.91492 c 0,-0.28853 -0.0088,-0.29633 -0.33367,-0.29633 -0.367584,0 -0.4967,-0.11194 -0.342889,-0.29727 0.07785,-0.0938 0.06791,-0.20458 -0.04483,-0.4998 -0.138964,-0.36387 -0.139755,-0.76958 -0.0021,-1.08676 0.05894,-0.13584 -0.01042,-0.14817 -0.833765,-0.14817 h -0.898058 v 1.31233 1.31234 h 1.227666 1.227667 z m 1.024646,-0.65785 c 0.749289,-0.50056 0.732151,-1.4608 -0.03441,-1.92821 -0.98856,-0.60276 -2.112087,0.58598 -1.50103,1.58816 0.09651,0.15827 0.13179,0.29317 0.08435,0.32249 -0.217834,0.13463 -0.02411,0.20975 0.540925,0.20975 0.506217,0 0.676212,-0.0359 0.910167,-0.19219 z m -0.855313,-0.56981 c 0,-0.0931 -0.04763,-0.15981 -0.105833,-0.14817 -0.05952,0.0119 -0.117556,-0.0807 -0.132624,-0.21167 -0.01914,-0.16631 0.0111,-0.23283 0.105834,-0.23283 0.07618,0 0.132623,-0.0721 0.132623,-0.16933 0,-0.24356 0.469401,-0.24142 0.533168,0.002 0.0247,0.0945 0.09582,0.16114 0.158041,0.14816 0.06875,-0.0143 0.123872,0.0702 0.140523,0.21554 0.02104,0.18361 -0.01336,0.24979 -0.148167,0.28504 -0.09656,0.0252 -0.175565,0.0986 -0.175565,0.16303 0,0.0737 -0.09418,0.11713 -0.254,0.11713 -0.197555,0 -0.254,-0.0376 -0.254,-0.16933 z m 0.377478,-0.0904 c -0.03075,-0.0498 0.02407,-0.11126 0.122003,-0.13687 0.202533,-0.053 0.243793,-0.28076 0.05085,-0.28076 -0.06985,0 -0.127,-0.0571 -0.127,-0.127 0,-0.0699 -0.05715,-0.127 -0.127,-0.127 -0.06985,0 -0.127,0.0572 -0.127,0.127 0,0.0699 -0.0549,0.127 -0.122004,0.127 -0.202852,0 -0.24645,0.17739 -0.05585,0.22724 0.09782,0.0256 0.177853,0.0992 0.177853,0.16363 0,0.0644 0.0594,0.11713 0.131996,0.11713 0.0726,0 0.106865,-0.0407 0.07615,-0.0904 z m -0.803197,-1.36059 c 0.142555,-0.1054 0.24586,-0.23162 0.229566,-0.2805 -0.01879,-0.0564 -0.460455,-0.0889 -1.207902,-0.0889 h -1.178278 l -0.02604,0.26864 c -0.03116,0.32142 0.0056,0.33132 1.144089,0.3082 0.661782,-0.0134 0.818486,-0.0447 1.038569,-0.20746 z m -1.225281,-0.073 c -0.03114,-0.0504 0.06968,-0.0847 0.249004,-0.0847 0.165731,0 0.30133,0.0381 0.30133,0.0847 0,0.0466 -0.112052,0.0847 -0.249004,0.0847 -0.136951,0 -0.27255,-0.0381 -0.30133,-0.0847 z"
         id="path329" />
      <path
         style="fill:#5c5c5c;fill-opacity:1;stroke-width:0.0846667"
         d="m 25.145635,123.17929 c -0.0912,-0.10989 -0.1162,-0.56679 -0.1162,-2.12349 0,-1.86571 0.0098,-1.99062 0.164349,-2.10366 0.120942,-0.0884 0.44061,-0.12017 1.210348,-0.12017 1.00496,0 1.054368,0.008 1.259284,0.21328 0.117307,0.11731 0.248046,0.1918 0.290532,0.16555 0.16199,-0.10012 0.73389,0.13806 1.006261,0.41908 0.223293,0.23038 0.292729,0.38233 0.324154,0.70938 0.07332,0.76308 -0.355552,1.29416 -1.147338,1.42077 l -0.355924,0.0569 v 0.61106 c 0,0.87203 -0.03058,0.8913 -1.414466,0.8913 -0.924391,0 -1.123775,-0.0229 -1.221,-0.14001 z m 2.302366,-0.0323 c 0.105379,-0.0564 0.163767,-0.17714 0.163767,-0.33867 v -0.25102 h -1.227667 -1.227666 v 0.24979 c 0,0.14858 0.06004,0.28476 0.148166,0.33609 0.194772,0.11345 1.932772,0.11653 2.1434,0.004 z m -1.1909,-0.29336 c 0,-0.0699 0.05715,-0.127 0.127,-0.127 0.06985,0 0.127,0.0571 0.127,0.127 0,0.0699 -0.05715,0.127 -0.127,0.127 -0.06985,0 -0.127,-0.0572 -0.127,-0.127 z m 1.354667,-0.762 c 0,-0.28853 -0.0088,-0.29633 -0.33367,-0.29633 -0.367584,0 -0.4967,-0.11194 -0.342889,-0.29727 0.07787,-0.0938 0.06763,-0.20532 -0.04625,-0.50351 -0.1389,-0.3637 -0.137241,-0.72338 0.005,-1.08305 0.05358,-0.13548 -0.01829,-0.14817 -0.839463,-0.14817 h -0.898058 v 1.31233 1.31234 h 1.227666 1.227667 z m 1.177862,-0.7548 c 0.629384,-0.60309 0.506744,-1.47715 -0.263491,-1.87791 -0.977903,-0.5088 -2.010189,0.67533 -1.425168,1.63481 0.09651,0.15827 0.13179,0.29317 0.08435,0.32249 -0.04485,0.0277 -0.08155,0.0902 -0.08155,0.13876 0,0.0567 0.255533,0.0777 0.714152,0.0585 0.653671,-0.0273 0.735965,-0.0508 0.97171,-0.27666 z m -1.008529,-0.47286 c 0,-0.0941 -0.05644,-0.16934 -0.127,-0.16934 -0.07902,0 -0.127,-0.08 -0.127,-0.21166 0,-0.13171 0.04798,-0.21167 0.127,-0.21167 0.07056,0 0.127,-0.0753 0.127,-0.16933 0,-0.13018 0.05645,-0.16934 0.244126,-0.16934 0.17292,0 0.25704,0.0494 0.288406,0.16934 0.02435,0.0931 0.104999,0.16933 0.179208,0.16933 0.200675,0 0.1709,0.34511 -0.03441,0.3988 -0.09372,0.0245 -0.169334,0.11549 -0.169334,0.20374 0,0.12073 -0.06169,0.15946 -0.254,0.15946 -0.197555,0 -0.254,-0.0376 -0.254,-0.16933 z m 0.423334,-0.127 c 0,-0.0699 0.05715,-0.127 0.127,-0.127 0.06985,0 0.127,-0.0572 0.127,-0.127 0,-0.0698 -0.05715,-0.127 -0.127,-0.127 -0.06985,0 -0.127,-0.0571 -0.127,-0.127 0,-0.0699 -0.05715,-0.127 -0.127,-0.127 -0.06985,0 -0.127,0.0572 -0.127,0.127 0,0.0699 -0.0549,0.127 -0.122004,0.127 -0.202852,0 -0.24645,0.17739 -0.05585,0.22724 0.09782,0.0256 0.177853,0.0992 0.177853,0.16363 0,0.0644 0.05715,0.11713 0.127,0.11713 0.06985,0 0.127,-0.0571 0.127,-0.127 z m -0.863685,-1.29989 c 0.470487,-0.33557 0.328727,-0.39345 -0.963704,-0.39345 -1.168408,0 -1.178511,0.002 -1.20614,0.19666 -0.05565,0.39279 -4.4e-4,0.4158 0.973267,0.40561 0.818896,-0.009 0.947215,-0.031 1.196577,-0.20882 z m -1.083649,-0.10287 c -0.184161,-0.054 -0.170408,-0.0631 0.105834,-0.0705 0.322374,-0.009 0.403415,0.0279 0.211666,0.0953 -0.05821,0.0205 -0.201083,0.009 -0.3175,-0.0248 z"
         id="path327" />
      <path
         style="fill:#4e4e4e;fill-opacity:1;stroke-width:0.0846667"
         d="m 25.169126,123.20759 c -0.06096,-0.0734 -0.09538,-0.80465 -0.100496,-2.13497 -0.0071,-1.83706 0.0059,-2.03327 0.140859,-2.13196 0.102008,-0.0746 0.476812,-0.10869 1.194643,-0.10869 0.971689,0 1.059572,0.0135 1.237047,0.1905 0.120281,0.11993 0.314505,0.19891 0.524344,0.2132 0.362757,0.0247 0.849134,0.35538 1.037324,0.70523 0.06564,0.12202 0.09627,0.38669 0.07657,0.66153 -0.02917,0.40688 -0.07101,0.49373 -0.374046,0.7764 -0.250577,0.23373 -0.445199,0.33386 -0.732737,0.37698 l -0.391534,0.0587 v 0.61226 c 0,0.87341 -0.03027,0.89251 -1.414466,0.89251 -0.811538,0 -1.129409,-0.0297 -1.197509,-0.11171 z m 2.341042,-0.0746 c 0.05588,-0.0559 0.1016,-0.20828 0.1016,-0.33866 v -0.23707 h -1.227667 -1.227666 v 0.24979 c 0,0.14858 0.06004,0.28476 0.148166,0.33609 0.215338,0.12543 2.078569,0.11685 2.205567,-0.0101 z m -1.253067,-0.2794 c 0,-0.0699 0.05715,-0.127 0.127,-0.127 0.06985,0 0.127,0.0571 0.127,0.127 0,0.0699 -0.05715,0.127 -0.127,0.127 -0.06985,0 -0.127,-0.0572 -0.127,-0.127 z m 1.354667,-0.762 c 0,-0.28853 -0.0088,-0.29633 -0.33367,-0.29633 -0.377381,0 -0.508314,-0.12564 -0.32352,-0.31043 0.110018,-0.11002 0.105524,-0.16185 -0.03784,-0.43637 -0.160274,-0.30692 -0.170682,-0.78153 -0.02493,-1.13703 0.0556,-0.13562 -0.01532,-0.14817 -0.837313,-0.14817 h -0.898058 v 1.31233 1.31234 h 1.227666 1.227667 z m 1.002937,-0.59981 c 0.39328,-0.23476 0.557349,-0.53775 0.557349,-1.02928 0,-0.40178 -0.03164,-0.48011 -0.303933,-0.7524 -0.5326,-0.5326 -1.328379,-0.47444 -1.757678,0.12845 -0.2322,0.3261 -0.237426,0.98287 -0.01017,1.27866 0.148701,0.19354 0.150955,0.22322 0.02733,0.35983 -0.127539,0.14093 -0.0974,0.14889 0.563818,0.14889 0.486476,0 0.766786,-0.0407 0.923289,-0.13415 z m -0.833604,-0.62785 c 0,-0.0941 -0.05644,-0.16934 -0.127,-0.16934 -0.07902,0 -0.127,-0.08 -0.127,-0.21166 0,-0.12378 0.04864,-0.21167 0.117126,-0.21167 0.06442,0 0.137051,-0.0762 0.161406,-0.16933 0.02726,-0.10423 0.115487,-0.16934 0.229468,-0.16934 0.113981,0 0.202213,0.0651 0.229468,0.16934 0.02435,0.0931 0.09254,0.16933 0.151532,0.16933 0.05899,0 0.128279,0.0804 0.15398,0.17869 0.03375,0.12906 0.0012,0.1906 -0.117125,0.22154 -0.09012,0.0236 -0.163855,0.11461 -0.163855,0.20231 0,0.12073 -0.06169,0.15946 -0.254,0.15946 -0.197555,0 -0.254,-0.0376 -0.254,-0.16933 z m 0.423334,-0.127 c 0,-0.0699 0.05715,-0.127 0.127,-0.127 0.06985,0 0.127,-0.0572 0.127,-0.127 0,-0.0698 -0.05715,-0.127 -0.127,-0.127 -0.06985,0 -0.127,-0.0531 -0.127,-0.11794 0,-0.0649 -0.05715,-0.13988 -0.127,-0.16668 -0.08638,-0.0331 -0.127,0.005 -0.127,0.11794 0,0.11023 -0.05734,0.16668 -0.169334,0.16668 -0.09407,0 -0.169333,0.0564 -0.169333,0.127 0,0.0706 0.07526,0.127 0.169333,0.127 0.09407,0 0.169334,0.0564 0.169334,0.127 0,0.0699 0.05715,0.127 0.127,0.127 0.06985,0 0.127,-0.0571 0.127,-0.127 z m -0.896937,-1.24884 c 0.165075,-0.10477 0.291021,-0.24765 0.279878,-0.3175 -0.01689,-0.10587 -0.217284,-0.127 -1.204434,-0.127 -1.174577,0 -1.1844,0.002 -1.212036,0.19666 -0.05799,0.40933 0.0049,0.43834 0.950667,0.43834 0.773219,0 0.923929,-0.0242 1.185925,-0.1905 z m -1.070576,-0.20804 c 0.105318,-0.0203 0.257718,-0.0195 0.338666,0.002 0.08095,0.0212 -0.0052,0.0378 -0.191487,0.0368 -0.186266,-9.4e-4 -0.252497,-0.0183 -0.147179,-0.0385 z"
         id="path325" />
      <path
         style="fill:#404040;fill-opacity:1;stroke-width:0.0846667"
         d="m 25.219935,123.22785 c -0.134725,-0.0785 -0.148167,-0.2743 -0.148167,-2.15852 v -2.07222 l 0.217178,-0.0826 c 0.119449,-0.0454 0.654668,-0.0826 1.189377,-0.0826 0.928255,0 0.981064,0.01 1.168363,0.21166 0.142776,0.15406 0.283524,0.21167 0.517132,0.21167 0.372453,0 0.817858,0.29749 1.014372,0.67751 0.396716,0.76716 -0.184606,1.77782 -1.022585,1.77782 h -0.374504 v 0.61616 c 0,0.96907 -0.03244,0.99306 -1.338301,0.98994 -0.591084,-0.001 -1.141374,-0.0414 -1.222865,-0.0889 z m 2.257908,-0.0446 c 0.08571,-0.0329 0.133925,-0.15481 0.133925,-0.33867 v -0.28727 h -1.227667 -1.227666 v 0.23707 c 0,0.39662 0.1185,0.44026 1.195342,0.44026 0.545678,0 1.052408,-0.0231 1.126066,-0.0514 z m -1.201339,-0.30315 c 0.05233,-0.15699 0.234597,-0.18303 0.234597,-0.0335 0,0.0737 -0.06032,0.13405 -0.134055,0.13405 -0.07373,0 -0.118975,-0.0452 -0.100542,-0.10054 z m 1.340138,-0.67392 c 0.08751,-0.35608 0.0068,-0.47732 -0.303808,-0.4565 -0.401017,0.0269 -0.546527,-0.0764 -0.364342,-0.25867 0.131632,-0.13167 0.129508,-0.16325 -0.03178,-0.4727 -0.169434,-0.32507 -0.178055,-0.72444 -0.02389,-1.10683 0.05465,-0.13556 -0.01672,-0.14817 -0.838324,-0.14817 H 25.15644 v 1.30769 1.3077 l 0.402166,0.0258 c 0.221192,0.0142 0.763723,0.0202 1.205624,0.0134 0.76862,-0.0119 0.805581,-0.0211 0.852417,-0.21167 z m 1.055619,-0.75087 c 0.996396,-0.61581 0.524723,-2.11533 -0.665374,-2.11533 -0.314299,0 -0.446612,0.0504 -0.687325,0.26173 -0.470111,0.41276 -0.563936,1.13911 -0.203278,1.57368 0.08138,0.0981 0.082,0.16137 0.0028,0.28813 -0.09691,0.15517 -0.07054,0.16246 0.587766,0.16246 0.543247,0 0.747712,-0.0361 0.965371,-0.17067 z m -0.866628,-0.59133 c -0.02435,-0.0931 -0.09699,-0.16934 -0.161406,-0.16934 -0.06849,0 -0.117126,-0.0879 -0.117126,-0.21166 0,-0.13171 0.04798,-0.21167 0.127,-0.21167 0.06985,0 0.127,-0.0549 0.127,-0.122 0,-0.0671 0.03844,-0.14576 0.08543,-0.1748 0.131592,-0.0813 0.422575,0.0395 0.422575,0.17551 0,0.0667 0.05715,0.12129 0.127,0.12129 0.07902,0 0.127,0.08 0.127,0.21167 0,0.12377 -0.04864,0.21166 -0.117125,0.21166 -0.06442,0 -0.137052,0.0762 -0.161407,0.16934 -0.02726,0.10422 -0.115487,0.16933 -0.229468,0.16933 -0.113981,0 -0.202213,-0.0651 -0.229468,-0.16933 z m 0.398802,-0.132 c 0,-0.0671 0.05715,-0.122 0.127,-0.122 0.06985,0 0.127,-0.0572 0.127,-0.127 0,-0.0698 -0.05271,-0.127 -0.117126,-0.127 -0.06442,0 -0.138101,-0.0802 -0.163739,-0.17826 -0.04827,-0.18457 -0.288377,-0.17907 -0.245872,0.006 0.01298,0.0564 -0.0537,0.12275 -0.148166,0.14746 -0.216446,0.0566 -0.226256,0.27917 -0.01231,0.27917 0.0908,0 0.179484,0.0766 0.205967,0.17785 0.04984,0.1906 0.227241,0.147 0.227241,-0.0558 z M 27.3488,119.45282 c 0.272407,-0.17835 0.324806,-0.25001 0.249314,-0.34097 -0.07389,-0.089 -0.357035,-0.10984 -1.247463,-0.0917 l -1.151883,0.0235 -0.02628,0.3175 -0.02628,0.3175 h 0.928846 c 0.863626,0 0.953063,-0.0159 1.273741,-0.22581 z m -1.111878,-0.17273 c 0.105318,-0.0203 0.257718,-0.0195 0.338666,0.002 0.08095,0.0212 -0.0052,0.0378 -0.191487,0.0368 -0.186266,-9.4e-4 -0.252497,-0.0183 -0.147179,-0.0385 z"
         id="path323" />
      <path
         style="fill:#333333;fill-opacity:1;stroke-width:0.0846667"
         d="m 25.219935,123.22785 c -0.134579,-0.0784 -0.148167,-0.27209 -0.148167,-2.11214 v -2.02584 l 0.202103,-0.13242 c 0.157305,-0.10307 0.420015,-0.12964 1.185214,-0.11984 0.916608,0.0117 0.996007,0.0262 1.173731,0.21367 0.131118,0.13832 0.285817,0.20155 0.495598,0.20256 0.610888,0.003 1.187812,0.63171 1.166597,1.27146 -0.009,0.27285 -0.01507,0.26528 -0.07604,-0.0955 -0.03642,-0.21553 -0.110569,-0.47474 -0.164778,-0.57603 -0.159093,-0.29727 -0.595138,-0.51311 -1.037309,-0.51346 -0.324888,-2.5e-4 -0.454191,0.0479 -0.69445,0.2589 -0.162376,0.14257 -0.31958,0.33594 -0.349343,0.42971 -0.02976,0.0938 -0.07277,0.15185 -0.09558,0.12904 -0.0228,-0.0228 0.0011,-0.12092 0.05304,-0.21805 0.07914,-0.14786 0.06992,-0.17782 -0.05664,-0.18422 -0.08313,-0.004 -0.02732,-0.0434 0.124021,-0.0871 0.151341,-0.0437 0.275166,-0.11035 0.275166,-0.14811 0,-0.0378 0.104651,-0.11634 0.232558,-0.17462 0.231331,-0.1054 0.231645,-0.1067 0.05953,-0.24642 -0.147921,-0.12008 -0.332182,-0.13432 -1.269724,-0.0981 l -1.096693,0.0423 v 1.69334 1.69333 l 1.129674,0.0149 c 0.62132,0.008 1.151545,0.0368 1.178277,0.0635 0.02673,0.0267 -0.491146,0.0486 -1.15084,0.0486 h -1.199444 v 0.29472 c 0,0.36288 0.04009,0.37493 1.354666,0.40719 l 0.973667,0.0239 -1.058333,0.0155 c -0.596224,0.009 -1.123029,-0.0222 -1.2065,-0.0708 z m 2.367301,-0.16255 c 0.02435,-0.0931 0.07928,-0.16933 0.122052,-0.16933 0.04297,0 0.03721,0.0758 -0.01285,0.16933 -0.04984,0.0931 -0.104767,0.16933 -0.122053,0.16933 -0.01729,0 -0.0115,-0.0762 0.01285,-0.16933 z m -1.310732,-0.18521 c 0.05233,-0.15699 0.234597,-0.18303 0.234597,-0.0335 0,0.0737 -0.06032,0.13405 -0.134055,0.13405 -0.07373,0 -0.118975,-0.0452 -0.100542,-0.10054 z m 1.375828,-0.44977 c 9.73e-4,-0.20954 0.03034,-0.38099 0.06527,-0.381 0.03493,-10e-6 0.0635,0.17143 0.0635,0.38098 0,0.20955 -0.02937,0.381 -0.06527,0.381 -0.0359,0 -0.06447,-0.17144 -0.0635,-0.38098 z m -0.138502,-0.72968 c -0.07022,-0.0445 0.07466,-0.0726 0.378671,-0.0734 0.515573,-0.001 0.723239,-0.0733 1.073328,-0.37171 l 0.211061,-0.17992 -0.168528,0.19917 c -0.09269,0.10954 -0.263868,0.24731 -0.380394,0.30616 -0.273586,0.13816 -0.967393,0.21268 -1.114138,0.11968 z m -0.664062,-0.0442 c 0,-0.0298 0.06456,-0.10138 0.143463,-0.15907 0.132898,-0.0972 0.133352,-0.12034 0.0062,-0.31446 -0.175646,-0.26807 -0.276107,-0.79113 -0.165122,-0.85973 0.04973,-0.0307 0.06652,0.0161 0.04088,0.11419 -0.02392,0.0915 0.04065,0.34015 0.143485,0.55259 0.145031,0.2996 0.164951,0.41281 0.08878,0.50458 -0.07861,0.0947 -0.05921,0.12577 0.09724,0.15566 0.147356,0.0282 0.127741,0.0402 -0.07972,0.0489 -0.151342,0.006 -0.275167,-0.0128 -0.275167,-0.0426 z m 0.978547,-0.69994 c -0.0261,-0.0422 0.03106,-0.0562 0.127005,-0.0311 0.12825,0.0335 0.186954,-0.002 0.221658,-0.1349 0.02596,-0.0993 0.09991,-0.18051 0.164331,-0.18051 0.06442,0 0.117126,-0.0572 0.117126,-0.127 0,-0.0698 -0.05271,-0.127 -0.117126,-0.127 -0.06442,0 -0.137052,-0.0762 -0.161406,-0.16934 -0.02435,-0.0931 -0.08952,-0.16933 -0.144802,-0.16933 -0.05529,0 -0.120446,0.0762 -0.144801,0.16933 -0.02435,0.0931 -0.101432,0.16934 -0.171282,0.16934 -0.08532,0 -0.112466,0.0556 -0.08272,0.16933 0.02435,0.0931 0.0097,0.16933 -0.03246,0.16933 -0.04221,0 -0.07674,-0.0953 -0.07674,-0.21166 0,-0.12728 0.04836,-0.21167 0.121295,-0.21167 0.06671,0 0.145479,-0.0762 0.175039,-0.16933 0.02956,-0.0931 0.08616,-0.16934 0.12578,-0.16934 0.168466,0 0.339886,0.11133 0.339886,0.22073 0,0.0649 0.05715,0.11794 0.127,0.11794 0.07902,0 0.127,0.08 0.127,0.21167 0,0.12377 -0.04864,0.21166 -0.117125,0.21166 -0.06442,0 -0.137052,0.0762 -0.161407,0.16934 -0.0452,0.17284 -0.347057,0.23688 -0.436254,0.0926 z m -2.185047,-1.25522 c 0.197908,-0.0178 0.521758,-0.0178 0.719667,0 0.197908,0.0178 0.03598,0.0324 -0.359834,0.0324 -0.395816,0 -0.557741,-0.0146 -0.359833,-0.0324 z m 0.635,-0.41971 c 0.08149,-0.0213 0.214842,-0.0213 0.296333,0 0.08149,0.0213 0.01482,0.0387 -0.148166,0.0387 -0.162984,0 -0.229659,-0.0174 -0.148167,-0.0387 z"
         id="path321" />
    </g>
  </g>
</svg>
