<?xml version="1.0" encoding="UTF-8" standalone="no"?>
<!-- Created with Inkscape (http://www.inkscape.org/) -->

<svg
   width="100"
   height="100"
   viewBox="0 0 26.458333 26.458333"
   version="1.1"
   id="svg5"
   inkscape:version="1.1 (ce6663b3b7, 2021-05-25)"
   sodipodi:docname="experience.svg"
   xmlns:inkscape="http://www.inkscape.org/namespaces/inkscape"
   xmlns:sodipodi="http://sodipodi.sourceforge.net/DTD/sodipodi-0.dtd"
   xmlns="http://www.w3.org/2000/svg"
   xmlns:svg="http://www.w3.org/2000/svg">
  <sodipodi:namedview
     id="namedview7"
     pagecolor="#ffffff"
     bordercolor="#666666"
     borderopacity="1.0"
     inkscape:pageshadow="2"
     inkscape:pageopacity="0.0"
     inkscape:pagecheckerboard="0"
     inkscape:document-units="mm"
     showgrid="false"
     inkscape:zoom="3.1001683"
     inkscape:cx="26.288895"
     inkscape:cy="71.447733"
     inkscape:window-width="1920"
     inkscape:window-height="1016"
     inkscape:window-x="0"
     inkscape:window-y="27"
     inkscape:window-maximized="1"
     inkscape:current-layer="layer1"
     width="209mm"
     units="px" />
  <defs
     id="defs2" />
  <g
     inkscape:label="Layer 1"
     inkscape:groupmode="layer"
     id="layer1">
    <g
       id="g1069"
       transform="matrix(4.33642,0,0,4.33642,53.22897,-2.7677143)">
      <path
         style="fill:#cacaca;fill-opacity:1;stroke-width:0.0846667"
         d="m -9.7761459,5.7705923 c -0.035023,-0.056668 0.034802,-0.1808513 0.1643365,-0.2922722 0.1582474,-0.1361186 0.225234,-0.2758837 0.225234,-0.4699421 0,-0.2576197 -0.00948,-0.266724 -0.1408935,-0.1353104 -0.1123538,0.1123537 -0.1200961,0.1659531 -0.038222,0.2646052 0.079746,0.096088 0.07998,0.1377356 0.00105,0.1865175 -0.1061444,0.065601 -0.3299334,-0.1717167 -0.3299334,-0.3498792 0,-0.055248 0.056639,-0.147457 0.1258647,-0.2049091 0.108642,-0.090165 0.091264,-0.1367803 -0.127,-0.3406694 -0.3706104,-0.3462017 -0.3168774,-0.6946895 0.1193517,-0.774061 0.2197417,-0.039982 0.2699908,0.1497501 0.054579,0.2060816 -0.2359697,0.061707 -0.2172699,0.2819954 0.038144,0.4493493 0.1160169,0.076017 0.1863301,0.1780322 0.1562516,0.2267002 -0.03184,0.051519 -0.013851,0.063248 0.04306,0.028075 0.057546,-0.035566 0.097748,-0.2851089 0.097748,-0.606749 V 3.411792 L -9.7129072,3.463975 C -9.9737807,3.50569 -10.1054,3.473755 -10.369074,3.3047508 c -0.403247,-0.2584601 -0.710835,-0.5450476 -0.710835,-0.6623031 0,-0.048079 -0.05934,-0.1467572 -0.131869,-0.2192852 -0.07253,-0.072528 -0.112893,-0.1813211 -0.0897,-0.2417622 0.02319,-0.060441 -0.01272,-0.1554437 -0.0798,-0.2111169 -0.06708,-0.055673 -0.121967,-0.1918087 -0.121967,-0.3025235 0,-0.193887 0.02316,-0.2012997 0.628855,-0.2012997 0.578518,0 0.642901,0.017857 0.804333,0.2230847 0.096513,0.1226966 0.1754787,0.2684553 0.1754787,0.3239081 0,0.1052133 0.3490172,0.4690072 0.4499569,0.4690072 0.1062329,0 0.059876,-0.2642624 -0.068957,-0.3930952 -0.1643704,-0.1643704 -0.1601557,-0.2245331 0.032387,-0.4623137 0.1406736,-0.1737245 0.185407,-0.1849797 0.381,-0.095862 0.2518403,0.1147461 0.302132,0.4403781 0.094613,0.6126038 -0.1394359,0.1157216 -0.1722586,0.3386667 -0.04986,0.3386667 0.09392,0 0.5155264,-0.4900063 0.5155264,-0.5991627 0,-0.042994 0.0762,-0.1543706 0.1693333,-0.247504 0.1372233,-0.1372233 0.2822222,-0.1693333 0.7646573,-0.1693333 0.6712861,0 0.7739822,0.088208 0.5616934,0.4824496 -0.070254,0.1304694 -0.1512679,0.2943671 -0.1800303,0.3642171 -0.1486326,0.3609572 -0.6298975,0.9313333 -0.7858289,0.9313333 -0.047167,0 -0.1367806,0.061479 -0.199142,0.1366199 -0.087248,0.1051278 -0.2067367,0.1255637 -0.518367,0.088656 l -0.4049825,-0.047964 v 0.5040109 c 0,0.277206 0.021555,0.5040109 0.047899,0.5040109 0.089286,0 0.4174513,-0.1941979 0.4734339,-0.2801637 0.079883,-0.1226662 -0.010869,-0.312503 -0.1493917,-0.312503 -0.064868,0 -0.1179416,-0.05715 -0.1179416,-0.127 0,-0.1500452 0.00929,-0.1514651 0.2908215,-0.044429 0.1616883,0.061474 0.2168473,0.1425966 0.215882,0.3175 -0.00176,0.3195595 -0.07848,0.417817 -0.4461706,0.5714479 -0.2660889,0.111179 -0.3145329,0.1714526 -0.3145329,0.3913395 0,0.1714745 0.036013,0.2471694 0.1058333,0.2224503 0.058208,-0.020608 0.098331,-0.140487 0.089162,-0.2663979 -0.012696,-0.1743422 0.017586,-0.2224018 0.127,-0.201555 0.19504,0.037161 0.2315722,0.3852922 0.060293,0.574554 -0.091742,0.1013737 -0.1085221,0.1729794 -0.049137,0.2096814 0.0496,0.030655 0.090182,0.132862 0.090182,0.2271277 0,0.2269314 -0.2035483,0.1568564 -0.2387219,-0.082184 -0.037388,-0.2540907 -0.1846114,-0.231922 -0.1846114,0.027798 0,0.2454317 -0.123873,0.2776561 -0.2440991,0.0635 -0.079219,-0.1411112 -0.085898,-0.1411112 -0.1402654,0 -0.065899,0.1710409 -0.171656,0.1912913 -0.259206,0.049632 z M -9.5205,3.1930681 C -9.2926312,3.1056266 -9.3602798,2.7615664 -9.6375442,2.5977823 -9.7755771,2.5162443 -9.9755367,2.2854903 -10.081899,2.0849956 l -0.193386,-0.3645358 h -0.486978 c -0.542408,0 -0.629056,0.1024004 -0.211812,0.2503178 0.250909,0.08895 0.262105,0.1072963 0.127,0.2081164 -0.204654,0.152719 -0.185455,0.2188991 0.0635,0.2188991 0.231106,0 0.267895,0.079238 0.110066,0.2370667 -0.07902,0.079022 -0.04073,0.1016 0.172313,0.1016 0.25329,0 0.266642,0.013584 0.177349,0.1804288 -0.09258,0.1729778 -0.08349,0.177976 0.220035,0.1210346 0.2669937,-0.050088 0.3086039,-0.038561 0.2655747,0.073571 -0.053655,0.139823 0.077916,0.1736016 0.3177373,0.081574 z m 0.8395866,-0.081574 c -0.043036,-0.1121487 -0.00141,-0.1236571 0.2659038,-0.073509 0.2959847,0.055527 0.3131421,0.047529 0.2596421,-0.1210347 -0.050466,-0.1590029 -0.024441,-0.1804906 0.2186023,-0.1804906 0.2593548,0 0.2660389,-0.00725 0.1115388,-0.1209531 -0.1526152,-0.1123176 -0.1537706,-0.1244073 -0.016182,-0.1693333 0.4345408,-0.1418888 0.4565741,-0.1563647 0.2963333,-0.1946912 -0.2102635,-0.050291 -0.1834548,-0.1831304 0.055276,-0.2738955 0.4077825,-0.1550386 0.329856,-0.2571269 -0.1962713,-0.2571269 -0.4912765,0 -0.5161558,0.010529 -0.6502066,0.2751667 -0.1867044,0.3685845 -0.3758651,0.5758527 -0.6057977,0.6637876 -0.2277995,0.087119 -0.2521786,0.3713737 -0.042333,0.4935973 0.2219008,0.1292454 0.3616851,0.1101235 0.3034953,-0.041517 z M -9.1281032,1.8474598 c -0.00664,-0.1256698 -0.1960557,-0.1025825 -0.2400008,0.029253 -0.023738,0.071215 0.014966,0.1029536 0.1032499,0.084667 0.077673,-0.016089 0.1392106,-0.067353 0.1367509,-0.11392 z"
         id="path1093" />
      <path
         style="fill:#bdbdbd;fill-opacity:1;stroke-width:0.0846667"
         d="m -9.7671368,5.7851694 c -0.028538,-0.046176 0.045413,-0.1812581 0.1643366,-0.3001817 0.2450095,-0.2450096 0.3283264,-0.8302979 0.090043,-0.6325405 -0.079849,0.066269 -0.1075675,0.1788861 -0.075488,0.3067003 0.062881,0.2505357 -0.094917,0.269474 -0.2247021,0.026968 -0.07247,-0.1354105 -0.064266,-0.2198767 0.036256,-0.3732925 0.1216459,-0.1856551 0.1170464,-0.2067162 -0.072228,-0.3307335 -0.3963727,-0.2597137 -0.3389447,-0.8142964 0.084323,-0.8142964 0.2505362,0 0.2772613,0.1316514 0.039354,0.1938654 -0.093133,0.024355 -0.1693334,0.1046757 -0.1693334,0.1784907 0,0.073815 0.0762,0.1817967 0.1693334,0.2399594 0.093133,0.058163 0.1693333,0.1559841 0.1693333,0.2173809 0,0.061397 0.0381,0.088083 0.084667,0.059304 0.046567,-0.02878 0.084667,-0.2981785 0.084667,-0.598664 V 3.411792 l -0.3277859,0.052415 c -0.2410065,0.038539 -0.3923081,0.011338 -0.5715001,-0.1027421 -0.318404,-0.2027072 -0.794048,-0.6425915 -0.794048,-0.73435 0,-0.039646 -0.05934,-0.1314249 -0.131869,-0.2039529 -0.07253,-0.072528 -0.112893,-0.1813211 -0.0897,-0.2417622 0.02319,-0.060441 -0.01272,-0.1554437 -0.0798,-0.2111169 -0.06708,-0.055673 -0.121967,-0.1918087 -0.121967,-0.3025235 0,-0.1929074 0.02487,-0.2012997 0.596515,-0.2012997 0.520448,0 0.623016,0.026501 0.804333,0.2078182 0.1143009,0.1143 0.207819,0.2600586 0.207819,0.323908 0,0.1166759 0.341549,0.4842738 0.4499569,0.4842738 0.1000804,0 0.058017,-0.2892593 -0.065834,-0.4527295 -0.1391352,-0.1836428 -0.08908,-0.3646323 0.1338385,-0.4839348 0.3623152,-0.1939052 0.6896168,0.3336015 0.371039,0.5979976 -0.1348068,0.1118797 -0.1737626,0.3386667 -0.058174,0.3386667 0.1147232,0 0.5008822,-0.4526592 0.5639068,-0.6610167 0.032499,-0.1074425 0.1535601,-0.2312675 0.2690235,-0.2751667 0.277377,-0.1054586 1.1908265,-0.1026147 1.2566639,0.00391 0.028461,0.046051 -0.00331,0.2079759 -0.070605,0.3598333 -0.067294,0.1518573 -0.146976,0.3332543 -0.1770713,0.4031043 -0.1682892,0.3905926 -0.6354862,0.9313333 -0.8046669,0.9313333 -0.056195,0 -0.1593222,0.05715 -0.2291722,0.127 -0.1471294,0.1471293 -0.3531173,0.1610014 -0.6597263,0.044429 L -9.1325776,3.3333152 V 3.881553 c 0,0.3015307 0.021555,0.5482377 0.047899,0.5482377 0.089286,0 0.4174513,-0.1941979 0.4734339,-0.2801637 0.079883,-0.1226662 -0.010869,-0.312503 -0.1493917,-0.312503 -0.064868,0 -0.1179416,-0.0381 -0.1179416,-0.084667 0,-0.095181 0.1727139,-0.1105446 0.3740754,-0.033275 0.1806256,0.069312 0.1714959,0.4810287 -0.014397,0.6492595 -0.081577,0.073826 -0.2530268,0.1740381 -0.381,0.2226934 -0.1830123,0.069581 -0.2326784,0.1431287 -0.2326784,0.3445597 0,0.1624543 0.043125,0.2560956 0.1179416,0.2560956 0.1435557,0 0.2450472,-0.2289746 0.1323607,-0.2986187 -0.1242475,-0.076789 -0.096119,-0.2093813 0.044418,-0.2093813 0.1961011,0 0.2583027,0.4025833 0.090799,0.5876728 -0.093579,0.1034041 -0.1115697,0.1766632 -0.052368,0.2132518 0.1132796,0.070011 0.1191099,0.3844087 0.00713,0.3844087 -0.045679,0 -0.1069598,-0.09525 -0.1361785,-0.2116666 -0.029219,-0.1164167 -0.087095,-0.2116667 -0.1286131,-0.2116667 -0.041519,0 -0.075488,0.09525 -0.075488,0.2116667 0,0.2317463 -0.1457448,0.2869868 -0.2233823,0.084667 -0.026804,-0.06985 -0.082758,-0.127 -0.1243427,-0.127 -0.041585,0 -0.075608,0.05715 -0.075608,0.127 0,0.1434106 -0.1325093,0.1704127 -0.2112281,0.043043 z M -9.5205,3.1930681 c 0.075482,-0.028965 0.1339246,-0.1492614 0.1339246,-0.2756652 0,-0.1667138 -0.063844,-0.2525338 -0.2487597,-0.3343853 -0.156541,-0.069292 -0.3162765,-0.2495829 -0.4308859,-0.4863348 l -0.182127,-0.376223 h -0.500447 c -0.524586,0 -0.655045,0.1147464 -0.28878,0.254 0.207089,0.078735 0.294721,0.254 0.127,0.254 -0.04657,0 -0.08467,0.0381 -0.08467,0.084667 0,0.046567 0.09525,0.084667 0.211667,0.084667 0.214616,0 0.28281,0.1153704 0.125619,0.2125202 -0.145045,0.089643 -0.0096,0.1978409 0.18417,0.1471598 0.155981,-0.04079 0.175332,-0.019887 0.13266,0.1432935 -0.04675,0.178776 -0.03056,0.1874109 0.251976,0.1344063 0.252893,-0.047443 0.2936486,-0.035046 0.2509127,0.076322 -0.053655,0.139823 0.077916,0.1736016 0.3177373,0.081574 z m 0.8639266,-0.079205 c -0.041685,-0.1086301 0.00107,-0.1209946 0.2541883,-0.073509 0.2878453,0.054 0.3009921,0.046656 0.2430833,-0.1357987 -0.052032,-0.1639391 -0.035767,-0.1862303 0.1083809,-0.1485347 0.09328,0.024393 0.2214432,0.011505 0.2848064,-0.028641 0.08452,-0.053551 0.087016,-0.073338 0.00937,-0.074289 -0.058208,-7.13e-4 -0.1058333,-0.058447 -0.1058333,-0.1282965 0,-0.06985 0.073951,-0.127 0.1643366,-0.127 0.090385,0 0.1878836,-0.0381 0.2166634,-0.084667 0.02878,-0.046567 -0.00707,-0.084667 -0.07967,-0.084667 -0.2031552,0 -0.1563776,-0.1642549 0.071446,-0.2508731 0.4078997,-0.1550832 0.3298273,-0.2571269 -0.1967247,-0.2571269 h -0.511276 l -0.1755999,0.3442041 c -0.09658,0.1893123 -0.3069043,0.4216757 -0.4673874,0.5163631 -0.3182551,0.187775 -0.3801371,0.4342264 -0.1436209,0.5719844 0.2239115,0.1304165 0.385499,0.1111205 0.3278353,-0.039149 z M -9.1069365,1.8486193 c 0.00918,-0.045929 -0.049981,-0.096348 -0.1314722,-0.1120414 -0.092676,-0.017848 -0.1481667,0.023679 -0.1481667,0.1108819 0,0.1473021 0.2502151,0.1483396 0.2796389,0.00116 z"
         id="path1091" />
      <path
         style="fill:#afafaf;fill-opacity:1;stroke-width:0.0846667"
         d="m -9.7592097,5.7979957 c -0.033235,-0.053775 0.044158,-0.2005654 0.1741578,-0.3303263 0.2087576,-0.2083739 0.3592085,-0.7012437 0.2130413,-0.6979131 -0.1793181,0.00409 -0.2737841,0.1600952 -0.2219627,0.366568 0.067253,0.2679588 -0.081732,0.3062298 -0.2159354,0.055469 -0.1111513,-0.2076881 -0.00788,-0.4298552 0.268611,-0.5778391 0.1764512,-0.094442 0.1976877,-0.1674681 0.2031006,-0.6984044 0.00518,-0.5083225 -0.012941,-0.5847201 -0.127,-0.5353711 -0.2990135,0.1293714 -0.5759629,0.1289348 -0.7060109,-0.00111 -0.07403,-0.074033 -0.178709,-0.1346053 -0.232612,-0.1346053 -0.130662,0 -0.676089,-0.518946 -0.676089,-0.6432636 0,-0.053901 -0.05888,-0.1468717 -0.130853,-0.2066008 -0.07197,-0.059729 -0.112334,-0.1568588 -0.0897,-0.2158435 0.02263,-0.058985 -0.01557,-0.1543216 -0.0849,-0.2118597 -0.06933,-0.057538 -0.11469,-0.1841488 -0.100801,-0.281357 0.02205,-0.1543409 0.09208,-0.1799307 0.552528,-0.2018997 0.620269,-0.029595 0.843137,0.067846 0.9969024,0.4358582 0.1568107,0.3753005 0.4398475,0.6224738 0.5670886,0.4952328 0.073687,-0.073687 0.062826,-0.1360229 -0.044334,-0.2544328 -0.2833357,-0.3130825 -0.050151,-0.783258 0.3183314,-0.6418581 0.2037803,0.078198 0.2709954,0.4611974 0.1025541,0.5843648 -0.1521853,0.1112806 -0.190936,0.3796594 -0.054818,0.3796594 0.1400874,0 0.43101,-0.3354194 0.5251514,-0.6054738 0.048952,-0.1404229 0.1804388,-0.2883175 0.2950838,-0.3319054 0.268447,-0.1020634 1.1873879,-0.1018935 1.2505044,2.286e-4 0.026803,0.043369 -0.00627,0.2052936 -0.073489,0.3598333 -0.067222,0.1545423 -0.145548,0.338134 -0.1740572,0.407984 -0.156332,0.383027 -0.6473682,0.9313333 -0.8340565,0.9313333 -0.047742,0 -0.1581561,0.064573 -0.2453651,0.1434963 -0.1326701,0.1200648 -0.2132536,0.1288982 -0.4935,0.054096 l -0.3349384,-0.0894 v 0.5385706 c 0,0.2962138 0.020942,0.5385705 0.046538,0.5385705 0.025596,0 0.1589458,-0.058128 0.2963333,-0.1291742 0.2870564,-0.1484427 0.328423,-0.3741171 0.080462,-0.4389604 -0.210779,-0.05512 -0.2228978,-0.1938654 -0.016933,-0.1938654 0.3465504,0 0.4806417,0.453261 0.2072784,0.7006513 -0.081577,0.073826 -0.2530268,0.1740381 -0.381,0.2226934 -0.1830123,0.069581 -0.2326784,0.1431287 -0.2326784,0.3445597 0,0.1624543 0.043125,0.2560956 0.1179416,0.2560956 0.1435557,0 0.2450472,-0.2289746 0.1323607,-0.2986187 -0.1242475,-0.076789 -0.096119,-0.2093813 0.044418,-0.2093813 0.1667351,0 0.2600066,0.3920139 0.1304217,0.548154 -0.055972,0.067442 -0.1745264,0.1457146 -0.2634545,0.1739394 -0.1026975,0.032595 -0.1616875,0.1290345 -0.1616875,0.2643343 0,0.1346652 -0.038927,0.1987433 -0.1058333,0.1742111 -0.058208,-0.021343 -0.096308,-0.081668 -0.084667,-0.1340555 0.032159,-0.1447156 -0.1583145,-0.1137367 -0.2740756,0.044576 -0.071499,0.097781 -0.1202297,0.1107239 -0.1620587,0.043043 z m 0.3167164,-2.6790465 c 0.1392344,-0.1392345 0.093526,-0.4671561 -0.065117,-0.4671561 -0.1449853,0 -0.5299767,-0.4245035 -0.6334837,-0.6985 -0.08254,-0.2185029 -0.119353,-0.2328333 -0.598053,-0.2328333 -0.539214,0 -0.656778,0.1061307 -0.298429,0.2694054 0.247737,0.1128768 0.27175,0.2118076 0.0635,0.261617 -0.159183,0.038073 -0.128536,0.058488 0.284702,0.1896461 0.110671,0.035126 0.116726,0.067204 0.03197,0.1693334 -0.108705,0.1309816 -0.06713,0.1572674 0.20312,0.1284287 0.125546,-0.013397 0.149549,0.022728 0.111578,0.1679285 -0.04487,0.1715849 -0.02649,0.1808908 0.253559,0.128354 0.2528935,-0.047443 0.2936491,-0.035046 0.2509132,0.076322 -0.067008,0.1746188 0.2231148,0.1800839 0.395744,0.00745 z m 0.7870649,-0.0021 c -0.040707,-0.1060798 0.01134,-0.1185398 0.3084416,-0.073841 0.2950946,0.044397 0.3389587,0.03417 0.2515781,-0.058653 C -8.262867,2.8064634 -8.21927,2.7135784 -7.9947642,2.7699256 c 0.1135628,0.028503 0.2301113,0.013583 0.2589968,-0.033155 0.028885,-0.046738 0.01217,-0.084978 -0.037145,-0.084978 -0.049315,0 -0.089663,-0.05715 -0.089663,-0.127 0,-0.079022 0.079963,-0.127 0.2116667,-0.127 0.2488837,0 0.2683781,-0.066672 0.0635,-0.2171745 -0.1365445,-0.1003045 -0.1305483,-0.1155699 0.076442,-0.1946114 0.447452,-0.1708639 0.3674258,-0.2752881 -0.1905304,-0.2486185 -0.525777,0.025132 -0.5333625,0.029043 -0.7061158,0.3640711 -0.104904,0.203445 -0.2837654,0.3893748 -0.4479637,0.4656667 -0.2872181,0.1334509 -0.3643855,0.3867468 -0.175399,0.5757333 0.1506397,0.1506397 0.4357566,0.1308903 0.375547,-0.026013 z M -9.096171,1.7955331 c -0.072145,-0.1167333 -0.2904044,-0.088312 -0.2904044,0.037816 0,0.062089 0.02507,0.1379583 0.05571,0.1685987 0.076567,0.076567 0.2923142,-0.1131836 0.2346944,-0.2064147 z m 0.1732372,3.8978794 c -0.030673,-0.096643 -0.031169,-0.2003142 -0.0011,-0.2303813 0.063454,-0.063454 0.2115938,0.1448886 0.2134971,0.3002619 0.0021,0.1715932 -0.1518285,0.1209482 -0.2123952,-0.069881 z M -9.9407572,4.3913083 C -10.170958,4.1611073 -10.189951,4.0726393 -10.06093,3.8315604 -10.006094,3.729098 -9.8872401,3.6694555 -9.7434298,3.6722341 l 0.2298544,0.00444 -0.1905,0.132886 c -0.2356191,0.1643595 -0.2431561,0.3319129 -0.021167,0.4705476 0.1785378,0.1114987 0.2311096,0.3190178 0.080818,0.3190178 -0.048683,0 -0.1820333,-0.093518 -0.2963333,-0.2078181 z"
         id="path1089" />
      <path
         style="fill:#a1a1a1;fill-opacity:1;stroke-width:0.0846667"
         d="m -9.7610968,5.7949424 c -0.036256,-0.058663 0.045708,-0.2001726 0.1987429,-0.3431287 0.3515302,-0.3283783 0.370217,-0.8309247 0.022702,-0.6105262 -0.071984,0.045653 -0.090996,0.1489127 -0.054321,0.2950368 0.066441,0.2647225 -0.081076,0.3074559 -0.2126529,0.061602 -0.1186375,-0.221676 -0.030717,-0.4109314 0.2609775,-0.5617724 0.2337292,-0.120866 0.24374,-0.1506674 0.24374,-0.7255936 0,-0.5386958 -0.015039,-0.5931191 -0.1481667,-0.5361848 -0.315722,0.1350241 -0.589021,0.1368014 -0.721133,0.00469 -0.07403,-0.074033 -0.178358,-0.1346057 -0.231833,-0.1346057 -0.140602,0 -0.597588,-0.4782254 -0.777176,-0.8132978 -0.08471,-0.1580529 -0.134018,-0.2873689 -0.109571,-0.2873689 0.02445,0 -0.01777,-0.094956 -0.09381,-0.211013 -0.227753,-0.3475941 -0.109773,-0.4671447 0.44907,-0.4550499 0.635273,0.013749 0.853596,0.1020761 0.9624455,0.3893779 0.1088932,0.2874176 0.406228,0.6153517 0.5579338,0.6153517 0.1514306,0 0.1423544,-0.2082745 -0.014759,-0.3386667 -0.168909,-0.140182 -0.1618296,-0.4800942 0.012025,-0.5773884 0.1886375,-0.1055668 0.4377292,-0.02946 0.4950903,0.151269 0.054804,0.1726721 -0.025595,0.4261194 -0.1351741,0.4261194 -0.041585,0 -0.075608,0.0762 -0.075608,0.1693334 0,0.093133 0.0381,0.1693333 0.084667,0.1693333 0.1400874,0 0.43101,-0.3354194 0.5251514,-0.6054738 0.1085209,-0.3113031 0.351272,-0.4105262 1.0043604,-0.4105262 0.4510741,0 0.5024882,0.017863 0.5024882,0.1745763 0,0.2742336 -0.4249041,1.1180647 -0.6684048,1.3274074 -0.1213274,0.1043078 -0.3789516,0.2712039 -0.5724983,0.3708804 -0.2935966,0.1512022 -0.3953019,0.166101 -0.6138333,0.08992 l -0.2619303,-0.091309 v 0.5516345 c 0,0.532925 0.00646,0.5496538 0.1905,0.4932334 0.4110351,-0.1260099 0.5504609,-0.438083 0.2328333,-0.5211445 -0.210779,-0.05512 -0.2228978,-0.1938654 -0.016933,-0.1938654 0.3465504,0 0.4806417,0.453261 0.2072784,0.7006513 -0.081577,0.073826 -0.2530268,0.1740381 -0.381,0.2226934 -0.1936532,0.073627 -0.2326784,0.1390167 -0.2326784,0.389872 0,0.2751714 0.01474,0.2935192 0.1693333,0.2107833 0.1944078,-0.1040439 0.2105663,-0.1789004 0.069145,-0.3203222 -0.1412431,-0.1412431 -0.016016,-0.2345859 0.1404762,-0.1047092 0.2058071,0.1708047 0.1521356,0.4197684 -0.1244186,0.5771359 -0.1632354,0.092886 -0.2536553,0.2120437 -0.254,0.3347288 -2.945e-4,0.104775 -0.038635,0.1905 -0.085202,0.1905 -0.046567,0 -0.084667,-0.05715 -0.084667,-0.127 0,-0.1689516 -0.1676486,-0.1616685 -0.2952423,0.012826 -0.073839,0.100981 -0.119385,0.1120906 -0.1639458,0.03999 z M -9.3172046,2.9213208 C -9.2982794,2.7921156 -9.3490852,2.7139841 -9.4865379,2.6609127 -9.7385682,2.563602 -10.028353,2.2502036 -10.14084,1.9532931 c -0.08277,-0.2184749 -0.119667,-0.2328333 -0.598306,-0.2328333 -0.539214,0 -0.656778,0.1061307 -0.298429,0.2694054 0.247737,0.1128768 0.27175,0.2118076 0.0635,0.261617 -0.160241,0.038327 -0.138208,0.052802 0.296333,0.1946912 0.14052,0.045883 0.140392,0.054105 -0.0025,0.15932 -0.130126,0.095823 -0.133011,0.1177108 -0.02117,0.1606292 0.07122,0.027329 0.192762,0.025409 0.270098,-0.00427 0.113098,-0.0434 0.130691,-0.016032 0.08992,0.1398829 -0.0472,0.1804995 -0.03037,0.1905416 0.244624,0.1459167 0.2653174,-0.043055 0.2899104,-0.030893 0.2421052,0.1197277 -0.050387,0.1587563 -0.038259,0.1615728 0.2285992,0.053089 0.1780576,-0.072385 0.2917637,-0.1825208 0.308847,-0.2991502 z m 0.7248236,0.2002479 c -0.038006,-0.099042 0.015912,-0.1133328 0.277824,-0.07364 0.2682058,0.040647 0.306492,0.029575 0.2191483,-0.063376 -0.1674135,-0.1781597 -0.1238868,-0.2709816 0.1006445,-0.2146279 0.1135628,0.028502 0.2301113,0.013583 0.2589968,-0.033155 0.028885,-0.046737 0.01217,-0.084977 -0.037145,-0.084977 -0.049315,0 -0.089663,-0.05715 -0.089663,-0.127 0,-0.079022 0.079963,-0.127 0.2116667,-0.127 0.248827,0 0.2684463,-0.066814 0.063602,-0.2165996 -0.1356211,-0.099169 -0.1290206,-0.1130469 0.078541,-0.1651414 0.1246325,-0.031281 0.2472158,-0.1105858 0.2724071,-0.1762332 0.036397,-0.094848 -0.062769,-0.1193591 -0.4828983,-0.1193591 h -0.5287006 l -0.1671421,0.3598333 c -0.1094279,0.2355827 -0.2615246,0.4036866 -0.4404765,0.4868334 -0.4226774,0.1963896 -0.3386942,0.6773333 0.1182771,0.6773333 0.1330953,0 0.1775953,-0.037736 0.144918,-0.1228908 z m -0.50379,-1.3260356 c -0.072145,-0.1167333 -0.2904044,-0.088312 -0.2904044,0.037816 0,0.062089 0.02507,0.1379583 0.05571,0.1685987 0.076567,0.076567 0.2923142,-0.1131836 0.2346944,-0.2064147 z m 0.1843207,3.9396687 c -0.089638,-0.2335937 -0.059029,-0.3164812 0.075608,-0.204742 0.1385968,0.115025 0.1725338,0.3386666 0.051392,0.3386666 -0.041585,0 -0.098735,-0.060266 -0.127,-0.1339246 z M -9.8252612,4.4656301 c -0.4344378,-0.229293 -0.3753448,-0.802229 0.081831,-0.793396 l 0.2298544,0.00444 -0.1905,0.132886 c -0.2382757,0.1662127 -0.2420808,0.3205016 -0.011881,0.4817401 0.2569689,0.179988 0.1685627,0.3209855 -0.1093051,0.174329 z"
         id="path1087" />
      <path
         style="fill:#939393;fill-opacity:1;stroke-width:0.0846667"
         d="m -9.7208011,5.7306973 c -0.00253,-0.1027943 0.086857,-0.2405833 0.2072257,-0.3194518 0.147318,-0.096526 0.2116667,-0.2153144 0.2116667,-0.3907376 0,-0.2613699 -0.049444,-0.2986425 -0.2377432,-0.1792204 -0.071984,0.045653 -0.090996,0.1489127 -0.054321,0.2950368 0.070271,0.2799822 -0.1054196,0.3090205 -0.2075384,0.034302 -0.095378,-0.2565842 -0.034139,-0.3845064 0.255863,-0.5344723 0.2335334,-0.1207648 0.24374,-0.1510086 0.24374,-0.7222407 0,-0.5281319 -0.016916,-0.5911725 -0.1481667,-0.5521797 -0.4700498,0.1396451 -0.596056,0.1424088 -0.722615,0.01585 -0.07322,-0.073218 -0.175833,-0.1331238 -0.228034,-0.1331238 -0.0522,0 -0.232217,-0.13335 -0.400036,-0.2963333 -0.167818,-0.1629834 -0.274325,-0.2963334 -0.236681,-0.2963334 0.03764,0 0.0025,-0.072858 -0.07808,-0.1619072 -0.08059,-0.089049 -0.155001,-0.2128739 -0.165361,-0.2751667 -0.01036,-0.062293 -0.0671,-0.2010966 -0.126089,-0.3084532 -0.167907,-0.3055815 -0.08321,-0.3790288 0.458257,-0.3973832 0.635232,-0.021533 0.864631,0.06261 0.9766305,0.3582253 0.1088932,0.2874176 0.406228,0.6153517 0.5579338,0.6153517 0.1532388,0 0.1416177,-0.2088859 -0.019039,-0.3422192 -0.073055,-0.06063 -0.1199942,-0.206046 -0.1058333,-0.327867 0.019081,-0.1641475 0.080213,-0.22528 0.244361,-0.244361 0.1204026,-0.013996 0.2664254,0.031801 0.324495,0.1017703 0.111198,0.1339854 0.051338,0.4740102 -0.083448,0.4740102 -0.043429,0 -0.078961,0.0762 -0.078961,0.1693334 0,0.093133 0.039919,0.1693333 0.088709,0.1693333 0.1300553,0 0.4696332,-0.3900642 0.5876785,-0.6750508 0.1197401,-0.2890782 0.182352,-0.307886 0.8995875,-0.2702248 0.4600276,0.024155 0.5406913,0.05183 0.5406913,0.1855032 0,0.086412 -0.0381,0.1806593 -0.084667,0.2094391 -0.046567,0.02878 -0.084667,0.1235568 -0.084667,0.2106158 0,0.087059 -0.05715,0.2154389 -0.127,0.2852889 -0.06985,0.06985 -0.127,0.1797064 -0.127,0.2441254 0,0.1256928 -0.3761144,0.4337288 -0.830198,0.6799283 -0.2211383,0.1198989 -0.3410612,0.1348427 -0.5715,0.071215 L -9.1325754,3.342776 v 0.5435085 c 0,0.5861177 0.063383,0.6506312 0.4044945,0.4117077 0.2339698,-0.1638789 0.2432,-0.3776619 0.018839,-0.4363337 -0.210779,-0.05512 -0.2228978,-0.1938654 -0.016933,-0.1938654 0.3465504,0 0.4806417,0.453261 0.2072784,0.7006513 -0.081577,0.073826 -0.2530268,0.1740381 -0.381,0.2226934 -0.1936532,0.073627 -0.2326784,0.1390167 -0.2326784,0.389872 0,0.2751714 0.01474,0.2935192 0.1693333,0.2107833 0.1944078,-0.1040439 0.2105663,-0.1789004 0.069145,-0.3203222 -0.1412431,-0.1412431 -0.016016,-0.2345859 0.1404762,-0.1047092 0.2058071,0.1708047 0.1521356,0.4197684 -0.1244186,0.5771359 -0.1394057,0.079326 -0.2537057,0.2086552 -0.254,0.2873987 -2.945e-4,0.078743 -0.038635,0.166717 -0.085202,0.1954968 -0.046567,0.02878 -0.084667,-0.026122 -0.084667,-0.1220032 0,-0.2280947 -0.1158147,-0.2214437 -0.2815654,0.01617 -0.1328217,0.1904078 -0.1328883,0.1904125 -0.137327,0.00974 z m 0.4035965,-2.8093765 c 0.018925,-0.1292052 -0.031881,-0.2073367 -0.1693333,-0.2604081 -0.249699,-0.09641 -0.5415441,-0.4099861 -0.6513461,-0.6998447 -0.07738,-0.2042743 -0.13265,-0.2277312 -0.598461,-0.254 -0.556967,-0.031409 -0.698734,0.1016823 -0.30123,0.2827972 0.247737,0.1128768 0.27175,0.2118076 0.0635,0.261617 -0.160241,0.038327 -0.138208,0.052802 0.296333,0.1946912 0.139928,0.04569 0.139647,0.054653 -0.0051,0.1612052 -0.188681,0.1389251 -0.05062,0.2495503 0.208719,0.1672399 0.155649,-0.049401 0.174049,-0.030964 0.131495,0.1317605 -0.04576,0.1749957 -0.02731,0.1856012 0.245839,0.1412757 0.2653165,-0.043055 0.2899094,-0.030893 0.2421043,0.1197278 -0.050387,0.1587562 -0.038259,0.1615728 0.2285992,0.053088 0.1780576,-0.072385 0.2917637,-0.1825207 0.3088469,-0.2991502 z m 0.736434,0.2431082 c -0.047152,-0.1485622 -0.020753,-0.1599239 0.2694611,-0.1159732 0.265485,0.040206 0.3032311,0.029033 0.2159008,-0.063903 -0.164513,-0.1750731 -0.125414,-0.2562339 0.096597,-0.2005129 0.1113365,0.027944 0.227885,0.00962 0.2589967,-0.04072 0.031112,-0.05034 0.016218,-0.091527 -0.033097,-0.091527 -0.049315,0 -0.089663,-0.05715 -0.089663,-0.127 0,-0.079022 0.079963,-0.127 0.2116667,-0.127 0.248827,0 0.2684463,-0.066814 0.063602,-0.2165996 -0.1356211,-0.099169 -0.1290206,-0.1130469 0.078541,-0.1651414 0.1246325,-0.031281 0.2472158,-0.1105858 0.2724071,-0.1762332 0.036385,-0.094817 -0.062476,-0.1193591 -0.4807986,-0.1193591 h -0.5266009 l -0.1710304,0.3598333 c -0.1112557,0.2340725 -0.2669901,0.4042195 -0.4455954,0.4868334 -0.2150216,0.099458 -0.2697173,0.1724776 -0.2522115,0.3367048 0.013276,0.1245471 0.108308,0.2529718 0.2340203,0.3162519 0.2933819,0.1476801 0.3584794,0.1355146 0.2978041,-0.055654 z M -9.0479087,1.8780775 c 0,-0.096067 -0.2426394,-0.1972005 -0.3104445,-0.1293955 -0.027028,0.027028 -0.026827,0.1072923 4.487e-4,0.1783656 0.051331,0.1337715 0.3099958,0.092911 0.3099958,-0.04897 z m 0.1360584,3.8571243 c -0.089638,-0.2335937 -0.059029,-0.3164812 0.075608,-0.204742 0.1385968,0.115025 0.1725338,0.3386666 0.051392,0.3386666 -0.041585,0 -0.098735,-0.060266 -0.127,-0.1339246 z M -9.8210361,4.4712926 C -10.09775,4.3209413 -10.167232,4.1512217 -10.063629,3.8787245 c 0.05691,-0.1496804 0.1437198,-0.2109314 0.2989548,-0.2109314 0.1242795,0 0.1961596,0.036567 0.1664322,0.084667 -0.02878,0.046567 -0.1072283,0.084667 -0.1743301,0.084667 -0.1932967,0 -0.15241,0.4022717 0.04733,0.4656667 0.093133,0.029559 0.1693333,0.1083269 0.1693333,0.1750389 0,0.1444482 0.013364,0.1447778 -0.2651273,-0.00654 z"
         id="path1085" />
      <path
         style="fill:#858585;fill-opacity:1;stroke-width:0.0846667"
         d="m -9.7208011,5.7306973 c -0.00253,-0.1027943 0.086857,-0.2405833 0.2072257,-0.3194518 0.2610446,-0.1710431 0.3122423,-0.6753623 0.0635,-0.625502 -0.098661,0.019777 -0.1470515,0.1067174 -0.144829,0.2602081 0.0038,0.2627308 -0.08835,0.3005609 -0.2005846,0.082341 -0.1067684,-0.2075923 -0.038557,-0.3430031 0.2472297,-0.490789 0.2366392,-0.1223709 0.2463506,-0.1508955 0.2463506,-0.7235907 0,-0.5281319 -0.016916,-0.5911725 -0.1481667,-0.5521797 -0.4700498,0.1396451 -0.5960556,0.1424088 -0.7226146,0.01585 -0.07322,-0.073218 -0.167083,-0.1331238 -0.208589,-0.1331238 -0.100158,0 -0.613963,-0.461296 -0.613963,-0.5512189 0,-0.038746 -0.06003,-0.1367809 -0.133402,-0.2178549 -0.07337,-0.081074 -0.141878,-0.198374 -0.152238,-0.2606668 -0.01036,-0.062293 -0.06463,-0.1964796 -0.120599,-0.2981933 -0.189266,-0.3439592 -0.138558,-0.3735448 0.595863,-0.3476568 0.683045,0.024077 0.700082,0.029899 0.8152895,0.2785907 0.1505303,0.3249421 0.4318667,0.635 0.5761784,0.635 0.1532388,0 0.1416177,-0.2088859 -0.019039,-0.3422192 -0.073055,-0.06063 -0.1199942,-0.206046 -0.1058333,-0.327867 0.019081,-0.1641475 0.080213,-0.22528 0.244361,-0.244361 0.1204026,-0.013996 0.2664254,0.031801 0.324495,0.1017703 0.111198,0.1339854 0.051338,0.4740102 -0.083448,0.4740102 -0.043429,0 -0.078961,0.0762 -0.078961,0.1693334 0,0.093133 0.039832,0.1693333 0.088515,0.1693333 0.1230872,0 0.4336644,-0.3389948 0.606047,-0.6615002 0.1425831,-0.2667544 0.1515188,-0.2698331 0.7831666,-0.2698331 0.5760177,0 0.6389379,0.016183 0.6389379,0.1643365 0,0.090385 -0.0381,0.1878837 -0.084667,0.2166635 -0.046567,0.02878 -0.084667,0.1235568 -0.084667,0.2106158 0,0.087059 -0.05715,0.2154389 -0.127,0.2852889 -0.06985,0.06985 -0.127,0.1683585 -0.127,0.2189078 0,0.1401738 -0.5306534,0.5922274 -0.6985,0.595039 -0.081492,0.00136 -0.1481666,0.038014 -0.1481666,0.081443 0,0.1314938 -0.2838124,0.1789505 -0.5734413,0.095886 l -0.2732254,-0.07836 V 3.88537 c 0,0.5870766 0.063274,0.6516222 0.4044945,0.4126222 0.2339698,-0.1638789 0.2432,-0.3776619 0.018839,-0.4363337 -0.210779,-0.05512 -0.2228978,-0.1938654 -0.016933,-0.1938654 0.2047277,0 0.3556,0.1632659 0.3556,0.384811 0,0.2014734 -0.1771106,0.3783058 -0.5291667,0.5283359 -0.1917581,0.081718 -0.2328333,0.152346 -0.2328333,0.4003502 0,0.274891 0.014754,0.2932315 0.1693333,0.2105029 0.1944078,-0.1040439 0.2105663,-0.1789004 0.069145,-0.3203222 -0.055104,-0.055104 -0.073247,-0.1271311 -0.040318,-0.1600604 0.032929,-0.032929 0.1228712,0.00313 0.1998708,0.080128 0.1132199,0.1132198 0.1219192,0.1796815 0.045479,0.3474501 -0.051986,0.1140979 -0.1730433,0.2323728 -0.2690152,0.2628331 -0.095972,0.03046 -0.1744945,0.1267663 -0.1744945,0.2140135 0,0.087247 -0.0381,0.1821781 -0.084667,0.2109579 -0.046567,0.02878 -0.084667,-0.026122 -0.084667,-0.1220032 0,-0.2280947 -0.1158147,-0.2214437 -0.2815654,0.01617 -0.1328217,0.1904078 -0.1328883,0.1904125 -0.137327,0.00974 z M -9.407742,3.1377517 C -9.229254,2.9971663 -9.2897903,2.7515276 -9.5315814,2.6352464 -9.7360359,2.536921 -9.9045894,2.3359515 -10.19603,1.8430116 c -0.06835,-0.1156024 -0.206085,-0.1544938 -0.576809,-0.1628675 -0.574111,-0.012968 -0.669916,0.070857 -0.31309,0.273939 0.28494,0.1621686 0.3351,0.2743767 0.122653,0.2743767 -0.114302,0 -0.119132,0.021971 -0.02877,0.1308531 0.05973,0.071969 0.159644,0.1112649 0.222033,0.087324 0.06307,-0.024202 0.113436,0.01168 0.113436,0.080814 0,0.068388 -0.04035,0.1243427 -0.08966,0.1243427 -0.04931,0 -0.06421,0.041187 -0.0331,0.091527 0.03142,0.050842 0.149554,0.068189 0.265753,0.039025 0.18519,-0.04648 0.202439,-0.031247 0.150374,0.1327954 -0.05479,0.1726171 -0.03787,0.1818988 0.247245,0.1356316 0.3199045,-0.051913 0.3784684,0.00154 0.200222,0.1827459 -0.085367,0.086785 -0.056715,0.095989 0.1481666,0.047592 0.1397,-0.033 0.301625,-0.097511 0.3598334,-0.1433582 z m 0.8269714,0.026677 c -0.047152,-0.1485622 -0.020753,-0.1599239 0.2694611,-0.1159732 0.265485,0.040206 0.3032311,0.029033 0.2159008,-0.063903 -0.164513,-0.1750731 -0.125414,-0.2562339 0.096597,-0.2005129 0.2091861,0.052502 0.37557,-0.078991 0.2209033,-0.1745805 -0.1269486,-0.078459 -0.017237,-0.2116667 0.1743301,-0.2116667 0.2038373,0 0.2092727,-0.074221 0.01617,-0.2208067 C -7.7230894,2.07399 -7.723599,2.064285 -7.5934565,2.0618191 c 0.1687255,-0.0032 0.4276971,-0.2413387 0.3678146,-0.3382306 -0.033532,-0.054256 -0.4211245,-0.057435 -0.9910614,-0.00813 -0.031787,0.00275 -0.082774,0.083703 -0.1133045,0.1798964 -0.077284,0.2435005 -0.5413309,0.7564371 -0.6843384,0.7564371 -0.074171,0 -0.1182292,0.092025 -0.1182292,0.2469445 0,0.1923342 0.05149,0.26575 0.2328333,0.3319824 0.3394891,0.123992 0.3768973,0.1162175 0.3189715,-0.06629 z m -0.4671381,-1.273327 c 0,-0.035883 -0.053758,-0.1098565 -0.1194623,-0.1643862 -0.1416842,-0.1175874 -0.2615282,0.015328 -0.1875786,0.208038 0.046211,0.1204245 0.3070409,0.083342 0.3070409,-0.043652 z m 0.1340654,3.8389066 c -0.029362,-0.076515 -0.035973,-0.1565302 -0.014691,-0.1778116 0.067288,-0.067287 0.2192925,0.067828 0.2192925,0.1949265 0,0.1660758 -0.1387584,0.1544687 -0.2046015,-0.017115 z M -9.9308611,4.3814121 C -10.104608,4.2076653 -10.10405,3.78598 -9.9299841,3.7191849 c 0.1937232,-0.074339 0.2894087,-0.063337 0.2894087,0.033275 0,0.046567 -0.05715,0.084667 -0.127,0.084667 -0.197735,0 -0.1612765,0.4010434 0.042333,0.4656667 0.093133,0.029559 0.1693333,0.089277 0.1693333,0.1327055 0,0.1249465 -0.2289444,0.091921 -0.3749524,-0.054086 z"
         id="path1083" />
      <path
         style="fill:#787878;fill-opacity:1;stroke-width:0.0846667"
         d="m -9.7208011,5.7191446 c -0.0029,-0.1255353 0.069059,-0.2258038 0.2072257,-0.2887569 0.1642696,-0.074846 0.2116667,-0.1597545 0.2116667,-0.3791849 0,-0.2919829 -0.1332648,-0.3696115 -0.3177706,-0.1851058 -0.067176,0.067176 -0.07153,0.1464199 -0.013954,0.254 0.054049,0.1009906 0.054415,0.1563628 0.00103,0.1563628 -0.2807358,0 -0.1883672,-0.521871 0.1169943,-0.661003 0.1990298,-0.090684 0.2136967,-0.1382793 0.2136967,-0.6934616 V 3.3259003 l -0.2328333,0.061691 c -0.3198409,0.084744 -0.6447004,0.060604 -0.6817894,-0.050664 -0.01695,-0.050857 -0.07923,-0.092467 -0.138403,-0.092467 -0.204946,0 -0.688705,-0.526767 -0.855295,-0.9313333 -0.02876,-0.06985 -0.106457,-0.2281285 -0.172654,-0.3517301 -0.204544,-0.3819167 -0.166202,-0.4102699 0.5548,-0.4102699 h 0.675159 l 0.139078,0.2751666 c 0.1779962,0.3521656 0.4558344,0.6561667 0.5996963,0.6561667 0.1532388,0 0.1416177,-0.2088859 -0.019039,-0.3422192 -0.073055,-0.06063 -0.1199942,-0.206046 -0.1058333,-0.327867 0.020818,-0.1790911 0.069974,-0.2189138 0.2702197,-0.2189138 0.3305047,0 0.4757707,0.2308091 0.280835,0.4462107 -0.1758535,0.1943157 -0.1891823,0.4427893 -0.023753,0.4427893 0.1297861,0 0.341876,-0.2473162 0.5737073,-0.6689949 0.1415266,-0.2574235 0.1561991,-0.2623384 0.7831666,-0.2623384 0.568604,0 0.6389379,0.017499 0.6389379,0.1589663 0,0.087432 -0.054885,0.2045172 -0.1219674,0.2601902 -0.067082,0.055673 -0.1029909,0.1506758 -0.079798,0.2111169 0.023194,0.060441 -0.017171,0.1692341 -0.089699,0.2417622 -0.072528,0.072528 -0.1318692,0.1591132 -0.1318692,0.1924116 0,0.1082189 -0.5471186,0.6270571 -0.6622143,0.6279846 -0.061534,4.995e-4 -0.1703242,0.059345 -0.2417548,0.1307754 -0.079036,0.079036 -0.2009511,0.1095483 -0.3114524,0.077949 -0.5132541,-0.1467733 -0.4779118,-0.1779418 -0.4779118,0.421472 0,0.5992594 0.061911,0.6641925 0.4044945,0.4242379 0.2403351,-0.1683373 0.2395584,-0.3427402 -0.0021,-0.4720732 -0.1089069,-0.058285 -0.1471203,-0.1162165 -0.089361,-0.1354698 0.1609892,-0.053663 0.4489684,0.1388608 0.4489684,0.3001506 0,0.2423083 -0.2372885,0.506735 -0.5081051,0.5662164 -0.2294262,0.05039 -0.2538949,0.087755 -0.2538949,0.3877041 0,0.3504194 0.079816,0.4148186 0.254,0.2049395 0.084166,-0.1014137 0.083824,-0.1529986 -0.0017,-0.2560461 -0.1478807,-0.1781852 -0.025528,-0.2731324 0.1394159,-0.1081885 0.1767378,0.1767379 0.079477,0.477229 -0.187296,0.5786557 -0.1204306,0.045788 -0.2044215,0.1461031 -0.2044215,0.2441532 0,0.091538 -0.0381,0.1899792 -0.084667,0.218759 -0.046567,0.02878 -0.084667,-0.026122 -0.084667,-0.1220032 0,-0.2280947 -0.1158147,-0.2214437 -0.2815654,0.01617 l -0.1328861,0.1905 -0.00444,-0.1923152 z M -9.4082157,3.1426194 C -9.219337,2.9858641 -9.2947998,2.7573803 -9.5936963,2.581027 -9.7541794,2.4863396 -9.9645038,2.2539762 -10.061084,2.0646639 c -0.09658,-0.1893123 -0.18435,-0.3465821 -0.195045,-0.3494886 -0.194022,-0.052725 -0.861345,-0.083084 -0.963619,-0.043838 -0.124278,0.04769 -0.122918,0.068446 0.01444,0.2202208 0.08341,0.092162 0.202892,0.1675681 0.265525,0.1675681 0.06263,0 0.113877,0.0381 0.113877,0.084667 0,0.046567 -0.06182,0.084667 -0.137367,0.084667 -0.112504,0 -0.11829,0.022986 -0.03197,0.127 0.05797,0.06985 0.162551,0.127 0.232401,0.127 0.09973,0 0.105709,0.025654 0.02786,0.1194623 -0.126354,0.1522467 0.01308,0.2513514 0.248502,0.1766306 0.190661,-0.060514 0.220725,0.038039 0.06274,0.2056708 -0.08727,0.092596 -0.0427,0.104407 0.254,0.067323 0.3742939,-0.046781 0.433091,-0.00351 0.254,0.1869109 -0.087185,0.092703 -0.061161,0.1019464 0.147693,0.05246 0.1394395,-0.033039 0.3013645,-0.099773 0.3598333,-0.1482982 z m 0.8274451,0.02181 c -0.047259,-0.1489002 -0.021413,-0.159732 0.2694611,-0.1129297 0.2929862,0.047142 0.3113513,0.039163 0.2055338,-0.089303 -0.1084995,-0.1317213 -0.072665,-0.1806086 0.1076662,-0.1468857 0.041873,0.00783 0.1318888,-0.00716 0.2000355,-0.033309 0.09967,-0.038247 0.103451,-0.072189 0.019334,-0.1735442 -0.083933,-0.1011333 -0.081638,-0.126254 0.011631,-0.1272946 0.06391,-7.112e-4 0.1733504,-0.038813 0.2432004,-0.084667 0.1128888,-0.074107 0.1128888,-0.093494 0,-0.1744826 -0.082624,-0.059276 -0.094215,-0.1047191 -0.033173,-0.1300533 0.2289096,-0.095004 0.39276,-0.2691546 0.3374448,-0.3586566 -0.091856,-0.1486267 -0.8605644,-0.1217895 -1.0178905,0.035537 -0.073176,0.073176 -0.1330477,0.1671004 -0.1330477,0.2087205 0,0.1301277 -0.5195222,0.6742318 -0.6437708,0.6742318 -0.074171,0 -0.1182292,0.092025 -0.1182292,0.2469445 0,0.1923342 0.05149,0.26575 0.2328333,0.3319824 0.3394891,0.123992 0.3768973,0.1162175 0.3189711,-0.066291 z M -9.0752474,1.9235815 c 0.053452,-0.1392935 -0.1231439,-0.3094323 -0.2437855,-0.2348717 -0.037148,0.022959 -0.067543,0.115695 -0.067543,0.2060801 0,0.1981027 0.2379142,0.2201049 0.3113285,0.028792 z m 0.1736031,3.781807 c -0.02516,-0.096211 -0.01346,-0.1749287 0.025999,-0.1749287 0.1213292,0 0.1902697,0.1793339 0.1026311,0.2669725 -0.054069,0.054069 -0.098789,0.022068 -0.1286301,-0.092044 z M -9.9237864,4.3596264 c -0.1646086,-0.1818903 -0.1819016,-0.4468539 -0.038522,-0.5902333 0.1232902,-0.1232902 0.3217333,-0.1337346 0.3217333,-0.016933 0,0.046567 -0.05715,0.084667 -0.127,0.084667 -0.197735,0 -0.1612765,0.4010434 0.042333,0.4656667 0.093133,0.029559 0.1693333,0.089277 0.1693333,0.1327055 0,0.1330998 -0.2197825,0.087771 -0.3678776,-0.075873 z"
         id="path1081" />
      <path
         style="fill:#6a6a6a;fill-opacity:1;stroke-width:0.0846667"
         d="m -9.3019087,5.7047899 c 0,-0.2019306 -0.1517207,-0.2340771 -0.2233823,-0.04733 -0.063405,0.1652301 -0.199951,0.1639906 -0.199951,-0.00182 0,-0.070848 0.09525,-0.172214 0.2116666,-0.2252569 0.1642696,-0.074846 0.2116667,-0.1597545 0.2116667,-0.3791849 0,-0.2919829 -0.1332648,-0.3696115 -0.3177706,-0.1851058 -0.067176,0.067176 -0.07153,0.1464199 -0.013954,0.254 0.054049,0.1009906 0.054415,0.1563628 0.00103,0.1563628 -0.2807358,0 -0.1883672,-0.521871 0.1169943,-0.661003 0.1982271,-0.090318 0.2136967,-0.1393736 0.2136967,-0.6776476 V 3.3575283 l -0.4656667,0.038617 c -0.284069,0.023557 -0.465667,0.00509 -0.465667,-0.047356 0,-0.047285 -0.09525,-0.1098786 -0.211667,-0.1390974 -0.116416,-0.029219 -0.211666,-0.1095491 -0.211666,-0.1785118 0,-0.068963 -0.05809,-0.125387 -0.129096,-0.125387 -0.071,0 -0.166161,-0.085725 -0.211464,-0.1905 -0.0453,-0.104775 -0.11739,-0.24765 -0.160192,-0.3175 -0.0995,-0.1623749 -0.345915,-0.7293842 -0.345915,-0.7959622 0,-0.027887 0.305617,-0.050704 0.679148,-0.050704 0.660488,0 0.681864,0.0064 0.777973,0.2328333 0.1266888,0.2984845 0.4892243,0.6985 0.6330531,0.6985 0.1505297,0 0.1407684,-0.2086928 -0.01584,-0.3386667 -0.2147838,-0.1782546 -0.1592707,-0.4966744 0.09784,-0.5612051 0.3219317,-0.0808 0.5054433,0.1714491 0.3250368,0.4467843 -0.1599309,0.2440853 -0.1625549,0.4530875 -0.00569,0.4530875 0.1297861,0 0.341876,-0.2473162 0.5737073,-0.6689949 0.1415266,-0.2574235 0.1561991,-0.2623384 0.7831666,-0.2623384 0.568604,0 0.6389379,0.017499 0.6389379,0.1589663 0,0.087432 -0.054885,0.2045172 -0.1219674,0.2601902 -0.067082,0.055673 -0.1034482,0.1494842 -0.080814,0.2084689 0.022635,0.058985 -0.01773,0.1561143 -0.089699,0.2158435 -0.071969,0.059729 -0.1308531,0.1477094 -0.1308531,0.1955118 0,0.134651 -0.5682425,0.6543526 -0.71547,0.6543526 -0.072158,0 -0.1311966,0.042947 -0.1311966,0.095439 0,0.063506 -0.1416442,0.081829 -0.4233334,0.054762 l -0.4233333,-0.040677 v 0.537905 c 0,0.5802429 0.064058,0.6445553 0.4044945,0.4061039 0.2394101,-0.1676894 0.2386827,-0.3203108 -0.00233,-0.4884312 -0.1527993,-0.1065874 -0.1623741,-0.1337649 -0.048381,-0.1373269 0.1720939,-0.00538 0.4082143,0.2159308 0.4082143,0.3826067 0,0.1711405 -0.2955746,0.4455774 -0.5481797,0.5089773 -0.1828264,0.045886 -0.2138203,0.1014257 -0.2138203,0.3831535 0,0.3481413 0.080114,0.4120079 0.254,0.2024882 0.084166,-0.1014137 0.083824,-0.1529986 -0.0017,-0.2560461 -0.1478807,-0.1781852 -0.025528,-0.2731324 0.1394159,-0.1081885 0.1767378,0.1767379 0.079477,0.477229 -0.187296,0.5786557 -0.1204306,0.045788 -0.2044215,0.1461031 -0.2044215,0.2441532 0,0.091538 -0.0381,0.1899792 -0.084667,0.218759 -0.046567,0.02878 -0.084667,-0.026122 -0.084667,-0.1220032 z m -0.106307,-2.5621705 c 0.1875132,-0.1556221 0.1142129,-0.384769 -0.1782867,-0.5573479 -0.1565265,-0.092353 -0.3761697,-0.3342413 -0.4880956,-0.5375297 -0.203247,-0.3691509 -0.204166,-0.369647 -0.731407,-0.394822 -0.304156,-0.014523 -0.527904,0.00983 -0.527904,0.057452 0,0.1311481 0.252455,0.348496 0.408215,0.351447 0.131528,0.00249 0.131297,0.010914 -0.0031,0.1130129 -0.11054,0.083974 -0.12166,0.1338801 -0.04657,0.208974 0.05426,0.05426 0.152848,0.098654 0.219087,0.098654 0.09703,0 0.10011,0.024488 0.01586,0.1259981 -0.08469,0.1020401 -0.07861,0.1359606 0.03197,0.1783918 0.07509,0.028816 0.193685,0.030463 0.263535,0.00366 0.154442,-0.059265 0.165366,0.040709 0.02117,0.1937147 -0.08726,0.092591 -0.04294,0.1044388 0.252564,0.067516 0.3398054,-0.042458 0.3536069,-0.03583 0.2660511,0.1277694 -0.085401,0.1595729 -0.074185,0.1679923 0.149129,0.1119441 0.1328114,-0.033334 0.2893134,-0.1003086 0.3477822,-0.1488334 z m 0.8274451,0.02181 c -0.047031,-0.1481825 -0.021159,-0.1596483 0.2580167,-0.1143442 0.2846911,0.046199 0.3057081,0.035918 0.2547557,-0.1246191 -0.045325,-0.1428073 -0.025523,-0.1671241 0.1077223,-0.1322797 0.1856132,0.048539 0.3200263,-0.098648 0.1730433,-0.1894886 -0.059189,-0.036581 0.014236,-0.1095996 0.1891189,-0.188073 0.2144699,-0.096237 0.2488642,-0.1371814 0.137705,-0.1639288 -0.2082207,-0.050102 -0.1842481,-0.1489488 0.0635,-0.2618304 0.1164166,-0.053043 0.2116666,-0.1544086 0.2116666,-0.2252569 0,-0.099582 -0.1049188,-0.1288152 -0.4623285,-0.1288152 -0.4869671,0 -0.5429119,0.033781 -0.8144589,0.4917854 -0.091344,0.1540653 -0.2793439,0.3445653 -0.4177776,0.4233333 -0.3199761,0.1820647 -0.3552232,0.5731561 -0.062268,0.6909096 0.3145831,0.126447 0.4189082,0.1041003 0.3613045,-0.077392 z M -9.0752474,1.9235815 c 0.053452,-0.1392935 -0.1231439,-0.3094323 -0.2437855,-0.2348717 -0.037148,0.022959 -0.067543,0.115695 -0.067543,0.2060801 0,0.1981027 0.2379142,0.2201049 0.3113285,0.028792 z m 0.1660543,3.7338783 c -0.026804,-0.06985 -0.015906,-0.127 0.024217,-0.127 0.040123,0 0.094881,0.05715 0.1216854,0.127 0.026804,0.06985 0.015907,0.127 -0.024216,0.127 -0.040123,0 -0.094881,-0.05715 -0.1216864,-0.127 z M -9.9237864,4.3596264 c -0.1646086,-0.1818903 -0.1819016,-0.4468539 -0.038522,-0.5902333 0.1232902,-0.1232902 0.3217333,-0.1337346 0.3217333,-0.016933 0,0.046567 -0.053975,0.084667 -0.1199444,0.084667 -0.065969,0 -0.1370211,0.047625 -0.1578925,0.1058334 -0.054728,0.1526306 0.093245,0.4021666 0.2384825,0.4021666 0.068212,0 0.1240211,0.0381 0.1240211,0.084667 0,0.1379756 -0.2169616,0.096594 -0.367878,-0.070168 z"
         id="path1079" />
      <path
         style="fill:#5c5c5c;fill-opacity:1;stroke-width:0.0846667"
         d="m -9.725242,5.6687669 c 0,-0.078066 0.09525,-0.1853363 0.2116666,-0.2383792 0.1642696,-0.074846 0.2116667,-0.1597545 0.2116667,-0.3791849 0,-0.2919829 -0.1332648,-0.3696115 -0.3177706,-0.1851058 -0.069883,0.069883 -0.07236,0.1448692 -0.00871,0.2637961 0.069157,0.1292211 0.063571,0.157716 -0.025129,0.1281801 -0.274148,-0.091288 -0.069349,-0.6589468 0.237734,-0.6589468 0.085038,0 0.1138777,-0.1572156 0.1138777,-0.6207991 v -0.620799 l -0.4656667,0.038617 c -0.2840687,0.023557 -0.4656667,0.00509 -0.4656667,-0.047356 0,-0.047285 -0.09525,-0.1098786 -0.211667,-0.1390974 -0.116416,-0.029219 -0.211666,-0.1069816 -0.211666,-0.1728063 0,-0.065825 -0.0762,-0.1438665 -0.169334,-0.1734258 -0.09313,-0.029559 -0.169333,-0.1007069 -0.169333,-0.1581055 0,-0.057399 -0.0445,-0.1488572 -0.09888,-0.2032413 -0.05438,-0.054384 -0.144488,-0.223929 -0.200232,-0.3767666 -0.05574,-0.1528377 -0.129623,-0.3445616 -0.164178,-0.4260533 -0.0566,-0.1334764 -2.72e-4,-0.1481666 0.568109,-0.1481666 0.503715,0 0.659191,0.03122 0.771059,0.1548334 0.07707,0.085158 0.1401221,0.1965276 0.1401221,0.2474872 0,0.1393488 0.5106421,0.6220399 0.59978,0.5669498 0.1234993,-0.076327 0.089809,-0.353784 -0.049447,-0.4072214 -0.1523954,-0.05848 -0.1667709,-0.3190781 -0.0254,-0.460449 0.2854457,-0.2854457 0.6719621,0.062003 0.4389895,0.3946182 -0.07078,0.1010523 -0.1162287,0.2688678 -0.1009975,0.3729233 0.027005,0.1844883 0.033988,0.1827888 0.2808839,-0.06836 0.1392549,-0.1416536 0.3180937,-0.3797786 0.3974196,-0.5291667 0.1428257,-0.2689724 0.1504443,-0.2716147 0.7831666,-0.2716147 0.568604,0 0.6389379,0.017499 0.6389379,0.1589663 0,0.087432 -0.056731,0.2060485 -0.1260679,0.2635933 -0.069337,0.057545 -0.1034455,0.1412305 -0.075796,0.1859681 0.027649,0.044738 -0.036562,0.1737705 -0.1426908,0.28674 -0.1061293,0.1129693 -0.157746,0.2054287 -0.1147037,0.2054651 0.043042,3.64e-5 -0.071537,0.1333864 -0.2546214,0.2963334 -0.1830839,0.1629469 -0.3831089,0.2962671 -0.4445,0.2962671 -0.061391,0 -0.11162,0.04343 -0.11162,0.096512 0,0.06581 -0.1414028,0.081913 -0.4445,0.050622 l -0.4445,-0.04589 0.01695,0.4785452 c 0.00932,0.2631997 0.018847,0.5271484 0.021167,0.5865526 0.00321,0.082299 0.065713,0.076207 0.2625726,-0.025594 0.3547041,-0.1834246 0.4060533,-0.3655798 0.1570264,-0.557032 -0.1598451,-0.1228891 -0.1731101,-0.1570223 -0.061597,-0.1584994 0.173043,-0.00229 0.4082143,0.2196003 0.4082143,0.385165 0,0.1711405 -0.2955746,0.4455774 -0.5481797,0.5089773 -0.1828264,0.045886 -0.2138203,0.1014257 -0.2138203,0.3831535 0,0.3515938 0.080151,0.411964 0.2597058,0.1956131 0.087479,-0.1054061 0.089531,-0.1684223 0.00965,-0.2963333 -0.057632,-0.092284 -0.065862,-0.1624583 -0.019052,-0.1624583 0.1206699,0 0.2646671,0.306652 0.2104018,0.4480651 -0.025678,0.066916 -0.1398414,0.1641092 -0.2536964,0.215985 -0.1201899,0.054762 -0.207009,0.1660989 -0.207009,0.2654681 0,0.094132 -0.0381,0.1711485 -0.084667,0.1711485 -0.046567,0 -0.084667,-0.05715 -0.084667,-0.127 0,-0.1643448 -0.076534,-0.1606044 -0.2684999,0.013122 -0.1441499,0.1304538 -0.1548334,0.1303286 -0.1548334,-0.00182 z m 0.3170263,-2.5261475 c 0.1985799,-0.1648066 0.1178763,-0.4413429 -0.1679502,-0.5754929 -0.1580786,-0.074193 -0.3618968,-0.2854219 -0.4901771,-0.508 -0.219362,-0.3806134 -0.220116,-0.3810256 -0.743575,-0.4062067 -0.301611,-0.014509 -0.523991,0.00987 -0.523991,0.057452 0,0.1311481 0.252455,0.348496 0.408215,0.351447 0.121705,0.00231 0.117855,0.021028 -0.0268,0.1303431 -0.144905,0.1095018 -0.150924,0.1390282 -0.04233,0.2076775 0.06962,0.044015 0.178878,0.080611 0.242788,0.081324 0.08759,9.771e-4 0.09298,0.029273 0.0219,0.1149199 -0.120008,0.1446005 -0.03956,0.2250433 0.225043,0.2250433 0.182952,0 0.194109,0.016644 0.0929,0.1385969 -0.103754,0.1250161 -0.08348,0.1349143 0.2069,0.101014 0.2832057,-0.033063 0.3168707,-0.018257 0.2799055,0.1230972 -0.035914,0.137337 -0.00912,0.1524234 0.1844266,0.103846 0.1245449,-0.031259 0.2742834,-0.096536 0.3327522,-0.1450612 z m 0.8313577,0.034137 c -0.041717,-0.1314389 -0.00638,-0.1474684 0.2572726,-0.1166889 0.2791534,0.03259 0.3007077,0.020163 0.248785,-0.1434308 -0.044408,-0.1399162 -0.027845,-0.1679822 0.075689,-0.1282528 0.072895,0.027972 0.1992114,0.025012 0.2807031,-0.00658 0.1380823,-0.053529 0.1369809,-0.065671 -0.016182,-0.1783917 -0.1614387,-0.1188116 -0.1612476,-0.1209533 0.0108,-0.1209533 0.096332,0 0.2225789,-0.05715 0.2805492,-0.127 0.086324,-0.1040137 0.080538,-0.127 -0.031966,-0.127 -0.2058053,0 -0.1655347,-0.1293188 0.0743,-0.2385946 0.1164166,-0.053043 0.2116666,-0.1562266 0.2116666,-0.229297 0,-0.1090972 -0.093682,-0.1283476 -0.5238707,-0.1076484 -0.5162909,0.024842 -0.5263973,0.030083 -0.6984999,0.3622024 -0.096046,0.1853476 -0.2969867,0.4139476 -0.4465347,0.508 -0.3395289,0.2135335 -0.3866429,0.5986304 -0.087928,0.7186992 0.3065983,0.1232375 0.4186465,0.1032757 0.3652174,-0.065065 z M -9.0902421,1.8463003 c 0,-0.2369026 -0.2479851,-0.2106496 -0.2820423,0.029859 -0.021746,0.1535698 0.00677,0.1913283 0.127,0.1681738 0.08822,-0.01699 0.1550423,-0.1023403 0.1550423,-0.1980328 z m 0.181049,3.8111595 c -0.026804,-0.06985 -0.015906,-0.127 0.024217,-0.127 0.040123,0 0.094881,0.05715 0.1216854,0.127 0.026804,0.06985 0.015907,0.127 -0.024216,0.127 -0.040123,0 -0.094881,-0.05715 -0.1216864,-0.127 z M -9.9237864,4.3596264 c -0.1646086,-0.1818903 -0.1819016,-0.4468539 -0.038522,-0.5902333 0.1232902,-0.1232902 0.3217333,-0.1337346 0.3217333,-0.016933 0,0.046567 -0.054901,0.084667 -0.1220032,0.084667 -0.067102,0 -0.1450637,0.037313 -0.1732487,0.082917 -0.073981,0.1197036 0.1098558,0.4250831 0.2558975,0.4250831 0.068212,0 0.1240211,0.0381 0.1240211,0.084667 0,0.1379756 -0.2169616,0.096594 -0.367878,-0.070168 z"
         id="path1077" />
      <path
         style="fill:#4e4e4e;fill-opacity:1;stroke-width:0.0846667"
         d="m -9.7239455,5.7340821 c 0.00211,-0.1249091 0.1155739,-0.2545697 0.2738701,-0.3129742 0.1080526,-0.039867 0.1481667,-0.1484284 0.1481667,-0.4009876 0,-0.3483222 -0.032864,-0.3634074 -0.3157209,-0.1449208 -0.076912,0.059409 -0.080289,0.1247806 -0.012945,0.2506135 0.071457,0.1335191 0.066508,0.162047 -0.022946,0.1322602 -0.274148,-0.091288 -0.069349,-0.6589468 0.237734,-0.6589468 0.085206,0 0.1138777,-0.1588732 0.1138777,-0.6310109 V 3.3371046 l -0.4233333,0.050138 c -0.2896208,0.034301 -0.4233328,0.01967 -0.4233328,-0.046322 0,-0.053053 -0.06933,-0.09646 -0.154065,-0.09646 -0.08474,0 -0.236884,-0.09525 -0.338107,-0.2116667 -0.101223,-0.1164166 -0.222394,-0.2116666 -0.269268,-0.2116666 -0.04687,0 -0.08523,-0.073025 -0.08523,-0.1622778 0,-0.089253 -0.0421,-0.1763113 -0.09356,-0.1934635 -0.0787,-0.026233 -0.286316,-0.4890807 -0.353136,-0.7872587 -0.01081,-0.048245 0.231166,-0.095534 0.5625,-0.1099291 0.601991,-0.026154 0.9001928,0.1009073 0.9001928,0.3835642 0,0.1404356 0.4523846,0.6153649 0.5861538,0.6153649 0.1397562,0 0.1082996,-0.398647 -0.03582,-0.453951 -0.293592,-0.1126619 -0.048163,-0.6078753 0.2710993,-0.5470088 0.1866035,0.035575 0.2469581,0.370149 0.098944,0.5484947 -0.1335939,0.1609708 -0.1672527,0.3523194 -0.072297,0.4110052 0.1090116,0.067373 0.4933142,-0.3047404 0.6567026,-0.6358735 l 0.1462173,-0.2963333 0.6561667,-0.024728 c 0.6913707,-0.026055 0.7424772,0.00601 0.5544052,0.3477942 -0.055969,0.1017137 -0.1102381,0.2359007 -0.1205984,0.2981933 -0.01036,0.062293 -0.084773,0.1861178 -0.1653607,0.2751667 -0.080588,0.089049 -0.112044,0.161937 -0.069902,0.1619734 0.042142,3.64e-5 -0.073174,0.1333864 -0.2562576,0.2963334 -0.1830839,0.1629469 -0.3831089,0.2962671 -0.4445,0.2962671 -0.061391,0 -0.11162,0.0381 -0.11162,0.084667 0,0.1112483 -0.6516834,0.1099991 -0.7205202,-0.00138 -0.1600423,-0.2589538 -0.2520703,0.2668201 -0.1590373,0.9086112 l 0.039462,0.2722301 0.2930477,-0.1397447 c 0.3390679,-0.1616902 0.3828589,-0.3930256 0.1027732,-0.5429229 -0.1252371,-0.067025 -0.1525023,-0.1144227 -0.079767,-0.1386677 0.1281879,-0.042729 0.4393754,0.2133325 0.4393754,0.3615416 0,0.132145 -0.2978501,0.3981713 -0.5706487,0.5096776 -0.1706813,0.069766 -0.2211065,0.1553257 -0.2376708,0.4032715 -0.021298,0.3188104 0.058997,0.3845259 0.2906122,0.237842 0.07923,-0.050177 0.099415,-0.1527888 0.062201,-0.3162035 -0.052369,-0.2299674 -0.048696,-0.2337232 0.074348,-0.076011 0.1644103,0.2107331 0.1325012,0.3009178 -0.1818823,0.5140526 -0.1395086,0.094579 -0.2393352,0.2149127 -0.2218369,0.2674077 0.017498,0.052495 -0.0083,0.1202356 -0.057321,0.1505346 -0.049025,0.030299 -0.089136,-0.00431 -0.089136,-0.076908 0,-0.1692436 -0.075018,-0.1669735 -0.2684999,0.00813 -0.085159,0.077067 -0.15425,0.1056422 -0.1535369,0.0635 z m 0.2338646,-2.5367566 c 0.2734926,-0.1915616 0.2384911,-0.4765356 -0.077644,-0.6321596 -0.1440838,-0.070928 -0.3432436,-0.2802408 -0.4425771,-0.4651388 -0.09933,-0.1848981 -0.218707,-0.3644074 -0.265273,-0.3989096 -0.12321,-0.091289 -1.058334,-0.079542 -1.058334,0.013295 0,0.1277565 0.254678,0.3444979 0.408215,0.3474069 0.121705,0.00231 0.117855,0.021028 -0.0268,0.1303431 -0.144905,0.1095018 -0.150924,0.1390282 -0.04233,0.2076775 0.06962,0.044015 0.178878,0.080611 0.242788,0.081324 0.08759,9.771e-4 0.09298,0.029273 0.0219,0.1149199 -0.120008,0.1446005 -0.03956,0.2250433 0.225043,0.2250433 0.168814,0 0.189383,0.022339 0.109355,0.1187665 -0.129869,0.1564818 0.0436,0.223913 0.316399,0.1229932 0.1713147,-0.063376 0.1894041,-0.051082 0.1424609,0.096823 -0.067286,0.2120005 0.1693851,0.2319259 0.4468012,0.037616 z m 0.9671055,0.030201 c -0.1665453,-0.1665453 -0.1185842,-0.2050473 0.2079379,-0.1669277 0.2590645,0.030244 0.300915,0.013666 0.2566571,-0.1016678 -0.039831,-0.1037989 -0.00254,-0.1378045 0.1511322,-0.1378045 0.2623405,0 0.345174,-0.1339276 0.1522868,-0.2462218 -0.1381097,-0.080404 -0.1362451,-0.087499 0.023619,-0.08987 0.2742405,-0.00407 0.4003789,-0.1774682 0.2256538,-0.3102024 -0.1275827,-0.096921 -0.1288186,-0.1106472 -0.010176,-0.1130129 0.074274,-0.00148 0.2032856,-0.078098 0.2866915,-0.1702607 0.1976821,-0.2184363 0.066485,-0.2751728 -0.5536052,-0.2394073 -0.4294763,0.024771 -0.4584429,0.041539 -0.6249078,0.3617321 -0.096006,0.1846662 -0.3057406,0.4239537 -0.466077,0.53175 -0.35221,0.2367953 -0.4083602,0.4744469 -0.1541651,0.6524921 0.2296929,0.1608832 0.6615816,0.1860302 0.5049528,0.029401 z M -9.0763426,1.9264354 c 0.028005,-0.07298 0.00937,-0.1742353 -0.041402,-0.2250117 -0.1222457,-0.1222456 -0.3616343,0.068649 -0.2970728,0.236893 0.061935,0.1614015 0.2748481,0.1539277 0.3384748,-0.011881 z m 0.1671495,3.7310244 c -0.026804,-0.06985 -0.015906,-0.127 0.024217,-0.127 0.040123,0 0.094881,0.05715 0.1216854,0.127 0.026804,0.06985 0.015907,0.127 -0.024216,0.127 -0.040123,0 -0.094881,-0.05715 -0.1216864,-0.127 z M -9.9237864,4.3596264 C -10.171235,4.0861983 -10.05114,3.661349 -9.7294754,3.6722341 c 0.095337,0.00323 0.079125,0.04079 -0.059267,0.1373269 -0.2515606,0.1754797 -0.2403336,0.3149286 0.042333,0.5258214 0.1608244,0.1199883 0.1910678,0.1745424 0.097789,0.1763951 -0.074275,0.00147 -0.1980995,-0.066993 -0.275166,-0.1521511 z"
         id="path1075" />
      <path
         style="fill:#404040;fill-opacity:1;stroke-width:0.0846667"
         d="m -9.725242,5.7129025 c 0,-0.046009 0.098025,-0.1550589 0.2178336,-0.2423333 0.1800185,-0.1311344 0.2130886,-0.2149919 0.1905,-0.4830593 L -9.344242,4.6631313 -9.5531627,4.8330914 c -0.1876639,0.1526674 -0.1962784,0.1852701 -0.084667,0.3204329 0.109519,0.1326284 0.1091933,0.1455433 -0.00275,0.1089056 -0.2446501,-0.080074 -0.1998638,-0.3997461 0.078175,-0.5579893 0.2516775,-0.1432403 0.2594372,-0.1658513 0.2599566,-0.7574918 l 5.351e-4,-0.6098442 -0.4233333,0.050138 c -0.2896207,0.034301 -0.4233327,0.01967 -0.4233327,-0.046322 0,-0.053053 -0.05348,-0.09646 -0.11884,-0.09646 -0.151842,0 -0.727827,-0.5066482 -0.727827,-0.6402116 0,-0.05558 -0.05842,-0.1495378 -0.12982,-0.2087953 -0.0714,-0.059258 -0.11519,-0.1496476 -0.09731,-0.200867 0.01788,-0.051219 -0.03748,-0.1833293 -0.123026,-0.2935776 -0.08554,-0.1102483 -0.134757,-0.2340733 -0.10936,-0.2751666 0.0254,-0.041093 0.3124,-0.074715 0.637784,-0.074715 0.579451,0 0.594571,0.00558 0.735836,0.2716147 0.1722526,0.3243892 0.5604628,0.7443853 0.6880495,0.7443853 0.050149,0 0.091179,-0.09525 0.091179,-0.2116667 0,-0.1164167 -0.035533,-0.2116667 -0.078961,-0.2116667 -0.1326511,0 -0.195449,-0.3390568 -0.087,-0.4697296 0.056116,-0.067615 0.1728377,-0.122937 0.259382,-0.122937 0.2215402,0 0.3064064,0.3847518 0.1282808,0.5815783 -0.124464,0.1375313 -0.191907,0.4344217 -0.098685,0.4344217 0.1981476,0 0.4942387,-0.261665 0.6590755,-0.5824457 l 0.2010334,-0.391221 0.6514374,-0.024728 c 0.6864475,-0.026057 0.7375863,0.0063 0.549676,0.3477942 -0.055969,0.1017137 -0.1102381,0.2359007 -0.1205984,0.2981933 -0.01036,0.062293 -0.084773,0.1861178 -0.1653607,0.2751667 -0.080588,0.089049 -0.1188476,0.1619072 -0.085021,0.1619072 0.033827,0 0.00435,0.05715 -0.065497,0.127 -0.06985,0.06985 -0.1678215,0.127 -0.2177143,0.127 -0.049893,0 -0.090714,0.056424 -0.090714,0.125387 0,0.068963 -0.09525,0.1492931 -0.2116667,0.1785118 -0.1164166,0.029219 -0.2116666,0.091096 -0.2116666,0.1375061 0,0.077308 -0.4488437,0.06264 -0.762,-0.024902 -0.1022086,-0.028572 -0.1315213,0.074843 -0.1501615,0.5297677 -0.012739,0.3108987 0.00785,0.5844384 0.04576,0.607866 0.037907,0.023428 0.1912043,-0.016628 0.3406615,-0.089012 0.3312631,-0.1604355 0.3769473,-0.4820615 0.08124,-0.5719476 -0.1232228,-0.037456 -0.1513936,-0.073913 -0.079768,-0.1032301 0.1251267,-0.051215 0.4396008,0.2001754 0.4396008,0.3514172 0,0.1302006 -0.3210496,0.4094937 -0.6138333,0.5339964 -0.1911767,0.081296 -0.2328333,0.1523519 -0.2328333,0.3971581 0,0.3023208 0.097657,0.3677488 0.3296411,0.2208516 0.069118,-0.043767 0.098698,-0.148418 0.071426,-0.2527035 -0.053585,-0.2049083 0.063556,-0.2438262 0.1393543,-0.046298 0.05206,0.1356666 -0.2874839,0.5456318 -0.4519067,0.5456318 -0.048683,0 -0.092935,0.085725 -0.098337,0.1905 -0.00739,0.143355 -0.019404,0.1538317 -0.048542,0.042333 -0.047938,-0.1834405 -0.143695,-0.1880134 -0.3165894,-0.015119 -0.073176,0.073176 -0.1330476,0.095404 -0.1330476,0.049395 z m 0.2902856,-2.5168237 c 0.1917652,-0.1917652 0.169813,-0.5212059 -0.03915,-0.5875281 -0.2325085,-0.073795 -0.4998203,-0.3637004 -0.6432246,-0.6975909 -0.115972,-0.2700174 -0.128461,-0.2751667 -0.667381,-0.2751667 -0.439341,0 -0.549197,0.026221 -0.549197,0.1310872 0,0.072098 0.123825,0.1835502 0.275167,0.2476716 0.225748,0.095646 0.248557,0.1269507 0.127,0.1743046 -0.212892,0.082935 -0.182877,0.1821483 0.08467,0.2798635 0.128058,0.046771 0.185208,0.088046 0.127,0.091722 -0.05821,0.00368 -0.105834,0.063834 -0.105834,0.1336842 0,0.085773 0.08582,0.127 0.264367,0.127 0.224459,0 0.248582,0.01902 0.159798,0.1259981 -0.144419,0.1740144 0.08856,0.2614106 0.339231,0.1272548 0.165946,-0.088812 0.1784722,-0.081159 0.1279105,0.078147 -0.0466,0.1468237 -0.02042,0.1766001 0.1552738,0.1766001 0.1162285,0 0.271196,-0.059872 0.3443721,-0.1330477 z m 0.9797143,0.048381 c 0,-0.046567 -0.0381,-0.084667 -0.084667,-0.084667 -0.046567,0 -0.084667,-0.03944 -0.084667,-0.087646 0,-0.060311 0.050898,-0.060406 0.1631999,-3.048e-4 0.2022032,0.1082159 0.4547831,0.022045 0.3946565,-0.134643 -0.030135,-0.078529 0.021446,-0.1160732 0.1594708,-0.1160732 0.2623405,0 0.345174,-0.1339276 0.1522868,-0.2462218 -0.1381097,-0.080404 -0.1362451,-0.087499 0.023619,-0.08987 0.2742405,-0.00407 0.4003789,-0.1774682 0.2256538,-0.3102024 -0.110916,-0.08426 -0.1167949,-0.1109562 -0.024887,-0.1130129 0.1382488,-0.00309 0.4300001,-0.2462309 0.4300001,-0.3583499 0,-0.041477 -0.2548308,-0.064147 -0.5662906,-0.050378 l -0.5662907,0.025035 -0.2196179,0.381 c -0.1282849,0.2225527 -0.3321498,0.4338157 -0.4902103,0.508 -0.3250587,0.1525632 -0.3637382,0.4357231 -0.086085,0.630199 0.2105945,0.1475061 0.5738278,0.1773421 0.5738278,0.047134 z M -9.0763426,1.9264354 c 0.028005,-0.07298 0.00749,-0.1761222 -0.045595,-0.2292047 -0.119163,-0.119163 -0.4014657,0.1243331 -0.3119921,0.2691044 0.084506,0.1367329 0.2989909,0.1128006 0.3575871,-0.0399 z m 0.1671495,3.7310244 c -0.026804,-0.06985 -0.01183,-0.127 0.033275,-0.127 0.045105,0 0.082009,0.05715 0.082009,0.127 0,0.06985 -0.014974,0.127 -0.033275,0.127 -0.018301,0 -0.055205,-0.05715 -0.082009,-0.127 z M -9.8757365,4.3826588 C -10.115689,4.2145897 -10.121911,3.8741259 -9.887324,3.7485789 c 0.097122,-0.051978 0.1956348,-0.075455 0.2189181,-0.052172 0.023283,0.023283 -0.03713,0.084861 -0.1342514,0.1368386 -0.2403427,0.1286274 -0.2217347,0.2947383 0.056249,0.5021368 0.2696424,0.2011755 0.1518631,0.2442302 -0.1293282,0.047276 z"
         id="path1073" />
      <path
         style="fill:#333333;fill-opacity:1;stroke-width:0.0846667"
         d="m -9.7226674,5.7229116 c -0.00142,-0.057135 0.092675,-0.1662917 0.209092,-0.2425709 0.1656565,-0.1085423 0.2116667,-0.2101889 0.2116667,-0.4676184 0,-0.3535162 -0.079205,-0.4069627 -0.2902857,-0.1958815 -0.1607186,0.1607185 -0.1650575,0.2205226 -0.027214,0.3751023 0.090035,0.1009673 0.083716,0.1019475 -0.042333,0.00657 -0.2111502,-0.1597763 -0.1836334,-0.3189102 0.084667,-0.4896423 0.1280584,-0.081489 0.2608249,-0.1871428 0.2950369,-0.2347851 0.038939,-0.054225 0.062688,-0.045014 0.0635,0.024628 9.204e-4,0.078946 0.099636,0.055981 0.3399632,-0.079091 0.3689647,-0.2073698 0.4401959,-0.4444207 0.1905,-0.6339669 -0.082159,-0.062368 -0.1031571,-0.1136741 -0.047134,-0.1151672 0.1437866,-0.00383 0.3605882,0.3326687 0.3059943,0.4749382 -0.025226,0.065738 -0.212852,0.2173847 -0.4169462,0.3369919 -0.3230966,0.1893468 -0.3710804,0.2547453 -0.3710804,0.5057553 0,0.2924347 0.099972,0.3564229 0.3296411,0.2109913 0.069118,-0.043767 0.098698,-0.148418 0.071426,-0.2527035 -0.053585,-0.2049083 0.063556,-0.2438262 0.1393543,-0.046298 0.061858,0.1611998 -0.3316567,0.57888 -0.4886351,0.5186417 -0.076669,-0.029421 -0.1021131,0.026014 -0.083943,0.1828864 0.014341,0.1238071 0.0056,0.1584287 -0.019427,0.076937 -0.025025,-0.081492 -0.097964,-0.1481666 -0.1620853,-0.1481666 -0.064122,0 -0.1554194,0.066675 -0.202884,0.1481666 -0.047465,0.081492 -0.087458,0.10142 -0.088874,0.044285 z m 0.8134743,-0.065452 c -0.026804,-0.06985 -0.01183,-0.127 0.033275,-0.127 0.045105,0 0.082009,0.05715 0.082009,0.127 0,0.06985 -0.014974,0.127 -0.033275,0.127 -0.018301,0 -0.055205,-0.05715 -0.082009,-0.127 z M -9.9623087,4.3281931 c -0.1555433,-0.1555428 -0.1208923,-0.4747841 0.062167,-0.5727544 0.2573569,-0.1377333 0.2970386,-0.1027986 0.08149,0.071742 -0.1737244,0.1406736 -0.1849803,0.185407 -0.095862,0.381 0.1121043,0.2460423 0.102457,0.2702659 -0.047796,0.1200127 z m 0.6769828,-0.5152122 c -0.015674,-0.543 -0.025715,-0.5695915 -0.1832435,-0.4852848 -0.2071456,0.1108609 -0.6631186,0.082892 -0.7116786,-0.043653 -0.01985,-0.051738 0.03963,-0.1413621 0.132187,-0.1991648 0.1508587,-0.094213 0.1625445,-0.087008 0.1128467,0.069576 -0.044176,0.1391878 -0.018749,0.1746722 0.1251662,0.1746722 0.4634868,0 0.6950839,-0.4707616 0.3599727,-0.7317072 -0.1411111,-0.1098809 -0.1411111,-0.1129178 0,-0.063775 0.1961572,0.068312 0.2038063,-0.2727028 0.010898,-0.4858638 -0.2414389,-0.2667871 0.075443,-0.6389656 0.3500134,-0.411092 0.1411041,0.117106 0.1680613,0.3864012 0.046218,0.4617046 -0.043837,0.027093 -0.072412,-0.05489 -0.0635,-0.1821852 0.011254,-0.1607467 -0.029134,-0.2408357 -0.1322188,-0.262187 -0.2065742,-0.042787 -0.2972262,0.2331055 -0.119334,0.3631834 0.077416,0.056608 0.1407567,0.2034985 0.1407567,0.3264232 0,0.4148925 0.3838377,0.1951957 0.7929042,-0.4538339 0.1821509,-0.2890024 0.2018822,-0.2969486 0.7976001,-0.3212092 0.6515166,-0.026533 0.7288272,0.031081 0.4811363,0.3585582 -0.068369,0.090392 -0.1243073,0.2311065 -0.1243073,0.3126991 0,0.081593 -0.084677,0.2076605 -0.1881722,0.280151 -0.1264128,0.088543 -0.147254,0.1325403 -0.0635,0.1340538 0.069434,0.00125 0.021511,0.066213 -0.1081612,0.1466103 -0.1280583,0.079397 -0.2328333,0.1886064 -0.2328333,0.2426887 0,0.1072642 -0.2509781,0.2323589 -0.3225626,0.1607744 -0.02438,-0.02438 0.00457,-0.044326 0.064326,-0.044326 0.066969,0 0.091664,-0.064964 0.064371,-0.1693333 -0.034548,-0.1321108 -0.0026,-0.1693333 0.1453474,-0.1693333 0.247353,0 0.3241468,-0.083589 0.2067498,-0.2250433 -0.07108,-0.085647 -0.065688,-0.1139426 0.021901,-0.1149199 0.06391,-7.112e-4 0.1731647,-0.037309 0.2427879,-0.081324 0.1085901,-0.068649 0.1025714,-0.098176 -0.042333,-0.2076775 -0.1367326,-0.1033262 -0.1431879,-0.1281634 -0.033877,-0.1303431 0.1335639,-0.00266 0.415289,-0.2557416 0.415289,-0.3730611 0,-0.033386 -0.2548308,-0.049436 -0.5662906,-0.035667 l -0.5662907,0.025035 -0.218399,0.3740629 c -0.1212249,0.207628 -0.3392981,0.4336566 -0.49012,0.508 -0.3668363,0.1808215 -0.3669962,0.4585818 -3.979e-4,0.694523 0.2485229,0.1599491 0.207222,0.1669906 -0.1441271,0.024573 -0.098829,-0.04006 -0.1288069,0.063792 -0.1527505,0.5291666 L -9.268743,4.3874598 Z M -8.545353,3.3401308 c 0.1056299,-0.071922 0.1056299,-0.1020319 0,-0.2298203 -0.1129449,-0.1366377 -0.1080453,-0.1386413 0.069165,-0.028282 0.2196138,0.1367664 0.2068968,0.2778677 -0.028404,0.3151493 -0.1294896,0.020517 -0.1377333,0.00898 -0.040762,-0.057047 z M -10.53456,3.1201524 c -0.09039,-0.068369 -0.126249,-0.1260806 -0.07968,-0.128248 0.04657,-0.00217 -0.01058,-0.052129 -0.127,-0.1110266 -0.116417,-0.058897 -0.211667,-0.1631104 -0.211667,-0.2315851 0,-0.068475 -0.06866,-0.175679 -0.152589,-0.2382316 -0.08392,-0.062553 -0.136521,-0.1578026 -0.116881,-0.2116667 0.01964,-0.053864 -0.02109,-0.1631906 -0.09051,-0.2429479 -0.240846,-0.2767048 -0.07435,-0.40532 0.524708,-0.40532 0.510485,0 0.561422,0.017135 0.692127,0.2328333 0.0776,0.1280583 0.2182935,0.3471333 0.3126539,0.4868333 l 0.1715644,0.254 L -9.80253,2.3571787 c -0.1048801,-0.092188 -0.242752,-0.2922129 -0.306381,-0.4445 -0.113977,-0.2727857 -0.123903,-0.2768856 -0.670344,-0.2768856 -0.398656,0 -0.554654,0.030956 -0.554654,0.1100667 0,0.1626962 0.179191,0.3129106 0.376767,0.3158413 0.158537,0.00235 0.160737,0.010047 0.0254,0.088874 -0.211099,0.1229538 -0.18335,0.2351616 0.07414,0.2997867 0.188173,0.047229 0.200899,0.067773 0.08289,0.1338167 -0.199947,0.1118962 -0.0848,0.2369482 0.218174,0.2369482 0.205608,0 0.240089,0.023232 0.166351,0.1120812 -0.06793,0.081847 -0.06616,0.1389446 0.0066,0.2116666 0.139537,0.1395372 0.04598,0.1242126 -0.150932,-0.024722 z"
         id="path1071" />
    </g>
  </g>
</svg>
