<?xml version="1.0" encoding="UTF-8" standalone="no"?>
<!-- Created with Inkscape (http://www.inkscape.org/) -->

<svg
   width="100"
   height="100"
   viewBox="0 0 26.458333 26.458333"
   version="1.1"
   id="svg5"
   inkscape:version="1.1 (ce6663b3b7, 2021-05-25)"
   sodipodi:docname="packages.svg"
   xmlns:inkscape="http://www.inkscape.org/namespaces/inkscape"
   xmlns:sodipodi="http://sodipodi.sourceforge.net/DTD/sodipodi-0.dtd"
   xmlns="http://www.w3.org/2000/svg"
   xmlns:svg="http://www.w3.org/2000/svg">
  <sodipodi:namedview
     id="namedview7"
     pagecolor="#ffffff"
     bordercolor="#666666"
     borderopacity="1.0"
     inkscape:pageshadow="2"
     inkscape:pageopacity="0.0"
     inkscape:pagecheckerboard="0"
     inkscape:document-units="mm"
     showgrid="false"
     inkscape:zoom="3.1001683"
     inkscape:cx="26.288895"
     inkscape:cy="71.447733"
     inkscape:window-width="1920"
     inkscape:window-height="1016"
     inkscape:window-x="0"
     inkscape:window-y="27"
     inkscape:window-maximized="1"
     inkscape:current-layer="layer1"
     width="209mm"
     units="px" />
  <defs
     id="defs2" />
  <g
     inkscape:label="Layer 1"
     inkscape:groupmode="layer"
     id="layer1">
    <g
       id="g1330"
       transform="matrix(4.4776444,0,0,4.4776444,73.987038,-4.7281044)">
      <path
         style="fill:#cacaca;fill-opacity:1;stroke-width:0.0846667"
         d="m -15.939816,6.1206252 c 0,-0.050926 0.0762,-0.1125199 0.169333,-0.1368748 0.157349,-0.041148 0.169333,-0.1154866 0.169333,-1.0504068 V 3.9272184 h 0.33549 0.335489 l 0.02434,-0.7831667 0.02434,-0.7831666 0.31234,-0.02597 c 0.268327,-0.022311 0.316049,-0.058102 0.338666,-0.254 0.02558,-0.221533 0.04382,-0.2287388 0.640161,-0.2529059 l 0.613833,-0.024876 v 0.2528411 c 0,0.2369317 0.02264,0.2544792 0.359833,0.2788758 l 0.359834,0.026035 0.02434,0.7831666 0.02434,0.7831667 h 0.33549 0.335489 v 1.0061252 c 0,0.9349202 0.01198,1.0092591 0.169334,1.0504068 0.09313,0.024355 0.169333,0.085949 0.169333,0.1368748 0,0.064808 -0.711372,0.092593 -2.370667,0.092593 -1.659294,0 -2.370666,-0.027785 -2.370666,-0.092593 z m 1.016,-1.0927402 V 4.0965517 h -0.211667 -0.211667 V 5.027885 5.9592184 h 0.211667 0.211667 z m 0.524742,0.4868334 0.02559,-0.4445 0.783167,-0.024344 0.783166,-0.024344 v 0.4688439 c 0,0.4123994 0.02039,0.4688439 0.169334,0.4688439 0.163688,0 0.169333,-0.056445 0.169333,-1.6933333 V 2.5725517 h -0.254 c -0.22659,0 -0.254,0.02781 -0.254,0.2577093 v 0.2577091 l -0.613833,-0.024876 c -0.599647,-0.024301 -0.614453,-0.030257 -0.640624,-0.2577092 -0.02104,-0.1828774 -0.071,-0.2328334 -0.232833,-0.2328334 h -0.206043 v 1.6933334 c 0,1.4215741 0.01967,1.6933333 0.122575,1.6933333 0.08817,0 0.129758,-0.1247491 0.148167,-0.4445 z m 0.02331,-0.9138644 c -0.02752,-0.044533 -0.02649,-0.119069 0.0023,-0.1656356 0.07824,-0.1265888 0.296333,-0.1020989 0.296333,0.033275 0,0.1435557 -0.228974,0.2450472 -0.298618,0.1323607 z m 0.945428,0.029618 c -0.10119,-0.1011899 -0.05467,-0.2799205 0.07286,-0.2799205 0.06985,0 0.127,0.054901 0.127,0.1220032 0,0.1414479 -0.120843,0.2369317 -0.199857,0.1579173 z m 0.36919,-0.1132444 c 0,-0.091712 0.05712,-0.1666761 0.127,-0.1666761 0.06985,0 0.127,0.053074 0.127,0.1179416 0,0.064868 -0.05715,0.1398721 -0.127,0.1666761 -0.08638,0.033149 -0.127,-0.00457 -0.127,-0.1179416 z m -0.872587,0.033181 c -0.07901,-0.079015 0.01647,-0.1998574 0.157917,-0.1998574 0.0671,0 0.122004,0.05715 0.122004,0.127 0,0.1275275 -0.178731,0.1740472 -0.279921,0.072857 z m -0.460952,-0.475024 c 0.05334,-0.1602055 0.317539,-0.1829816 0.317539,-0.027375 0,0.07854 -0.07239,0.1332081 -0.176389,0.1332081 -0.10346,0 -0.161819,-0.043757 -0.14115,-0.1058331 z m 0.486873,-0.021167 c 0,-0.06985 0.05715,-0.127 0.127,-0.127 0.06985,0 0.127,0.05715 0.127,0.127 0,0.06985 -0.05715,0.127 -0.127,0.127 -0.06985,0 -0.127,-0.05715 -0.127,-0.127 z m 0.423333,0 c 0,-0.06985 0.05715,-0.127 0.127,-0.127 0.06985,0 0.127,0.05715 0.127,0.127 0,0.06985 -0.05715,0.127 -0.127,0.127 -0.06985,0 -0.127,-0.05715 -0.127,-0.127 z m 0.423333,0 c 0,-0.06985 0.05715,-0.127 0.127,-0.127 0.06985,0 0.127,0.05715 0.127,0.127 0,0.06985 -0.05715,0.127 -0.127,0.127 -0.06985,0 -0.127,-0.05715 -0.127,-0.127 z m -1.298222,-0.3527778 c -0.10734,-0.1073397 -0.05579,-0.1975555 0.112889,-0.1975555 0.09407,0 0.169333,0.056444 0.169333,0.127 0,0.1288974 -0.179104,0.1736735 -0.282222,0.070556 z m 0.451556,-0.070556 c 0,-0.06985 0.05715,-0.127 0.127,-0.127 0.06985,0 0.127,0.05715 0.127,0.127 0,0.06985 -0.05715,0.127 -0.127,0.127 -0.06985,0 -0.127,-0.05715 -0.127,-0.127 z m 0.423333,0 c 0,-0.06985 0.05715,-0.127 0.127,-0.127 0.06985,0 0.127,0.05715 0.127,0.127 0,0.06985 -0.05715,0.127 -0.127,0.127 -0.06985,0 -0.127,-0.05715 -0.127,-0.127 z m 0.423333,0 c 0,-0.06985 0.05715,-0.127 0.127,-0.127 0.06985,0 0.127,0.05715 0.127,0.127 0,0.06985 -0.05715,0.127 -0.127,0.127 -0.06985,0 -0.127,-0.05715 -0.127,-0.127 z m 0.08467,1.9896666 V 5.281885 h -0.592667 -0.592666 v 0.3386667 0.3386667 h 0.592666 0.592667 z M -11.79115,5.027885 V 4.0965517 h -0.211666 -0.211667 V 5.027885 5.9592184 h 0.211667 0.211666 z m -1.354666,-2.5823333 v -0.381 h -0.423334 -0.423333 v 0.381 0.381 h 0.423333 0.423334 z m -0.687917,0.1693334 c -0.0058,-0.06985 -0.01782,-0.174625 -0.02666,-0.2328334 -0.02865,-0.1885991 0.04921,-0.2436168 0.185549,-0.1311112 0.105446,0.087016 0.140659,0.087874 0.168851,0.00411 0.07235,-0.2149675 0.190842,-0.096689 0.190842,0.1904998 0,0.2932827 -0.1092,0.3949518 -0.204611,0.1905 -0.03951,-0.084667 -0.05927,-0.084667 -0.09878,0 -0.06819,0.1461179 -0.202353,0.1329214 -0.215194,-0.021167 z"
         id="path1354" />
      <path
         style="fill:#bdbdbd;fill-opacity:1;stroke-width:0.0846667"
         d="m -15.939816,6.1206252 c 0,-0.050926 0.0762,-0.1125199 0.169333,-0.1368748 0.157349,-0.041148 0.169333,-0.1154866 0.169333,-1.0504068 V 3.9272184 h 0.33549 0.335489 l 0.02434,-0.7831667 0.02434,-0.7831666 0.355359,-0.025816 c 0.327983,-0.023827 0.354073,-0.043395 0.338667,-0.254 -0.01656,-0.2262968 -0.01162,-0.2283896 0.597141,-0.2530597 l 0.613833,-0.024876 v 0.2528411 c 0,0.2369317 0.02264,0.2544792 0.359833,0.2788758 l 0.359834,0.026035 0.01226,0.7196666 c 0.0067,0.3958167 0.01627,0.7482417 0.02117,0.7831667 0.0049,0.034925 0.161306,0.0635 0.347573,0.0635 h 0.338666 v 1.0061252 c 0,0.9349202 0.01198,1.0092591 0.169334,1.0504068 0.09313,0.024355 0.169333,0.085949 0.169333,0.1368748 0,0.064808 -0.711372,0.092593 -2.370667,0.092593 -1.659294,0 -2.370666,-0.027785 -2.370666,-0.092593 z m 1.016,-1.0927402 c 0,-0.9299685 -3.05e-4,-0.9313333 -0.205857,-0.9313333 -0.201493,0 -0.206429,0.016845 -0.232834,0.7946485 -0.03406,1.0032017 -0.0199,1.0680182 0.233232,1.0680182 0.205048,0 0.205459,-0.00186 0.205459,-0.9313334 z m 0.524742,0.4868334 0.02559,-0.4445 0.783167,-0.024344 0.783166,-0.024344 v 0.4688439 c 0,0.4123994 0.02039,0.4688439 0.169334,0.4688439 0.163688,0 0.169333,-0.056445 0.169333,-1.6933333 V 2.5725517 h -0.254 c -0.225778,0 -0.254,0.028222 -0.254,0.254 v 0.254 h -0.592667 c -0.410811,0 -0.596623,-0.032474 -0.605562,-0.1058333 -0.0071,-0.058208 -0.01662,-0.1629833 -0.02117,-0.2328333 -0.0047,-0.072879 -0.107493,-0.1384168 -0.241104,-0.1537904 l -0.232833,-0.026791 v 1.6989571 c 0,1.4264828 0.01966,1.6989571 0.122575,1.6989571 0.08817,0 0.129758,-0.1247491 0.148167,-0.4445 z m 0.0044,-1.016 c 0.05334,-0.1602054 0.317539,-0.1829816 0.317539,-0.027375 0,0.07854 -0.07239,0.1332081 -0.176389,0.1332081 -0.10346,0 -0.161819,-0.043757 -0.14115,-0.1058331 z m 0.486873,-0.021167 c 0,-0.06985 0.05715,-0.127 0.127,-0.127 0.06985,0 0.127,0.05715 0.127,0.127 0,0.06985 -0.05715,0.127 -0.127,0.127 -0.06985,0 -0.127,-0.05715 -0.127,-0.127 z m 0.423333,0 c 0,-0.06985 0.05715,-0.127 0.127,-0.127 0.06985,0 0.127,0.05715 0.127,0.127 0,0.06985 -0.05715,0.127 -0.127,0.127 -0.06985,0 -0.127,-0.05715 -0.127,-0.127 z m 0.423333,0 c 0,-0.06985 0.05715,-0.127 0.127,-0.127 0.06985,0 0.127,0.05715 0.127,0.127 0,0.06985 -0.05715,0.127 -0.127,0.127 -0.06985,0 -0.127,-0.05715 -0.127,-0.127 z m -1.29592,-0.350476 c -0.07902,-0.079014 0.01647,-0.1998573 0.157917,-0.1998573 0.0671,0 0.122003,0.05715 0.122003,0.127 0,0.1275275 -0.17873,0.1740472 -0.27992,0.072857 z m 0.449254,-0.072857 c 0,-0.06985 0.05715,-0.127 0.127,-0.127 0.06985,0 0.127,0.05715 0.127,0.127 0,0.06985 -0.05715,0.127 -0.127,0.127 -0.06985,0 -0.127,-0.05715 -0.127,-0.127 z m 0.423333,0 c 0,-0.06985 0.05715,-0.127 0.127,-0.127 0.06985,0 0.127,0.05715 0.127,0.127 0,0.06985 -0.05715,0.127 -0.127,0.127 -0.06985,0 -0.127,-0.05715 -0.127,-0.127 z m 0.423333,0 c 0,-0.06985 0.05715,-0.127 0.127,-0.127 0.06985,0 0.127,0.05715 0.127,0.127 0,0.06985 -0.05715,0.127 -0.127,0.127 -0.06985,0 -0.127,-0.05715 -0.127,-0.127 z m -1.298222,-0.3527778 c -0.10734,-0.1073397 -0.05579,-0.1975555 0.112889,-0.1975555 0.09407,0 0.169333,0.056444 0.169333,0.127 0,0.1288974 -0.179104,0.1736735 -0.282222,0.070556 z m 0.451556,-0.070556 c 0,-0.06985 0.05715,-0.127 0.127,-0.127 0.06985,0 0.127,0.05715 0.127,0.127 0,0.06985 -0.05715,0.127 -0.127,0.127 -0.06985,0 -0.127,-0.05715 -0.127,-0.127 z m 0.423333,0 c 0,-0.06985 0.05715,-0.127 0.127,-0.127 0.06985,0 0.127,0.05715 0.127,0.127 0,0.06985 -0.05715,0.127 -0.127,0.127 -0.06985,0 -0.127,-0.05715 -0.127,-0.127 z m 0.423333,0 c 0,-0.06985 0.05715,-0.127 0.127,-0.127 0.06985,0 0.127,0.05715 0.127,0.127 0,0.06985 -0.05715,0.127 -0.127,0.127 -0.06985,0 -0.127,-0.05715 -0.127,-0.127 z m 0.08467,1.9896666 V 5.281885 h -0.592667 -0.592666 v 0.3386667 0.3386667 h 0.592666 0.592667 z M -11.79115,5.027885 V 4.0965517 h -0.211666 c -0.142975,0 -0.213514,0.048084 -0.217358,0.1481667 -0.02916,0.7591619 -0.02988,1.6507716 -0.0014,1.6792594 0.0194,0.019382 0.124178,0.035241 0.232834,0.035241 0.19499,0 0.197555,-0.012095 0.197555,-0.9313334 z m -1.4605,-2.1942777 c 0.06794,-0.00453 0.105834,-0.143463 0.105834,-0.3880556 v -0.381 h -0.423334 -0.423333 v 0.3747919 c 0,0.390811 0.07578,0.4589581 0.465667,0.4187724 0.09313,-0.0096 0.216958,-0.020628 0.275166,-0.024509 z m -0.5715,-0.3984226 c 0,-0.2761039 0.01404,-0.2951081 0.140769,-0.1905 0.110276,0.09103 0.148522,0.093161 0.176565,0.00984 0.06171,-0.1833705 0.190666,-0.022163 0.190666,0.2383576 0,0.2537781 -0.115333,0.334479 -0.204611,0.1431699 -0.03951,-0.084667 -0.05927,-0.084667 -0.09878,0 -0.09665,0.2071016 -0.204611,0.1011135 -0.204611,-0.200867 z"
         id="path1352" />
      <path
         style="fill:#afafaf;fill-opacity:1;stroke-width:0.0846667"
         d="m -15.939816,6.1206252 c 0,-0.050926 0.0762,-0.1125199 0.169333,-0.1368748 0.157349,-0.041148 0.169333,-0.1154866 0.169333,-1.0504068 V 3.9272184 h 0.338667 0.338667 V 3.1742768 c 0,-0.8185276 0.02238,-0.8557251 0.514924,-0.8557251 0.218084,0 0.247076,-0.029804 0.247076,-0.254 v -0.254 h 0.592666 0.592667 v 0.254 c 0,0.239488 0.01917,0.254 0.335489,0.254 h 0.33549 l 0.02434,0.7831667 0.02434,0.7831667 0.359833,0.026035 0.359833,0.026035 v 1.001257 c 0,0.9460382 0.0098,1.003822 0.177852,1.0477665 0.09793,0.02561 0.152756,0.087116 0.122004,0.1368747 -0.07913,0.1280319 -4.702522,0.1258416 -4.702522,-0.00223 z M -11.79115,5.0180103 V 4.0965517 h -0.254 -0.254 v 0.9242778 c 0,0.9548746 0.03272,1.0419061 0.359834,0.9570673 0.129681,-0.033634 0.148166,-0.1533907 0.148166,-0.9598865 z m -3.132666,0.00987 c 0,-0.9258741 -0.0012,-0.9313333 -0.202609,-0.9313333 -0.111434,0 -0.225734,0.060266 -0.254,0.1339247 -0.0698,0.1818973 -0.06551,1.6017342 0.0051,1.6722975 0.03105,0.031045 0.145345,0.056445 0.254,0.056445 0.19499,0 0.197556,-0.012095 0.197556,-0.9313334 z m 0.542687,0.5715087 c -0.01214,-0.5711876 -0.01168,-0.5715087 0.821038,-0.5715087 h 0.752941 V 5.493547 c 0,0.4092222 0.02053,0.4656667 0.169334,0.4656667 0.163688,0 0.169333,-0.056445 0.169333,-1.6933333 V 2.5725517 h -0.254 c -0.225778,0 -0.254,0.028222 -0.254,0.254 v 0.254 h -0.587043 c -0.577471,0 -0.58748,-0.0038 -0.613833,-0.2328333 -0.02104,-0.1828774 -0.07675,-0.2385814 -0.259624,-0.2596237 l -0.232833,-0.026791 v 1.6989571 c 0,1.5616066 0.01198,1.6989577 0.148166,1.6989657 0.119071,6.9e-6 0.146666,-0.070655 0.140521,-0.3598333 z m 0.02406,-1.0489846 c -0.07902,-0.079015 0.01647,-0.1998574 0.157917,-0.1998574 0.0671,0 0.122003,0.05715 0.122003,0.127 0,0.1275275 -0.17873,0.1740472 -0.27992,0.072857 z m 0.449254,-0.072857 c 0,-0.06985 0.05715,-0.127 0.127,-0.127 0.06985,0 0.127,0.05715 0.127,0.127 0,0.06985 -0.05715,0.127 -0.127,0.127 -0.06985,0 -0.127,-0.05715 -0.127,-0.127 z m 0.423333,0 c 0,-0.06985 0.05715,-0.127 0.127,-0.127 0.06985,0 0.127,0.05715 0.127,0.127 0,0.06985 -0.05715,0.127 -0.127,0.127 -0.06985,0 -0.127,-0.05715 -0.127,-0.127 z m 0.423333,0 c 0,-0.06985 0.05715,-0.127 0.127,-0.127 0.06985,0 0.127,0.05715 0.127,0.127 0,0.06985 -0.05715,0.127 -0.127,0.127 -0.06985,0 -0.127,-0.05715 -0.127,-0.127 z m -1.27,-0.4233333 c 0,-0.06985 0.05715,-0.127 0.127,-0.127 0.06985,0 0.127,0.05715 0.127,0.127 0,0.06985 -0.05715,0.127 -0.127,0.127 -0.06985,0 -0.127,-0.05715 -0.127,-0.127 z m 0.423334,0 c 0,-0.06985 0.05715,-0.127 0.127,-0.127 0.06985,0 0.127,0.05715 0.127,0.127 0,0.06985 -0.05715,0.127 -0.127,0.127 -0.06985,0 -0.127,-0.05715 -0.127,-0.127 z m 0.423333,0 c 0,-0.06985 0.05715,-0.127 0.127,-0.127 0.06985,0 0.127,0.05715 0.127,0.127 0,0.06985 -0.05715,0.127 -0.127,0.127 -0.06985,0 -0.127,-0.05715 -0.127,-0.127 z m 0.423333,0 c 0,-0.06985 0.05715,-0.127 0.127,-0.127 0.06985,0 0.127,0.05715 0.127,0.127 0,0.06985 -0.05715,0.127 -0.127,0.127 -0.06985,0 -0.127,-0.05715 -0.127,-0.127 z m -1.27,-0.4233333 c 0,-0.06985 0.05715,-0.127 0.127,-0.127 0.06985,0 0.127,0.05715 0.127,0.127 0,0.06985 -0.05715,0.127 -0.127,0.127 -0.06985,0 -0.127,-0.05715 -0.127,-0.127 z m 0.423334,0 c 0,-0.06985 0.05715,-0.127 0.127,-0.127 0.06985,0 0.127,0.05715 0.127,0.127 0,0.06985 -0.05715,0.127 -0.127,0.127 -0.06985,0 -0.127,-0.05715 -0.127,-0.127 z m 0.423333,0 c 0,-0.06985 0.05715,-0.127 0.127,-0.127 0.06985,0 0.127,0.05715 0.127,0.127 0,0.06985 -0.05715,0.127 -0.127,0.127 -0.06985,0 -0.127,-0.05715 -0.127,-0.127 z m 0.423333,0 c 0,-0.06985 0.05715,-0.127 0.127,-0.127 0.06985,0 0.127,0.05715 0.127,0.127 0,0.06985 -0.05715,0.127 -0.127,0.127 -0.06985,0 -0.127,-0.05715 -0.127,-0.127 z m 0.08467,1.9896666 V 5.281885 h -0.592667 -0.592666 v 0.3386667 0.3386667 h 0.592666 0.592667 z M -13.145812,2.4828 c 0,-0.4456869 -0.05978,-0.4908345 -0.5715,-0.4315862 -0.267419,0.030963 -0.275167,0.043201 -0.275167,0.4346412 v 0.4027813 h 0.423333 0.423334 z m -0.677334,0.019192 c 0,-0.2100988 0.03154,-0.2398889 0.254,-0.2398889 0.222458,0 0.254,0.02979 0.254,0.2398889 0,0.2462127 -0.116616,0.3226163 -0.204611,0.1340555 -0.03951,-0.084667 -0.05927,-0.084667 -0.09878,0 -0.08799,0.1885608 -0.204611,0.1121572 -0.204611,-0.1340555 z"
         id="path1350" />
      <path
         style="fill:#a1a1a1;fill-opacity:1;stroke-width:0.0846667"
         d="m -15.939816,6.1285517 c 0,-0.046567 0.0762,-0.084667 0.169333,-0.084667 0.160302,0 0.169333,-0.056444 0.169333,-1.0583333 v -1.058333 h 0.338667 0.338667 V 3.1742768 c 0,-0.8185276 0.02238,-0.8557251 0.514924,-0.8557251 0.218084,0 0.247076,-0.029804 0.247076,-0.254 v -0.254 h 0.592666 0.592667 v 0.254 c 0,0.2121981 0.03369,0.254 0.204742,0.254 0.444886,0 0.472591,0.049881 0.472591,0.8508569 v 0.7480735 l 0.359834,0.026035 0.359833,0.026035 0.02377,1.0371667 c 0.02241,0.9777217 0.03361,1.0371666 0.195496,1.0371666 0.09445,0 0.148177,0.0381 0.119398,0.084667 -0.03283,0.053116 -0.918102,0.084667 -2.375664,0.084667 -1.492446,0 -2.323336,-0.030279 -2.323336,-0.084667 z m 1.016,-1.0639571 V 4.0853042 l -0.232834,0.02679 -0.232833,0.02679 -0.02441,0.8406401 c -0.01343,0.4623521 -0.0051,0.8909771 0.01851,0.9525 0.02361,0.061523 0.139371,0.1118598 0.257249,0.1118598 h 0.214324 z m 0.575725,0.449301 0.02539,-0.4860106 h 0.753549 0.75355 l 0.02539,0.4868334 c 0.01904,0.365011 0.05717,0.4868333 0.152392,0.4868333 0.107953,0 0.130437,-0.257131 0.149919,-1.7145 l 0.02292,-1.7145 h -0.255753 c -0.227726,0 -0.255753,0.027835 -0.255753,0.254 v 0.254 h -0.592667 -0.592666 v -0.254 c 0,-0.2257778 -0.02822,-0.254 -0.254,-0.254 h -0.254 v 1.7418748 c 0,1.6132258 0.01094,1.7397922 0.148166,1.7136772 0.116878,-0.022243 0.153529,-0.1308317 0.173559,-0.5142081 z m 0.01694,-1.0363439 c 0,-0.06985 0.05715,-0.127 0.127,-0.127 0.06985,0 0.127,0.05715 0.127,0.127 0,0.06985 -0.05715,0.127 -0.127,0.127 -0.06985,0 -0.127,-0.05715 -0.127,-0.127 z m 0.423334,0 c 0,-0.06985 0.05715,-0.127 0.127,-0.127 0.06985,0 0.127,0.05715 0.127,0.127 0,0.06985 -0.05715,0.127 -0.127,0.127 -0.06985,0 -0.127,-0.05715 -0.127,-0.127 z m 0.423333,0 c 0,-0.06985 0.05715,-0.127 0.127,-0.127 0.06985,0 0.127,0.05715 0.127,0.127 0,0.06985 -0.05715,0.127 -0.127,0.127 -0.06985,0 -0.127,-0.05715 -0.127,-0.127 z m 0.423333,0 c 0,-0.06985 0.05715,-0.127 0.127,-0.127 0.06985,0 0.127,0.05715 0.127,0.127 0,0.06985 -0.05715,0.127 -0.127,0.127 -0.06985,0 -0.127,-0.05715 -0.127,-0.127 z m -1.27,-0.4233333 c 0,-0.06985 0.05715,-0.127 0.127,-0.127 0.06985,0 0.127,0.05715 0.127,0.127 0,0.06985 -0.05715,0.127 -0.127,0.127 -0.06985,0 -0.127,-0.05715 -0.127,-0.127 z m 0.423334,0 c 0,-0.06985 0.05715,-0.127 0.127,-0.127 0.06985,0 0.127,0.05715 0.127,0.127 0,0.06985 -0.05715,0.127 -0.127,0.127 -0.06985,0 -0.127,-0.05715 -0.127,-0.127 z m 0.423333,0 c 0,-0.06985 0.05715,-0.127 0.127,-0.127 0.06985,0 0.127,0.05715 0.127,0.127 0,0.06985 -0.05715,0.127 -0.127,0.127 -0.06985,0 -0.127,-0.05715 -0.127,-0.127 z m 0.423333,0 c 0,-0.06985 0.05715,-0.127 0.127,-0.127 0.06985,0 0.127,0.05715 0.127,0.127 0,0.06985 -0.05715,0.127 -0.127,0.127 -0.06985,0 -0.127,-0.05715 -0.127,-0.127 z m -1.27,-0.4233333 c 0,-0.06985 0.05715,-0.127 0.127,-0.127 0.06985,0 0.127,0.05715 0.127,0.127 0,0.06985 -0.05715,0.127 -0.127,0.127 -0.06985,0 -0.127,-0.05715 -0.127,-0.127 z m 0.423334,0 c 0,-0.06985 0.05715,-0.127 0.127,-0.127 0.06985,0 0.127,0.05715 0.127,0.127 0,0.06985 -0.05715,0.127 -0.127,0.127 -0.06985,0 -0.127,-0.05715 -0.127,-0.127 z m 0.423333,0 c 0,-0.06985 0.05715,-0.127 0.127,-0.127 0.06985,0 0.127,0.05715 0.127,0.127 0,0.06985 -0.05715,0.127 -0.127,0.127 -0.06985,0 -0.127,-0.05715 -0.127,-0.127 z m 0.423333,0 c 0,-0.06985 0.05715,-0.127 0.127,-0.127 0.06985,0 0.127,0.05715 0.127,0.127 0,0.06985 -0.05715,0.127 -0.127,0.127 -0.06985,0 -0.127,-0.05715 -0.127,-0.127 z m 0.06936,2.0406178 c 0.01486,-0.1815268 -0.01006,-0.3529768 -0.05539,-0.381 -0.04533,-0.028023 -0.305139,-0.048539 -0.577359,-0.045591 l -0.494946,0.00536 -0.02713,0.2778667 c -0.04416,0.4522496 0.0029,0.4906306 0.591005,0.4816296 l 0.536794,-0.00822 z M -11.79115,5.0702184 V 4.0965517 h -0.254 -0.254 v 0.9172222 c 0,0.5044723 0.0254,0.9426223 0.05644,0.9736667 0.03104,0.031044 0.145344,0.056444 0.254,0.056444 0.19551,0 0.197555,-0.010079 0.197555,-0.9736666 z m -1.371408,-2.6025768 -0.02559,-0.4435768 -0.381,0.00618 -0.381,0.00618 -0.02559,0.4373962 -0.02559,0.437396 h 0.432182 0.432183 z m -0.660592,0.034355 c 0,-0.2100988 0.03154,-0.2398889 0.254,-0.2398889 0.222458,0 0.254,0.02979 0.254,0.2398889 0,0.2462127 -0.116616,0.3226163 -0.204611,0.1340555 -0.03951,-0.084667 -0.05927,-0.084667 -0.09878,0 -0.08799,0.1885608 -0.204611,0.1121572 -0.204611,-0.1340555 z"
         id="path1348" />
      <path
         style="fill:#939393;fill-opacity:1;stroke-width:0.0846667"
         d="m -15.897483,6.1285517 c -0.02878,-0.046567 0.02612,-0.084667 0.122003,-0.084667 0.166698,0 0.17433,-0.046333 0.17433,-1.0583333 v -1.058333 h 0.338667 c 0.186267,0 0.341941,-0.028575 0.345942,-0.0635 0.004,-0.034925 0.01152,-0.3760015 0.0167,-0.7579479 l 0.0094,-0.6944478 0.343133,-0.025219 c 0.320124,-0.023528 0.344931,-0.043921 0.369943,-0.3041253 l 0.02681,-0.2789064 0.565308,0.024906 c 0.554877,0.024447 0.566116,0.029593 0.609177,0.2789065 0.03427,0.1984095 0.08998,0.256291 0.25455,0.2644679 0.115873,0.00576 0.258304,0.015282 0.316512,0.021167 0.07598,0.00768 0.105833,0.2242755 0.105833,0.7678305 v 0.7571319 l 0.359834,0.026035 0.359833,0.026035 0.0186,0.9736667 c 0.01023,0.5355166 0.01975,1.0022416 0.02117,1.0371666 0.0014,0.034925 0.05972,0.0635 0.129569,0.0635 0.06985,0 0.127,0.0381 0.127,0.084667 0,0.1156764 -4.542841,0.1156764 -4.614333,0 z m 0.982863,-0.2328333 c 0.0051,-0.081492 0.01458,-0.5196317 0.02117,-0.9736444 l 0.01197,-0.8254777 -0.275167,-2.23e-5 -0.275166,-2.23e-5 v 0.9172222 c 0,0.5044723 0.0254,0.9426223 0.05644,0.9736667 0.121338,0.1213379 0.451609,0.055591 0.460752,-0.091722 z m 0.566625,-0.3850562 0.02549,-0.4892437 0.736511,0.0244 0.736512,0.0244 0.02539,0.4868333 c 0.02178,0.4175556 0.04889,0.4868333 0.1905,0.4868333 0.15833,0 0.165108,-0.07125 0.165108,-1.7356666 V 2.5725517 h -0.254 c -0.225778,0 -0.254,0.028222 -0.254,0.254 v 0.254 h -0.592667 -0.592666 v -0.254 c 0,-0.2257778 -0.02822,-0.254 -0.254,-0.254 -0.1397,0 -0.255454,0.028575 -0.257232,0.0635 -0.0077,0.1503603 -0.0096,1.4965269 -0.0034,2.4192081 0.006,0.9056782 0.02077,0.9983552 0.154821,0.9728439 0.117025,-0.022271 0.153524,-0.1310276 0.173655,-0.5174415 z m 0.01685,-1.040166 c 0,-0.1495152 0.182267,-0.123477 0.234597,0.033514 0.01843,0.055298 -0.02681,0.1005417 -0.100541,0.1005417 -0.07373,0 -0.134056,-0.060325 -0.134056,-0.1340557 z m 0.423334,0.00706 c 0,-0.06985 0.05715,-0.127 0.127,-0.127 0.06985,0 0.127,0.05715 0.127,0.127 0,0.06985 -0.05715,0.127 -0.127,0.127 -0.06985,0 -0.127,-0.05715 -0.127,-0.127 z m 0.423333,0 c 0,-0.06985 0.05715,-0.127 0.127,-0.127 0.06985,0 0.127,0.05715 0.127,0.127 0,0.06985 -0.05715,0.127 -0.127,0.127 -0.06985,0 -0.127,-0.05715 -0.127,-0.127 z m 0.423333,0 c 0,-0.06985 0.05715,-0.127 0.127,-0.127 0.06985,0 0.127,0.05715 0.127,0.127 0,0.06985 -0.05715,0.127 -0.127,0.127 -0.06985,0 -0.127,-0.05715 -0.127,-0.127 z m -1.27,-0.4233333 c 0,-0.06985 0.05715,-0.127 0.127,-0.127 0.06985,0 0.127,0.05715 0.127,0.127 0,0.06985 -0.05715,0.127 -0.127,0.127 -0.06985,0 -0.127,-0.05715 -0.127,-0.127 z m 0.423334,0 c 0,-0.06985 0.05715,-0.127 0.127,-0.127 0.06985,0 0.127,0.05715 0.127,0.127 0,0.06985 -0.05715,0.127 -0.127,0.127 -0.06985,0 -0.127,-0.05715 -0.127,-0.127 z m 0.423333,0 c 0,-0.06985 0.05715,-0.127 0.127,-0.127 0.06985,0 0.127,0.05715 0.127,0.127 0,0.06985 -0.05715,0.127 -0.127,0.127 -0.06985,0 -0.127,-0.05715 -0.127,-0.127 z m 0.423333,0 c 0,-0.06985 0.05715,-0.127 0.127,-0.127 0.06985,0 0.127,0.05715 0.127,0.127 0,0.06985 -0.05715,0.127 -0.127,0.127 -0.06985,0 -0.127,-0.05715 -0.127,-0.127 z m -1.27,-0.4162778 c 0,-0.07373 0.06032,-0.1340555 0.134056,-0.1340555 0.149515,0 0.123477,0.1822669 -0.03351,0.2345972 -0.0553,0.018433 -0.100542,-0.026811 -0.100542,-0.1005417 z m 0.423334,-0.00706 c 0,-0.06985 0.05715,-0.127 0.127,-0.127 0.06985,0 0.127,0.05715 0.127,0.127 0,0.06985 -0.05715,0.127 -0.127,0.127 -0.06985,0 -0.127,-0.05715 -0.127,-0.127 z m 0.423333,0 c 0,-0.06985 0.05715,-0.127 0.127,-0.127 0.06985,0 0.127,0.05715 0.127,0.127 0,0.06985 -0.05715,0.127 -0.127,0.127 -0.06985,0 -0.127,-0.05715 -0.127,-0.127 z m 0.423333,0 c 0,-0.06985 0.05715,-0.127 0.127,-0.127 0.06985,0 0.127,0.05715 0.127,0.127 0,0.06985 -0.05715,0.127 -0.127,0.127 -0.06985,0 -0.127,-0.05715 -0.127,-0.127 z m 0.08467,1.9896666 V 5.1972184 h -0.592667 -0.592666 V 5.6205517 6.043885 h 0.592666 0.592667 z m 1.200611,0.2328333 c 0.01488,-0.104775 0.01492,-0.542925 7.9e-5,-0.9736666 l -0.02698,-0.7831667 h -0.248191 -0.24819 v 0.9172222 c 0,0.5044723 0.0254,0.9426223 0.05644,0.9736667 0.03104,0.031044 0.142694,0.056444 0.248111,0.056444 0.134305,0 0.199764,-0.057013 0.218722,-0.1905 z M -13.145816,2.4455517 V 1.9798851 h -0.423334 -0.423333 v 0.4656666 0.4656667 h 0.423333 0.423334 z m -0.677334,0.0527 c 0,-0.1454019 0.0381,-0.264367 0.08467,-0.264367 0.04657,0 0.08467,0.04572 0.08467,0.1016 0,0.079022 0.02258,0.079022 0.1016,0 0.156917,-0.1569178 0.237066,-0.121395 0.237066,0.1050699 0,0.2272669 -0.133841,0.3648691 -0.190666,0.1960243 -0.02804,-0.083322 -0.06629,-0.08119 -0.176565,0.00984 -0.126002,0.1040105 -0.140769,0.088467 -0.140769,-0.1481666 z"
         id="path1346" />
      <path
         style="fill:#858585;fill-opacity:1;stroke-width:0.0846667"
         d="m -15.897483,6.1285517 c -0.02878,-0.046567 0.02495,-0.084667 0.119397,-0.084667 0.161882,0 0.173087,-0.059445 0.195497,-1.0371666 l 0.02377,-1.0371667 0.365212,-0.026298 0.365211,-0.026298 -0.01157,-0.6087024 c -0.01789,-0.9408771 -0.03481,-0.8918619 0.317936,-0.9210915 0.278458,-0.023074 0.322376,-0.057244 0.360239,-0.2802775 0.03939,-0.2320247 0.07546,-0.2563133 0.416923,-0.2807372 0.594745,-0.042541 0.768385,0.030831 0.768385,0.3246836 0,0.238007 0.0193,0.2523869 0.338667,0.2523869 h 0.338666 v 0.762 0.762 h 0.338667 0.338667 v 1.0239265 c 0,0.9527214 0.01178,1.0270058 0.169333,1.068208 0.09313,0.024355 0.169333,0.077938 0.169333,0.1190736 0,0.1065358 -4.548403,0.096802 -4.614333,-0.00987 z m 1.03994,-1.0795 0.02394,-0.9525 h -0.299106 -0.299106 v 0.9172222 c 0,0.5044723 0.02715,0.9443714 0.06033,0.9775537 0.03318,0.033182 0.157007,0.049057 0.275167,0.035278 0.214156,-0.024974 0.214911,-0.028064 0.238775,-0.9775539 z m 0.526393,0.4860994 0.04233,-0.4649327 h 0.719666 0.719667 l 0.02539,0.4868333 c 0.02178,0.4175556 0.04889,0.4868333 0.1905,0.4868333 0.15833,0 0.165108,-0.07125 0.165108,-1.7356666 V 2.5725517 h -0.254 c -0.225778,0 -0.254,0.028222 -0.254,0.254 v 0.254 h -0.592667 -0.592666 v -0.254 c 0,-0.2310524 -0.02531,-0.254 -0.280183,-0.254 h -0.280183 l 0.013,1.6721667 c 0.0071,0.9196916 0.01893,1.7035353 0.02618,1.7418747 0.0073,0.038339 0.07986,0.057059 0.16135,0.041599 0.113113,-0.021459 0.158182,-0.1381049 0.1905,-0.4930414 z m 0,-1.0646549 c 0,-0.1495152 0.182267,-0.123477 0.234597,0.033514 0.01843,0.055298 -0.02681,0.1005417 -0.100541,0.1005417 -0.07373,0 -0.134056,-0.060325 -0.134056,-0.1340557 z m 0.423334,0.00706 c 0,-0.06985 0.05715,-0.127 0.127,-0.127 0.06985,0 0.127,0.05715 0.127,0.127 0,0.06985 -0.05715,0.127 -0.127,0.127 -0.06985,0 -0.127,-0.05715 -0.127,-0.127 z m 0.423333,0 c 0,-0.06985 0.05715,-0.127 0.127,-0.127 0.06985,0 0.127,0.05715 0.127,0.127 0,0.06985 -0.05715,0.127 -0.127,0.127 -0.06985,0 -0.127,-0.05715 -0.127,-0.127 z m 0.442736,0.026458 c 0.05233,-0.1569908 0.234597,-0.183029 0.234597,-0.033514 0,0.07373 -0.06033,0.1340555 -0.134055,0.1340555 -0.07373,0 -0.118975,-0.045244 -0.100542,-0.1005415 z M -14.33115,4.0542184 c 0,-0.077611 0.04096,-0.1274587 0.09102,-0.1107722 0.05006,0.016686 0.09102,0.066534 0.09102,0.1107722 0,0.044238 -0.04096,0.094086 -0.09102,0.1107722 -0.05006,0.016686 -0.09102,-0.033161 -0.09102,-0.1107722 z m 0.423334,0 c 0,-0.06985 0.05715,-0.127 0.127,-0.127 0.06985,0 0.127,0.05715 0.127,0.127 0,0.06985 -0.05715,0.127 -0.127,0.127 -0.06985,0 -0.127,-0.05715 -0.127,-0.127 z m 0.423333,0 c 0,-0.06985 0.05715,-0.127 0.127,-0.127 0.06985,0 0.127,0.05715 0.127,0.127 0,0.06985 -0.05715,0.127 -0.127,0.127 -0.06985,0 -0.127,-0.05715 -0.127,-0.127 z m 0.423333,0 c 0,-0.06985 0.05715,-0.127 0.127,-0.127 0.06985,0 0.127,0.05715 0.127,0.127 0,0.06985 -0.05715,0.127 -0.127,0.127 -0.06985,0 -0.127,-0.05715 -0.127,-0.127 z m -1.27,-0.4162778 c 0,-0.07373 0.06032,-0.1340555 0.134056,-0.1340555 0.149515,0 0.123477,0.1822669 -0.03351,0.2345972 -0.0553,0.018433 -0.100542,-0.026811 -0.100542,-0.1005417 z m 0.423334,-0.00706 c 0,-0.06985 0.05715,-0.127 0.127,-0.127 0.06985,0 0.127,0.05715 0.127,0.127 0,0.06985 -0.05715,0.127 -0.127,0.127 -0.06985,0 -0.127,-0.05715 -0.127,-0.127 z m 0.423333,0 c 0,-0.06985 0.05715,-0.127 0.127,-0.127 0.06985,0 0.127,0.05715 0.127,0.127 0,0.06985 -0.05715,0.127 -0.127,0.127 -0.06985,0 -0.127,-0.05715 -0.127,-0.127 z m 0.423333,0 c 0,-0.06985 0.05715,-0.127 0.127,-0.127 0.06985,0 0.127,0.05715 0.127,0.127 0,0.06985 -0.05715,0.127 -0.127,0.127 -0.06985,0 -0.127,-0.05715 -0.127,-0.127 z m 0.08467,1.9896666 V 5.1972184 h -0.592667 -0.592666 V 5.6205517 6.043885 h 0.592666 0.592667 z m 1.227863,0.0635 c 0.0291,-0.1979083 0.04096,-0.6265333 0.02635,-0.9525 l -0.02655,-0.5926666 -0.275167,-0.026531 -0.275167,-0.026531 v 0.9225866 c 0,0.5074226 0.0254,0.9479866 0.05644,0.979031 0.03104,0.031044 0.14301,0.056444 0.248812,0.056444 0.161572,0 0.200837,-0.057605 0.245273,-0.3598333 z m -1.397196,-3.2385 V 1.9798851 h -0.423334 -0.423333 v 0.4656666 0.4656667 h 0.423333 0.423334 z m -0.677334,-0.014111 c 0,-0.2112758 0.123073,-0.2664465 0.204611,-0.091722 0.03951,0.084667 0.05927,0.084667 0.09878,0 0.08154,-0.1747243 0.204611,-0.1195536 0.204611,0.091722 0,0.1630617 -0.04435,0.1975556 -0.254,0.1975556 -0.20965,0 -0.254,-0.034494 -0.254,-0.1975556 z"
         id="path1344" />
      <path
         style="fill:#787878;fill-opacity:1;stroke-width:0.0846667"
         d="m -15.85515,6.1285517 c 0,-0.046567 0.05598,-0.084667 0.124394,-0.084667 0.101351,0 0.128798,-0.1921289 0.148167,-1.0371666 l 0.02377,-1.0371667 0.359833,-0.026035 0.359833,-0.026035 V 3.1654611 2.4134403 l 0.3175,-0.026278 c 0.275648,-0.022814 0.321032,-0.056969 0.344291,-0.2591109 0.01473,-0.1280583 0.07188,-0.2367802 0.127,-0.2416042 0.367915,-0.032202 0.878902,-0.03604 0.968043,-0.00727 0.05821,0.018787 0.105833,0.1443812 0.105833,0.2790991 0,0.2293205 0.0216,0.2449413 0.338667,0.2449413 h 0.338666 v 0.762 0.762 h 0.338667 0.338667 v 1.0239265 c 0,0.9527214 0.01178,1.0270058 0.169333,1.068208 0.529324,0.1384213 -0.07603,0.1938655 -2.116667,0.1938655 -1.467555,0 -2.286,-0.030313 -2.286,-0.084667 z m 0.997607,-1.0795 0.02394,-0.9525 h -0.299106 -0.299106 v 0.9172222 c 0,0.5044723 0.02715,0.9443714 0.06033,0.9775537 0.03318,0.033182 0.157007,0.049057 0.275167,0.035278 0.214156,-0.024974 0.214911,-0.028064 0.238775,-0.9775539 z m 0.526393,0.5330032 c 0,-0.4566135 0.0031,-0.4622697 0.275167,-0.5007387 0.411159,-0.058138 0.66812,-0.060272 0.973667,-0.00809 0.27107,0.046296 0.275166,0.053872 0.275166,0.5088261 0,0.4053856 0.0207,0.46183 0.169334,0.46183 0.163942,0 0.169333,-0.056444 0.169333,-1.7729273 V 2.4980303 l -0.232833,0.01744 c -0.196111,0.01469 -0.237018,0.060628 -0.259365,0.2912607 l -0.02653,0.2738203 h -0.581938 -0.581938 l -0.02653,-0.2751666 c -0.02347,-0.2434005 -0.05585,-0.2751667 -0.280531,-0.2751667 h -0.254 l -0.02157,1.651 c -0.01187,0.90805 -0.0035,1.698625 0.01851,1.7568333 0.02205,0.058208 0.117479,0.1058333 0.212074,0.1058333 0.151856,0 0.17199,-0.054066 0.17199,-0.4618301 z m 0,-1.1115587 c 0,-0.1495152 0.182267,-0.123477 0.234597,0.033514 0.01843,0.055298 -0.02681,0.1005417 -0.100541,0.1005417 -0.07373,0 -0.134056,-0.060325 -0.134056,-0.1340557 z m 0.423334,0 c 0,-0.1495152 0.182267,-0.123477 0.234597,0.033514 0.01843,0.055298 -0.02681,0.1005417 -0.100542,0.1005417 -0.07373,0 -0.134055,-0.060325 -0.134055,-0.1340557 z m 0.423333,0.00706 c 0,-0.06985 0.05715,-0.127 0.127,-0.127 0.06985,0 0.127,0.05715 0.127,0.127 0,0.06985 -0.05715,0.127 -0.127,0.127 -0.06985,0 -0.127,-0.05715 -0.127,-0.127 z m 0.442736,0.026458 c 0.05233,-0.1569908 0.234597,-0.183029 0.234597,-0.033514 0,0.07373 -0.06033,0.1340555 -0.134055,0.1340555 -0.07373,0 -0.118975,-0.045244 -0.100542,-0.1005415 z M -14.33115,4.0542184 c 0,-0.077611 0.04096,-0.1274587 0.09102,-0.1107722 0.05006,0.016686 0.09102,0.066534 0.09102,0.1107722 0,0.044238 -0.04096,0.094086 -0.09102,0.1107722 -0.05006,0.016686 -0.09102,-0.033161 -0.09102,-0.1107722 z m 0.423334,0 c 0,-0.06985 0.05715,-0.127 0.127,-0.127 0.06985,0 0.127,0.05715 0.127,0.127 0,0.06985 -0.05715,0.127 -0.127,0.127 -0.06985,0 -0.127,-0.05715 -0.127,-0.127 z m 0.423333,0 c 0,-0.06985 0.05715,-0.127 0.127,-0.127 0.06985,0 0.127,0.05715 0.127,0.127 0,0.06985 -0.05715,0.127 -0.127,0.127 -0.06985,0 -0.127,-0.05715 -0.127,-0.127 z m 0.423333,0 c 0,-0.06985 0.05715,-0.127 0.127,-0.127 0.06985,0 0.127,0.05715 0.127,0.127 0,0.06985 -0.05715,0.127 -0.127,0.127 -0.06985,0 -0.127,-0.05715 -0.127,-0.127 z m -1.27,-0.4233333 c 0,-0.077611 0.04096,-0.1274587 0.09102,-0.1107722 0.05006,0.016686 0.09102,0.066534 0.09102,0.1107722 0,0.044238 -0.04096,0.094086 -0.09102,0.1107722 -0.05006,0.016686 -0.09102,-0.033161 -0.09102,-0.1107722 z m 0.423334,0.00706 c 0,-0.07373 0.06033,-0.1340552 0.134055,-0.1340552 0.149515,0 0.123477,0.1822669 -0.03351,0.2345972 -0.0553,0.018433 -0.100541,-0.026811 -0.100541,-0.1005417 z m 0.423333,-0.00706 c 0,-0.06985 0.05715,-0.127 0.127,-0.127 0.06985,0 0.127,0.05715 0.127,0.127 0,0.06985 -0.05715,0.127 -0.127,0.127 -0.06985,0 -0.127,-0.05715 -0.127,-0.127 z m 0.479778,0.070556 c -0.09742,-0.09742 -0.06166,-0.1975555 0.07055,-0.1975555 0.06985,0 0.127,0.05715 0.127,0.127 0,0.1322132 -0.100135,0.1679758 -0.197555,0.070556 z m 0.02822,1.9191111 V 5.1972184 h -0.592667 -0.592666 V 5.6205517 6.043885 h 0.592666 0.592667 z m 1.251606,-0.5715 0.02394,-0.9525 h -0.299106 -0.299107 v 0.979031 0.979031 l 0.275167,-0.026531 0.275167,-0.026531 z m -1.420939,-2.6035 V 1.9798851 h -0.423334 -0.423333 v 0.4656666 0.4656667 h 0.423333 0.423334 z m -0.677334,-0.014111 c 0,-0.2112758 0.123073,-0.2664465 0.204611,-0.091722 0.03951,0.084667 0.05927,0.084667 0.09878,0 0.08154,-0.1747243 0.204611,-0.1195536 0.204611,0.091722 0,0.1630617 -0.04435,0.1975556 -0.254,0.1975556 -0.20965,0 -0.254,-0.034494 -0.254,-0.1975556 z"
         id="path1342" />
      <path
         style="fill:#6a6a6a;fill-opacity:1;stroke-width:0.0846667"
         d="m -15.85515,6.1285517 c 0,-0.046567 0.05715,-0.084667 0.127,-0.084667 0.149539,0 0.148192,0.010373 0.128706,-0.9916017 -0.02027,-1.0422154 0.0112,-1.1250649 0.427333,-1.1250649 h 0.332961 v -0.762 -0.762 h 0.338667 c 0.319852,0 0.338667,-0.014111 0.338667,-0.254 v -0.254 h 0.592666 0.592667 v 0.254 c 0,0.2398889 0.01882,0.254 0.338667,0.254 h 0.338666 v 0.762 0.762 h 0.338667 0.338667 v 1.0239265 c 0,0.9527214 0.01178,1.0270058 0.169333,1.068208 0.529324,0.1384213 -0.07603,0.1938655 -2.116667,0.1938655 -1.467555,0 -2.286,-0.030313 -2.286,-0.084666 z m 0.997607,-1.0795 0.02394,-0.9525 h -0.299106 -0.299106 v 0.979031 0.979031 l 0.275166,-0.026531 0.275167,-0.026531 z m 0.526393,0.5350553 c 0,-0.5318425 0.0014,-0.5325621 0.9525,-0.4857743 l 0.5715,0.028114 v 0.458719 c 0,0.4022746 0.02084,0.458719 0.169334,0.458719 0.163957,0 0.169333,-0.056444 0.169333,-1.7779999 v -1.778 h -0.248636 c -0.218625,0 -0.251838,0.033213 -0.275166,0.2751666 l -0.02653,0.2751667 h -0.549502 c -0.544336,0 -0.549916,-0.00239 -0.593498,-0.254 -0.03738,-0.2157833 -0.08209,-0.254 -0.297165,-0.254 h -0.253169 l -0.02306,1.6485045 c -0.01268,0.9066776 -0.0044,1.6972526 0.01851,1.7568333 0.02286,0.059581 0.118966,0.1083288 0.213561,0.1083288 0.151762,0 0.17199,-0.054077 0.17199,-0.459778 z m 0.0127,-1.0599886 c 0.03638,-0.1091468 0.152511,-0.1287529 0.162984,-0.027517 0.0035,0.033761 -0.03937,0.076623 -0.09525,0.09525 -0.05588,0.018627 -0.08636,-0.011853 -0.06773,-0.067733 z m 0.410634,-0.053622 c 0,-0.1495152 0.182267,-0.123477 0.234597,0.033514 0.01843,0.055298 -0.02681,0.1005417 -0.100542,0.1005417 -0.07373,0 -0.134055,-0.060325 -0.134055,-0.1340557 z m 0.439561,0.043039 c 0.01669,-0.050059 0.06653,-0.091017 0.110772,-0.091017 0.04424,0 0.09409,0.040957 0.110772,0.091017 0.01669,0.050059 -0.03316,0.091017 -0.110772,0.091017 -0.07761,0 -0.127459,-0.040958 -0.110772,-0.091017 z m 0.423333,0 c 0.01669,-0.050059 0.06653,-0.091017 0.110772,-0.091017 0.04424,0 0.09409,0.040957 0.110772,0.091017 0.01669,0.050059 -0.03316,0.091017 -0.110772,0.091017 -0.07761,0 -0.127458,-0.040958 -0.110772,-0.091017 z m -1.286228,-0.459317 c 0,-0.077611 0.04096,-0.1274587 0.09102,-0.1107722 0.05006,0.016686 0.09102,0.066534 0.09102,0.1107722 0,0.044238 -0.04096,0.094086 -0.09102,0.1107722 -0.05006,0.016686 -0.09102,-0.033161 -0.09102,-0.1107722 z m 0.423334,0 c 0,-0.06985 0.05715,-0.127 0.127,-0.127 0.06985,0 0.127,0.05715 0.127,0.127 0,0.06985 -0.05715,0.127 -0.127,0.127 -0.06985,0 -0.127,-0.05715 -0.127,-0.127 z m 0.423333,0 c 0,-0.06985 0.05715,-0.127 0.127,-0.127 0.06985,0 0.127,0.05715 0.127,0.127 0,0.06985 -0.05715,0.127 -0.127,0.127 -0.06985,0 -0.127,-0.05715 -0.127,-0.127 z m 0.423333,0 c 0,-0.06985 0.05715,-0.127 0.127,-0.127 0.06985,0 0.127,0.05715 0.127,0.127 0,0.06985 -0.05715,0.127 -0.127,0.127 -0.06985,0 -0.127,-0.05715 -0.127,-0.127 z m -1.27,-0.4233333 c 0,-0.077611 0.04096,-0.1274587 0.09102,-0.1107722 0.05006,0.016686 0.09102,0.066534 0.09102,0.1107722 0,0.044238 -0.04096,0.094086 -0.09102,0.1107722 -0.05006,0.016686 -0.09102,-0.033161 -0.09102,-0.1107722 z m 0.423334,0.00706 c 0,-0.07373 0.06033,-0.1340552 0.134055,-0.1340552 0.149515,0 0.123477,0.1822669 -0.03351,0.2345972 -0.0553,0.018433 -0.100541,-0.026811 -0.100541,-0.1005417 z m 0.477476,0.061198 c -0.09535,-0.09535 -0.05807,-0.1952535 0.07286,-0.1952535 0.06985,0 0.127,0.035851 0.127,0.07967 0,0.1067628 -0.132215,0.1832267 -0.199857,0.1155838 z m 0.427936,0.0046 c -0.06764,-0.067642 0.0088,-0.1998568 0.115584,-0.1998568 0.04382,0 0.07967,0.05715 0.07967,0.127 0,0.1309293 -0.0999,0.1682076 -0.195254,0.072857 z m 0.02592,1.9131006 V 5.1898 l -0.612809,0.024876 -0.612809,0.024876 0.01329,0.381 c 0.0073,0.20955 0.01637,0.390525 0.02014,0.4021667 0.0038,0.011642 0.27355,0.021167 0.599516,0.021167 h 0.592667 z m 1.251606,-0.5677908 0.02394,-0.9525 h -0.299106 -0.299107 v 0.979031 0.979031 l 0.275167,-0.026531 0.275167,-0.026531 z m -1.420939,-2.6035 V 1.9798851 h -0.423334 -0.423333 v 0.4656666 0.4656667 h 0.423333 0.423334 z m -0.677334,0 c 0,-0.2228826 0.120824,-0.2853777 0.204611,-0.1058333 0.03951,0.084667 0.05927,0.084667 0.09878,0 0.08379,-0.1795444 0.204611,-0.1170493 0.204611,0.1058333 0,0.2311066 -0.07924,0.2678956 -0.237066,0.1100667 -0.07902,-0.079022 -0.1016,-0.079022 -0.1016,0 0,0.05588 -0.0381,0.1016 -0.08467,0.1016 -0.04657,0 -0.08467,-0.09525 -0.08467,-0.2116667 z"
         id="path1340" />
      <path
         style="fill:#5c5c5c;fill-opacity:1;stroke-width:0.0846667"
         d="m -15.814121,6.1264415 c -0.02152,-0.034818 0.03665,-0.08312 0.129257,-0.1073376 0.156354,-0.040888 0.168381,-0.1171679 0.168381,-1.067959 V 3.9272184 h 0.338667 0.338666 v -0.762 -0.762 h 0.338667 c 0.319852,0 0.338667,-0.014111 0.338667,-0.254 v -0.254 h 0.592666 0.592667 v 0.254 c 0,0.2398889 0.01882,0.254 0.338667,0.254 h 0.338666 v 0.762 0.762 h 0.338667 0.338667 v 1.0583333 c 0,1.0290256 0.0051,1.0583333 0.183444,1.0583333 0.100894,0 0.154874,0.028575 0.119955,0.0635 -0.08311,0.083128 -4.444679,0.1016159 -4.495704,0.019057 z M -14.83915,5.0702184 V 4.0965517 h -0.296333 -0.296333 V 5.0702184 6.043885 h 0.296333 0.296333 z m 0.508,0.508 V 5.1125517 h 0.762 0.762 V 5.584107 c 0,0.4405923 0.01251,0.4697789 0.1905,0.4445 0.190481,-0.027052 0.1905,-0.027232 0.1905,-1.7627219 V 2.5302184 l -0.275166,-0.026531 c -0.256335,-0.024715 -0.275167,-0.00878 -0.275167,0.2328334 0,0.1426503 -0.02858,0.2639018 -0.0635,0.2694477 -0.243487,0.038664 -0.962451,0.036043 -1.026457,-0.00374 -0.04307,-0.026771 -0.09167,-0.1439238 -0.108007,-0.2603404 -0.02416,-0.1721402 -0.07713,-0.2116667 -0.283703,-0.2116667 h -0.254 l -0.02288,1.7568333 -0.02288,1.7568333 h 0.213385 c 0.202203,0 0.213384,-0.0244 0.213384,-0.4656666 z m 0,-1.0533366 c 0,-0.043819 0.0381,-0.1032169 0.08467,-0.1319968 0.04657,-0.02878 0.08467,0.00707 0.08467,0.07967 0,0.072598 -0.0381,0.1319968 -0.08467,0.1319968 -0.04657,0 -0.08467,-0.035851 -0.08467,-0.07967 z m 0.439561,-0.011347 c 0.01669,-0.050059 0.06653,-0.091017 0.110773,-0.091017 0.04424,0 0.09408,0.040957 0.110772,0.091017 0.01669,0.050059 -0.03316,0.091017 -0.110772,0.091017 -0.07761,0 -0.127459,-0.040958 -0.110773,-0.091017 z m 0.423334,0 c 0.01669,-0.050059 0.06653,-0.091017 0.110772,-0.091017 0.04424,0 0.09409,0.040957 0.110772,0.091017 0.01669,0.050059 -0.03316,0.091017 -0.110772,0.091017 -0.07761,0 -0.127459,-0.040958 -0.110772,-0.091017 z m 0.453054,0.0122 c -0.05783,-0.093576 0.07573,-0.1946192 0.153909,-0.1164374 0.0805,0.0805 0.0655,0.1952538 -0.02553,0.1952538 -0.04382,0 -0.10159,-0.035467 -0.128381,-0.078816 z M -14.33115,4.0542184 c 0,-0.06985 0.0381,-0.127 0.08467,-0.127 0.04657,0 0.08467,0.05715 0.08467,0.127 0,0.06985 -0.0381,0.127 -0.08467,0.127 -0.04657,0 -0.08467,-0.05715 -0.08467,-0.127 z m 0.423334,0 c 0,-0.077611 0.04096,-0.1274587 0.09102,-0.1107722 0.05006,0.016686 0.09102,0.066534 0.09102,0.1107722 0,0.044238 -0.04096,0.094086 -0.09102,0.1107722 -0.05006,0.016686 -0.09102,-0.033161 -0.09102,-0.1107722 z m 0.423333,0 c 0,-0.06985 0.05715,-0.127 0.127,-0.127 0.06985,0 0.127,0.05715 0.127,0.127 0,0.06985 -0.05715,0.127 -0.127,0.127 -0.06985,0 -0.127,-0.05715 -0.127,-0.127 z m 0.482079,0.072857 c -0.06764,-0.067643 0.0088,-0.1998573 0.115584,-0.1998573 0.04382,0 0.07967,0.05715 0.07967,0.127 0,0.1309294 -0.0999,0.1682076 -0.195254,0.072857 z M -14.33115,3.6308851 c 0,-0.06985 0.0381,-0.127 0.08467,-0.127 0.04657,0 0.08467,0.05715 0.08467,0.127 0,0.06985 -0.0381,0.127 -0.08467,0.127 -0.04657,0 -0.08467,-0.05715 -0.08467,-0.127 z m 0.423334,0 c 0,-0.077611 0.04096,-0.1274587 0.09102,-0.1107722 0.05006,0.016686 0.09102,0.066534 0.09102,0.1107722 0,0.044238 -0.04096,0.094086 -0.09102,0.1107722 -0.05006,0.016686 -0.09102,-0.033161 -0.09102,-0.1107722 z m 0.463038,0.038081 c -0.08045,-0.1301737 0.02975,-0.2141616 0.138417,-0.1054931 0.06081,0.060806 0.06227,0.1081638 0.0044,0.1439033 -0.04741,0.029299 -0.111692,0.012014 -0.142856,-0.03841 z m 0.442374,0.034776 c -0.06764,-0.067643 0.0088,-0.1998573 0.115584,-0.1998573 0.04382,0 0.07967,0.05715 0.07967,0.127 0,0.1309293 -0.0999,0.1682076 -0.195254,0.072857 z m 0.02592,1.9131001 V 5.1898 l -0.613833,0.024876 -0.613834,0.024876 -0.02713,0.2832266 c -0.04616,0.4818079 0.0036,0.5211067 0.659475,0.5211067 h 0.595324 z m 1.27,-0.5466241 V 4.0965517 h -0.296333 -0.296334 V 5.0702184 6.043885 h 0.296334 0.296333 z m -1.439332,-2.629091 V 1.9710358 l -0.442908,0.025591 -0.442908,0.025591 -0.004,0.381 c -0.0022,0.20955 0.0089,0.409575 0.02457,0.4445 0.01572,0.034925 0.216835,0.0635 0.44692,0.0635 h 0.418337 z m -0.677334,0.00442 c 0,-0.2228826 0.120824,-0.2853777 0.204611,-0.1058333 0.03951,0.084667 0.05927,0.084667 0.09878,0 0.08379,-0.1795444 0.204611,-0.1170493 0.204611,0.1058333 0,0.2311066 -0.07924,0.2678956 -0.237066,0.1100667 -0.07902,-0.079022 -0.1016,-0.079022 -0.1016,0 0,0.05588 -0.0381,0.1016 -0.08467,0.1016 -0.04657,0 -0.08467,-0.09525 -0.08467,-0.2116667 z"
         id="path1338" />
      <path
         style="fill:#4e4e4e;fill-opacity:1;stroke-width:0.0846667"
         d="m -15.177816,6.1285517 c -0.42953,-0.025266 -0.642866,-0.064738 -0.529167,-0.097907 0.183991,-0.053675 0.1905,-0.090561 0.1905,-1.0795 V 3.9272184 h 0.338667 0.338666 v -0.762 -0.762 h 0.338667 c 0.319852,0 0.338667,-0.014111 0.338667,-0.254 v -0.254 h 0.592666 0.592667 v 0.254 c 0,0.2398889 0.01882,0.254 0.338667,0.254 h 0.338666 v 0.7568891 0.756889 l 0.3175,0.026278 0.3175,0.026277 0.02373,1.0316136 c 0.02276,0.9894483 0.03141,1.0330997 0.211667,1.06797 0.103366,0.019996 -0.135911,0.043697 -0.531728,0.05267 -1.96146,0.044463 -2.554992,0.045708 -3.217333,0.00675 z M -14.83915,5.0702184 V 4.0965517 h -0.296333 -0.296333 V 5.0702184 6.043885 h 0.296333 0.296333 z m 0.508,0.508 V 5.1125517 h 0.762 0.762 V 5.584107 c 0,0.4405923 0.01251,0.4697789 0.1905,0.4445 0.190481,-0.027052 0.1905,-0.027232 0.1905,-1.7627219 V 2.5302184 l -0.275166,-0.026531 c -0.254331,-0.024522 -0.275167,-0.00759 -0.275167,0.2235702 0,0.2227961 -0.03235,0.2538784 -0.296333,0.2846966 -0.162984,0.019027 -0.429684,0.019027 -0.592667,0 -0.263981,-0.030818 -0.296333,-0.061901 -0.296333,-0.2846966 0,-0.2311633 -0.02084,-0.2480923 -0.275167,-0.2235702 l -0.275167,0.026531 -0.02288,1.7568333 -0.02288,1.7568333 h 0.213385 c 0.202203,0 0.213384,-0.0244 0.213384,-0.4656666 z m 0,-1.0583334 c 0,-0.046567 0.0381,-0.084667 0.08467,-0.084667 0.04657,0 0.08467,0.0381 0.08467,0.084667 0,0.046567 -0.0381,0.084667 -0.08467,0.084667 -0.04657,0 -0.08467,-0.0381 -0.08467,-0.084667 z m 0.436034,0.00423 c 0.03638,-0.1091468 0.15251,-0.1287529 0.162983,-0.027517 0.0035,0.033761 -0.03937,0.076623 -0.09525,0.09525 -0.05588,0.018627 -0.08636,-0.011853 -0.06773,-0.067733 z m 0.423333,0 c 0.03638,-0.1091468 0.152511,-0.1287529 0.162983,-0.027517 0.0035,0.033761 -0.03937,0.076623 -0.09525,0.09525 -0.05588,0.018627 -0.08636,-0.011853 -0.06773,-0.067733 z m 0.456582,0.00162 c -0.05783,-0.093576 0.07573,-0.1946194 0.153909,-0.1164376 0.0805,0.0805 0.0655,0.1952538 -0.02553,0.1952538 -0.04382,0 -0.10159,-0.035467 -0.128381,-0.078816 z m -1.27,-0.4233333 c -0.02679,-0.043349 -0.01,-0.1027477 0.03734,-0.131997 0.04733,-0.029249 0.08605,0.00622 0.08605,0.078816 0,0.1487192 -0.05081,0.1706168 -0.123385,0.05318 z m 0.377385,-0.048184 c 0,-0.077611 0.04096,-0.1274587 0.09102,-0.1107722 0.05006,0.016686 0.09102,0.066534 0.09102,0.1107722 0,0.044238 -0.04096,0.094086 -0.09102,0.1107722 -0.05006,0.016686 -0.09102,-0.033161 -0.09102,-0.1107722 z m 0.473841,0.055561 c -0.0293,-0.047406 -0.01201,-0.1116914 0.03841,-0.1428554 0.130174,-0.080452 0.214162,0.029748 0.105494,0.1384161 -0.06081,0.060806 -0.108164,0.062267 -0.143904,0.00444 z m 0.419628,-0.006 c -0.02726,-0.044109 -0.01348,-0.1025015 0.03063,-0.1297622 0.04411,-0.027261 0.102501,-0.013476 0.129762,0.030633 0.02726,0.044109 0.01348,0.1025015 -0.03063,0.1297621 -0.04411,0.027261 -0.102502,0.013476 -0.129762,-0.030633 z M -14.33115,3.6308851 c 0,-0.06985 0.0381,-0.127 0.08467,-0.127 0.04657,0 0.08467,0.05715 0.08467,0.127 0,0.06985 -0.0381,0.127 -0.08467,0.127 -0.04657,0 -0.08467,-0.05715 -0.08467,-0.127 z m 0.463039,0.038081 c -0.08045,-0.1301737 0.02975,-0.2141616 0.138416,-0.1054931 0.06081,0.060806 0.06227,0.1081638 0.0044,0.1439033 -0.04741,0.029299 -0.111691,0.012014 -0.142855,-0.03841 z m 0.423333,0 c -0.08045,-0.1301737 0.02975,-0.2141616 0.138417,-0.1054931 0.06081,0.060806 0.06227,0.1081638 0.0044,0.1439033 -0.04741,0.029299 -0.111692,0.012014 -0.142856,-0.03841 z m 0.430431,0.011483 c -0.02726,-0.044109 -0.01348,-0.1025016 0.03063,-0.1297622 0.04411,-0.02726 0.102501,-0.013476 0.129762,0.030633 0.02726,0.044109 0.01348,0.1025016 -0.03063,0.1297622 -0.04411,0.027261 -0.102502,0.013476 -0.129762,-0.030633 z m 0.05193,1.972202 c 0.01895,-0.2382438 -0.006,-0.4054899 -0.06389,-0.4276913 -0.05225,-0.020052 -0.338645,-0.024972 -0.636424,-0.010934 l -0.541416,0.025525 -0.02581,0.4021667 -0.02581,0.4021666 h 0.631114 0.631113 z m 1.255935,-0.5824334 v -0.973666 h -0.296333 -0.296334 V 5.0702184 6.043885 h 0.296334 0.296333 z M -13.145816,2.4411271 V 1.9710358 l -0.4445,0.025591 -0.4445,0.025591 -0.02681,0.3264036 c -0.04133,0.5031698 0.01041,0.5625964 0.489818,0.5625964 h 0.425991 z m -0.677334,0.00442 c 0,-0.2228826 0.120824,-0.2853777 0.204611,-0.1058333 0.03951,0.084667 0.05927,0.084667 0.09878,0 0.08379,-0.1795444 0.204611,-0.1170493 0.204611,0.1058333 0,0.2228827 -0.120823,0.2853778 -0.204611,0.1058334 -0.03951,-0.084667 -0.05927,-0.084667 -0.09878,0 -0.08379,0.1795444 -0.204611,0.1170493 -0.204611,-0.1058334 z"
         id="path1336" />
      <path
         style="fill:#404040;fill-opacity:1;stroke-width:0.0846667"
         d="m -15.709544,6.0691353 c 0.180257,-0.03487 0.188908,-0.078522 0.211666,-1.06797 l 0.02373,-1.0316136 0.3175,-0.026277 0.3175,-0.026278 V 3.1601075 2.4032184 h 0.338667 c 0.319852,0 0.338667,-0.014111 0.338667,-0.254 v -0.254 h 0.592666 0.592667 v 0.254 c 0,0.2398889 0.01882,0.254 0.338667,0.254 h 0.338666 v 0.7568891 0.756889 l 0.3175,0.026278 0.3175,0.026277 0.02373,1.0316136 c 0.02276,0.9894483 0.03141,1.0330997 0.211667,1.06797 0.103366,0.019996 -0.859811,0.036356 -2.140395,0.036356 -1.280583,0 -2.243761,-0.01636 -2.140394,-0.036356 z M -14.83915,5.0702184 V 4.0965517 h -0.296333 -0.296333 V 5.0702184 6.043885 h 0.296333 0.296333 z m 0.508,0.508 V 5.1125517 h 0.762 0.762 v 0.4656667 c 0,0.4412663 0.01118,0.4656666 0.213385,0.4656666 h 0.213384 l -0.02288,-1.7568333 -0.02289,-1.7568333 -0.275166,-0.026531 c -0.256335,-0.024715 -0.275167,-0.00878 -0.275167,0.2328334 v 0.2593643 h -0.592667 -0.592666 v -0.254 c 0,-0.2338413 -0.02352,-0.254 -0.296334,-0.254 h -0.296333 v 1.778 1.7779999 h 0.211667 c 0.200121,0 0.211666,-0.0254 0.211666,-0.4656666 z m 0.04233,-1.0583334 c -0.02878,-0.046567 -0.01198,-0.084667 0.03734,-0.084667 0.04931,0 0.08966,0.0381 0.08966,0.084667 0,0.046567 -0.0168,0.084667 -0.03734,0.084667 -0.02053,0 -0.06088,-0.0381 -0.08966,-0.084667 z m 0.381,0 c 0,-0.046567 0.0381,-0.084667 0.08467,-0.084667 0.04657,0 0.08467,0.0381 0.08467,0.084667 0,0.046567 -0.0381,0.084667 -0.08467,0.084667 -0.04657,0 -0.08467,-0.0381 -0.08467,-0.084667 z m 0.423333,0 c 0,-0.046567 0.0381,-0.084667 0.08467,-0.084667 0.04657,0 0.08467,0.0381 0.08467,0.084667 0,0.046567 -0.0381,0.084667 -0.08467,0.084667 -0.04657,0 -0.08467,-0.0381 -0.08467,-0.084667 z m 0.508,0 c 0,-0.046567 0.04035,-0.084667 0.08966,-0.084667 0.04931,0 0.06612,0.0381 0.03734,0.084667 -0.02878,0.046567 -0.06913,0.084667 -0.08966,0.084667 -0.02054,0 -0.03734,-0.0381 -0.03734,-0.084667 z m -1.308718,-0.417483 c -0.02679,-0.043349 -0.01,-0.1027475 0.03734,-0.1319968 0.04733,-0.029249 0.08605,0.00622 0.08605,0.078816 0,0.1487192 -0.05081,0.1706168 -0.123385,0.05318 z m 0.377385,-8.535e-4 c 0,-0.043818 0.0381,-0.103217 0.08467,-0.1319968 0.04657,-0.02878 0.08467,0.00707 0.08467,0.07967 0,0.072598 -0.0381,0.1319968 -0.08467,0.1319968 -0.04657,0 -0.08467,-0.035851 -0.08467,-0.07967 z m 0.465666,-0.005 c -0.02878,-0.046567 0.0093,-0.084667 0.08467,-0.084667 0.07535,0 0.113446,0.0381 0.08467,0.084667 -0.02878,0.046567 -0.06688,0.084667 -0.08467,0.084667 -0.01779,0 -0.05589,-0.0381 -0.08467,-0.084667 z m 0.423334,0 c -0.02878,-0.046567 0.0093,-0.084667 0.08467,-0.084667 0.07535,0 0.113447,0.0381 0.08467,0.084667 -0.02878,0.046567 -0.06688,0.084667 -0.08467,0.084667 -0.01779,0 -0.05589,-0.0381 -0.08467,-0.084667 z m -1.266385,-0.417483 c -0.02679,-0.043349 -0.01,-0.1027475 0.03734,-0.1319968 0.04733,-0.029249 0.08605,0.00622 0.08605,0.078816 0,0.1487192 -0.05081,0.1706168 -0.123385,0.05318 z m 0.424187,0.00138 c -0.02726,-0.044109 -0.01348,-0.1025015 0.03063,-0.1297622 0.04411,-0.027261 0.102501,-0.013476 0.129762,0.030633 0.02726,0.044109 0.01348,0.1025015 -0.03063,0.1297621 -0.04411,0.027261 -0.102501,0.013476 -0.129762,-0.030633 z m 0.419718,-0.093279 c 0.02925,-0.047326 0.08865,-0.064128 0.131997,-0.037337 0.117436,0.07258 0.09554,0.1233845 -0.05318,0.1233845 -0.0726,0 -0.108065,-0.038722 -0.07882,-0.086048 z m 0.423333,0 c 0.02925,-0.047326 0.08865,-0.064128 0.131997,-0.037337 0.117436,0.07258 0.09554,0.1233845 -0.05318,0.1233845 -0.0726,0 -0.108066,-0.038722 -0.07882,-0.086048 z m 0.068,2.0333812 v -0.381 l -0.64826,-0.024728 -0.648261,-0.024728 v 0.4304562 0.4304562 l 0.648261,-0.024728 0.64826,-0.024728 z m 1.243479,-0.5503333 V 4.0965517 h -0.296333 -0.296334 V 5.0702184 6.043885 h 0.296334 0.296333 z m -1.407344,-2.6246667 0.0033,-0.4233333 h -0.462141 -0.462142 l -0.02574,0.4488617 -0.02574,0.4488618 0.48459,-0.025529 0.48459,-0.025528 0.0033,-0.4233334 z m -0.709323,0 c 0,-0.2068298 0.01549,-0.2196152 0.140769,-0.1162003 0.109744,0.090591 0.148619,0.092875 0.176389,0.010367 0.06232,-0.185151 0.190842,-0.1138756 0.190842,0.1058333 0,0.219709 -0.128526,0.2909844 -0.190842,0.1058334 -0.02777,-0.082508 -0.06664,-0.080224 -0.176389,0.010367 -0.12528,0.1034149 -0.140769,0.090629 -0.140769,-0.1162004 z"
         id="path1334" />
      <path
         style="fill:#333333;fill-opacity:1;stroke-width:0.0846667"
         d="m -15.829835,6.0750149 c 0.02944,-0.029445 0.267112,-0.048613 0.528148,-0.042595 l 0.474611,0.010942 -0.01274,-1.0369047 c -0.007,-0.5702975 -0.0097,-1.3893297 -0.006,-1.8200713 l 0.0067,-0.7831667 h 0.333043 c 0.300381,0 0.335671,-0.022835 0.359834,-0.2328333 0.02333,-0.2027892 0.06503,-0.2338103 0.323123,-0.2404047 0.295256,-0.00754 0.295333,-0.00745 0.02117,0.026278 -0.240364,0.029568 -0.275167,0.065328 -0.275167,0.2827379 0,0.2343153 -0.02002,0.2488891 -0.341874,0.2488891 h -0.341874 l 0.02437,1.8204122 0.02437,1.8204121 -0.585611,-7.88e-5 c -0.322086,-4.34e-5 -0.561519,-0.024171 -0.532074,-0.053616 z m 1.34591,-0.00394 c 0.09875,-0.026025 0.153593,-0.1484778 0.175709,-0.3923451 l 0.03215,-0.3545127 0.01479,0.3561241 0.01479,0.3561241 0.613833,0.029219 c 0.53588,0.025509 0.511687,0.030109 -0.1905,0.036221 -0.442383,0.00385 -0.739732,-0.010023 -0.660775,-0.030831 z m 1.565191,-0.4044987 0.01542,-0.4621729 -0.608083,-0.031168 -0.608082,-0.031168 0.635,0.00641 0.635,0.00641 0.02559,0.4445 0.02559,0.4445 h 0.550887 0.550887 l -0.02614,-1.0161601 c -0.01438,-0.5588882 0.0024,-1.0160882 0.03735,-1.016 0.03492,8.46e-5 0.0635,0.4547103 0.0635,1.0102715 0,0.9802067 0.0056,1.0111976 0.1905,1.0468032 0.104775,0.020181 -0.1905,0.041925 -0.656167,0.048321 l -0.846667,0.011629 z m 0.56584,-0.5116925 c 2.21e-4,-0.4656666 0.01444,-0.6453644 0.0316,-0.3993284 0.01716,0.246036 0.01698,0.627036 -3.98e-4,0.8466666 -0.01738,0.2196307 -0.03142,0.018328 -0.0312,-0.4473382 z m -3.145607,-0.1808904 -0.01798,-0.9428903 0.254,-0.037279 c 0.1397,-0.020504 0.254,-0.00578 0.254,0.032724 0,0.038502 -0.09396,0.070003 -0.208802,0.070003 -0.207322,0 -0.208996,0.00645 -0.236019,0.9101667 l -0.02722,0.9101666 z m 1.167351,0.2232238 c 0,-0.046567 0.04035,-0.084667 0.08966,-0.084667 0.04931,0 0.06612,0.0381 0.03734,0.084667 -0.02878,0.046567 -0.06913,0.084667 -0.08966,0.084667 -0.02054,0 -0.03734,-0.0381 -0.03734,-0.084667 z m 0.04233,-0.6773334 c -0.02878,-0.046567 -0.01198,-0.084667 0.03734,-0.084667 0.04931,0 0.08966,0.0381 0.08966,0.084667 0,0.046567 -0.0168,0.084667 -0.03734,0.084667 -0.02053,0 -0.06088,-0.0381 -0.08966,-0.084667 z m 0.846666,0 c -0.02878,-0.046567 -0.01198,-0.084667 0.03734,-0.084667 0.04931,0 0.08966,0.0381 0.08966,0.084667 0,0.046567 -0.0168,0.084667 -0.03734,0.084667 -0.02053,0 -0.06088,-0.0381 -0.08966,-0.084667 z m 0.465667,0 c 0,-0.046567 0.04035,-0.084667 0.08966,-0.084667 0.04931,0 0.06612,0.0381 0.03734,0.084667 -0.02878,0.046567 -0.06913,0.084667 -0.08966,0.084667 -0.02054,0 -0.03734,-0.0381 -0.03734,-0.084667 z M -14.28882,4.0965504 c -0.02878,-0.046567 -0.01198,-0.084667 0.03734,-0.084667 0.04931,0 0.08966,0.0381 0.08966,0.084667 0,0.046567 -0.0168,0.084667 -0.03734,0.084667 -0.02053,0 -0.06088,-0.0381 -0.08966,-0.084667 z m 0.846666,0 c -0.02878,-0.046567 -0.01198,-0.084667 0.03734,-0.084667 0.04931,0 0.08966,0.0381 0.08966,0.084667 0,0.046567 -0.0168,0.084667 -0.03734,0.084667 -0.02053,0 -0.06088,-0.0381 -0.08966,-0.084667 z m 0.465667,0 c 0,-0.046567 0.04035,-0.084667 0.08966,-0.084667 0.04931,0 0.06612,0.0381 0.03734,0.084667 -0.02878,0.046567 -0.06913,0.084667 -0.08966,0.084667 -0.02054,0 -0.03734,-0.0381 -0.03734,-0.084667 z m 0.574677,-0.7831666 -0.02434,-0.7831667 -0.344564,-0.025289 c -0.326731,-0.02398 -0.34272,-0.037859 -0.30892,-0.2681537 0.02846,-0.1938833 -5e-4,-0.2508201 -0.143566,-0.2823096 -0.164602,-0.036229 -0.163576,-0.038527 0.01259,-0.02818 0.141732,0.00832 0.19867,0.070789 0.218125,0.2392951 0.02262,0.1958982 0.07034,0.2316895 0.338666,0.254 l 0.31234,0.02597 0.02436,0.7842438 c 0.02429,0.7820062 0.02495,0.7841359 0.232833,0.7464401 0.114662,-0.020792 0.208476,-0.00223 0.208476,0.041256 0,0.043483 -0.112871,0.07906 -0.250823,0.07906 h -0.250823 z m -1.88701,0.2751666 c 0.02878,-0.046567 0.06913,-0.084667 0.08966,-0.084667 0.02054,0 0.03734,0.0381 0.03734,0.084667 0,0.046567 -0.04035,0.084667 -0.08966,0.084667 -0.04931,0 -0.06612,-0.0381 -0.03734,-0.084667 z m 0.423333,0 c 0.02878,-0.046567 0.06913,-0.084667 0.08966,-0.084667 0.02054,0 0.03734,0.0381 0.03734,0.084667 0,0.046567 -0.04035,0.084667 -0.08966,0.084667 -0.04931,0 -0.06612,-0.0381 -0.03734,-0.084667 z m 0.423333,0 c 0.02878,-0.046567 0.06913,-0.084667 0.08966,-0.084667 0.02054,0 0.03734,0.0381 0.03734,0.084667 0,0.046567 -0.04035,0.084667 -0.08966,0.084667 -0.04931,0 -0.06612,-0.0381 -0.03734,-0.084667 z m 0.465667,-0.005 c 0,-0.049315 0.0381,-0.066116 0.08467,-0.037337 0.04657,0.02878 0.08467,0.069128 0.08467,0.089663 0,0.020535 -0.0381,0.037337 -0.08467,0.037337 -0.04657,0 -0.08467,-0.040349 -0.08467,-0.089663 z m -1.175512,-0.7781696 c 0.0077,-0.1495143 0.01832,-0.157758 0.04931,-0.038317 0.03319,0.127904 0.11605,0.1481657 0.519345,0.127 0.294767,-0.01547 0.479852,-0.063284 0.479852,-0.1239613 0,-0.054328 0.02858,-0.1273528 0.0635,-0.1622778 0.03492,-0.034925 0.0635,0.0381 0.0635,0.1622778 0,0.2230899 -0.0071,0.2257778 -0.592667,0.2257778 -0.561083,0 -0.592143,-0.010152 -0.582845,-0.1905 z m 0.336826,-0.3598334 c 0.003,-0.1397 0.0246,-0.206375 0.04809,-0.1481666 0.02349,0.058208 0.09351,0.1058333 0.155594,0.1058333 0.06209,0 0.128809,-0.047625 0.148267,-0.1058333 0.01946,-0.058208 0.0548,-0.00444 0.07855,0.1194883 0.03881,0.2025623 0.02713,0.2153904 -0.115573,0.127 -0.126143,-0.078131 -0.17533,-0.072242 -0.239527,0.028678 -0.06119,0.096188 -0.07948,0.065376 -0.0754,-0.127 z"
         id="path1332" />
    </g>
  </g>
</svg>
