<svg fill="#fff" xmlns="http://www.w3.org/2000/svg" viewBox="0 0 64 64" width="64px" height="64px">
    <path
        d="M 40.042969 12.445312 C 50.71875 12.445312 51.554688 13.28125 51.554688 23.957031 L 51.554688 40.042969 C 51.554688 50.71875 50.71875 51.554688 40.042969 51.554688 L 38 51.554688 L 38 37.316406 L 43.019531 37.316406 L 43.808594 31.675781 L 38 31.675781 C 38 31.675781 37.992188 28.371094 38 27.546875 C 38.019531 25.9375 39.363281 25.121094 40.519531 25.132812 C 41.679688 25.144531 44.074219 25.136719 44.074219 25.136719 L 44.074219 19.9375 C 44.074219 19.9375 42 19.667969 39.820312 19.644531 C 37.992188 19.625 35.972656 20.121094 34.34375 21.765625 C 32.683594 23.4375 32.421875 25.921875 32.390625 28.964844 C 32.382812 29.84375 32.390625 31.675781 32.390625 31.675781 L 27.480469 31.675781 L 27.480469 37.316406 L 32.390625 37.316406 L 32.390625 51.554688 L 23.957031 51.554688 C 13.28125 51.554688 12.445312 50.71875 12.445312 40.042969 L 12.445312 23.957031 C 12.445312 13.28125 13.28125 12.445312 23.957031 12.445312 Z M 40.042969 12.445312 " />
</svg>